<?xml version="1.0" encoding="UTF-8"?>
<svg xmlns="http://www.w3.org/2000/svg" xmlns:xlink="http://www.w3.org/1999/xlink" version="1.1" viewBox="0 0 1239 275">
  <defs>
    <style>
      .cls-1 {
        fill: #dacb89;
      }

      .cls-2 {
        fill: url(#linear-gradient-2);
      }

      .cls-3 {
        fill: #f6e7b2;
      }

      .cls-4 {
        fill: url(#linear-gradient);
      }

      .cls-5 {
        fill: #d5ae38;
      }

      .cls-6 {
        fill: #fff;
      }
    </style>
    <linearGradient id="linear-gradient" x1="723.8" y1="14.7" x2="723.8" y2="221.7" gradientUnits="userSpaceOnUse">
      <stop offset="0" stop-color="#f2e9b9"/>
      <stop offset=".1" stop-color="#eee4b1"/>
      <stop offset=".3" stop-color="#e3d59b"/>
      <stop offset=".5" stop-color="#d1bd78"/>
      <stop offset=".7" stop-color="#b89b48"/>
      <stop offset="1" stop-color="#9f7c14"/>
    </linearGradient>
    <linearGradient id="linear-gradient-2" x1="885.2" y1="14.7" x2="885.2" y2="221.7" xlink:href="#linear-gradient"/>
  </defs>
  <!-- Generator: Adobe Illustrator 28.6.0, SVG Export Plug-In . SVG Version: 1.2.0 Build 709)  -->
  <g>
    <g id="Layer_1">
      <g>
        <rect class="cls-3" x="605.8" y="1.9" width="1" height="271.1"/>
        <g>
          <g>
            <path class="cls-5" d="M323,92.5h-11.3l-11-48-11.5,48h-11.4l-14-59.6h10.2l9.9,47.6,11.7-47.6h11.2l11.2,47.6,10.1-47.6h9.4l-14.3,59.6h0Z"/>
            <path class="cls-5" d="M391.6,85.1c-5.2,5.8-12,8.7-20.3,8.7s-15.1-2.9-20.3-8.7c-5.2-5.8-7.9-13.3-7.9-22.5s2.6-16.6,7.9-22.3c5.2-5.8,12.1-8.7,20.5-8.7s15.1,2.9,20.2,8.6c5.1,5.7,7.8,13.1,7.8,22.2s-2.6,16.9-7.9,22.7h0ZM383.9,46.3c-3.4-4.1-7.7-6.1-12.9-6.1s-9.4,2.2-12.5,6.3c-3.2,4.1-4.7,9.7-4.7,16.4s1.7,12,5,16.1c3.4,4,7.6,6.1,12.8,6.1s10.2-2.3,13.3-7.1c2.8-4.1,4.1-9.4,4.1-15.8s-1.9-11.8-5.1-15.9h0Z"/>
            <path class="cls-5" d="M442.7,92.5l-7.1-15.9c-1.8-4-3.5-6.5-5.1-7.5-1.4-.8-3.6-1.2-7.1-1.2h-2.5v24.6h-10.2v-59.6h14.3c5.2,0,8.9.2,10.9.5,3.6.6,6.5,2.2,8.8,4.3,3.3,3.3,4.8,7.2,4.8,11.9,0,8.1-5.1,13.9-13.2,15,1.9.2,3.6,1.1,5.2,2.8,1.3,1.3,3,4.2,5.1,9.1l7.1,15.9h-11ZM436.8,43.6c-1.2-1.2-2.8-2-4.8-2.3-1-.2-3.2-.3-6.3-.3h-4.8v18.7h3.9c5.7,0,9.6-1,11.6-3.1,1.8-1.8,2.7-4,2.7-6.8s-.8-4.8-2.3-6.3h0Z"/>
            <path class="cls-5" d="M465,92.5v-59.6h10.4v51h23.9v8.6h-34.2Z"/>
            <path class="cls-5" d="M552.3,84c-3.6,3.6-8.1,6.1-13.5,7.2-3.6.8-8.9,1.3-15.8,1.3h-13.1v-59.6h15.3c6.7,0,11.7.4,14.8,1.1,4.8,1.1,8.9,3.3,12.3,6.7,5.5,5.5,8.3,12.7,8.3,21.5s-2.8,16.3-8.3,21.8h0ZM544.5,46.3c-2.4-2.4-5.1-3.8-8.5-4.5-2.3-.5-6-.7-11-.7h-4.7v43.1h7.1c8,0,13.8-2,17.6-6,3.6-3.8,5.3-9.2,5.3-16.3,0-6.5-1.9-11.7-5.7-15.6h0Z"/>
            <path class="cls-5" d="M293.3,109.5v51.2h-10.4v-51.2h-16.9v-8.4h44.1v8.4h-16.9Z"/>
            <path class="cls-5" d="M350.7,160.7l-7.1-15.9c-1.8-4-3.5-6.5-5.1-7.5-1.4-.8-3.6-1.2-7.1-1.2h-2.5v24.6h-10.3v-59.6h14.3c5.2,0,8.9.2,10.9.6,3.6.6,6.5,2.2,8.8,4.3,3.3,3.3,4.8,7.2,4.8,11.9,0,8.1-5.1,13.9-13.2,15,1.9.2,3.6,1.1,5.2,2.8,1.3,1.3,3,4.3,5.1,9l7.1,15.9h-10.9ZM344.8,111.9c-1.2-1.2-2.8-2-4.8-2.3-1-.2-3.2-.3-6.3-.3h-4.8v18.7h3.9c5.7,0,9.6-1,11.6-3.1,1.8-1.8,2.7-4,2.7-6.8,0-2.7-.7-4.8-2.3-6.3h0Z"/>
            <path class="cls-5" d="M410.8,160.7l-4.7-13.9h-23.4l-4.7,13.9h-10.5l21.7-59.6h10.7l21.7,59.6h-10.8ZM394.3,112.2l-9,26.5h18l-9-26.5h0Z"/>
            <path class="cls-5" d="M448.8,160.7h-10.6l-20.6-59.6h10.6l15.6,48,15.8-48h10.1l-20.8,59.6h0Z"/>
            <path class="cls-5" d="M478.8,160.7v-59.6h34.5v8.4h-24.4v16.3h22.9v8.2h-22.9v18.2h25.1v8.6h-35.2Z"/>
            <path class="cls-5" d="M525.5,160.7v-59.6h10.4v51h24v8.6h-34.3Z"/>
            <path class="cls-5" d="M302.6,222.7l-4.1-12.2h-20.6l-4.1,12.2h-9.2l19.1-52.4h9.4l19,52.4h-9.5ZM288.1,180l-7.9,23.4h15.8l-7.9-23.4Z"/>
            <path class="cls-5" d="M364,222.7h-10l-9.8-42.3-10.3,42.3h-10.1l-12.3-52.4h9l8.7,41.8,10.3-41.8h9.9l9.9,41.8,8.9-41.8h8.3l-12.4,52.4Z"/>
            <path class="cls-5" d="M414.7,222.7l-4.1-12.2h-20.6l-4.1,12.2h-9.2l19.1-52.4h9.4l19.1,52.4h-9.6ZM400.1,180l-7.9,23.4h15.8l-7.9-23.4Z"/>
            <path class="cls-5" d="M459.6,222.7l-6.3-14c-1.6-3.6-3.1-5.7-4.4-6.6-1.2-.7-3.3-1-6.3-1h-2.2v21.6h-9v-52.4h12.6c4.6,0,7.8.2,9.5.5,3.2.6,5.7,1.9,7.7,3.8,2.9,2.9,4.2,6.3,4.2,10.6,0,7.1-4.4,12.2-11.6,13.2,1.7.2,3.2,1,4.6,2.5,1.1,1.1,2.6,3.7,4.4,8l6.3,14h-9.6v-.2h0ZM454.5,179.8c-1-1-2.5-1.8-4.2-2-.9-.2-2.8-.2-5.5-.2h-4.2v16.5h3.5c5,0,8.4-.9,10.3-2.7,1.6-1.6,2.4-3.6,2.4-6s-.8-4.3-2.1-5.6h0Z"/>
            <path class="cls-5" d="M514.8,215.3c-3.3,3.3-7.1,5.3-11.8,6.3-3.2.7-7.8,1.1-13.9,1.1h-11.5v-52.4h13.4c5.9,0,10.3.3,13,1,4.2,1,7.9,2.9,10.9,5.9,4.8,4.8,7.3,11.1,7.3,18.9s-2.5,14.2-7.3,19.1h0ZM507.9,182.1c-2.1-2.1-4.5-3.4-7.5-4-2-.4-5.2-.6-9.8-.6h-4.1v38h6.2c7,0,12.1-1.8,15.5-5.2,3.2-3.4,4.7-8.1,4.7-14.3,0-5.9-1.6-10.5-5-13.8h0Z"/>
            <path class="cls-5" d="M556.8,219.4c-3.3,3-7.6,4.4-13.1,4.4s-8.2-1-11.9-2.8c-2.4-1.2-4-2.2-4.8-3.2l4.1-6.3c4.4,2.9,8.6,4.4,12.2,4.4,5.9,0,9.3-3,9.3-7.7s-1.2-4.2-3.6-5.8c-.7-.5-3.2-1.7-7.3-3.5-3.8-1.8-6.6-3.3-8.1-4.4-3.4-2.9-5.1-6.3-5.1-10.7s1.6-7.9,4.8-10.7c3.3-2.8,7.3-4.1,12.4-4.1s7.9.9,11.3,2.7c1.8,1,3.3,1.9,4.2,2.9l-4.2,5.8c-3.3-2.6-6.8-3.9-10.7-3.9s-9,2.7-9,6.7.8,3.4,2.3,4.4c1,.8,3.6,2.1,7.4,3.6,4.8,2.1,8.2,3.9,10.2,5.7,3.1,2.8,4.5,6.3,4.5,10.6-.2,4.8-1.8,8.8-5,11.7h0Z"/>
          </g>
          <g>
            <path class="cls-5" d="M89,196.4c-46.5,0-84.1-37.7-84.1-84.1s.2-7.2.7-10.7c0-.9.2-1.7.4-2.6,4.6-29.6,24.9-54.2,51.9-64.9.7-.3,1.4-.5,2.1-.8,9.1-3.4,18.9-5.2,29.2-5.2s5.8.2,8.6.4c.6,0,1.3,0,1.9.2,5.6.7,11,2,16.3,3.7.6.2,1.3.4,1.9.7,32.4,11.7,55.5,42.7,55.5,79.1,0,46.6-37.8,84.2-84.2,84.1"/>
            <path class="cls-6" d="M89,192.9c-44.6,0-80.7-36.1-80.7-80.7s.2-6.9.7-10.3c0-.8.2-1.6.4-2.5,4.5-28.4,23.8-51.9,49.8-62.2.7-.3,1.3-.5,2-.8,8.7-3.3,18.2-4.9,27.9-4.9s5.5.2,8.3.4c.6,0,1.2,0,1.8.2,5.3.7,10.6,1.9,15.6,3.6.6.2,1.2.4,1.8.6,31.1,11.2,53.2,40.9,53.2,75.9,0,44.7-36.2,80.8-80.7,80.8"/>
            <g>
              <polygon class="cls-5" points="77.1 62.4 77.9 62.4 77.2 64.2 78.1 63 77.8 63.5 78.5 63.4 77.9 65.1 80 64.8 79.4 65.3 79.7 65.9 80.3 65.7 80.1 66.9 78.1 67.7 78.7 67.5 78.9 68.1 77.3 69.1 79.2 69.8 80.2 69.4 79.6 70 78.5 70.1 76.6 71.7 78.9 71.4 79.2 70.9 80.2 70.9 84.1 70.4 84.7 69.9 83.8 69.6 85 68.7 85.1 67.8 83.3 67.7 83.7 67.1 82.9 66.5 83.4 66.3 82.1 65.2 81.7 64 80 63.3 80.7 62.9 80.4 62.7 81.2 62.1 81.6 61 79.2 61.1 79.6 60.8 79.3 60.6 80.4 60 80.2 59.7 78.6 59.8 78.2 60.2 78.2 60.6 77.5 61.1 77.8 61.5 77.1 62.4"/>
              <polygon class="cls-5" points="76 68.6 76.6 66 77.4 65.3 76.8 64.5 75.7 64.7 75.5 64.2 75.3 64.8 75.3 64.4 74.6 64.5 73.9 65.1 74.5 65.2 74 65.7 72.7 65.6 72.2 66 72.8 66.3 72.2 66.6 72.4 67 73.4 67.2 72.3 68 73.5 67.9 71.7 68.6 72.2 68.8 71.7 69.1 72.3 69.1 71.9 69.5 76 68.6"/>
              <path class="cls-5" d="M64.8,47l-3-.2-2.6.4,1.5-.4h-2.2c0,0,.8-.3.8-.3v-.4c0,0,2.8-.3,2.8-.3l-1.6-.3-.4-.3.2-.2,2.5.6.9,1h.8l.2-.4.8.4-.4-.7.5-.6-.9.3.7-.5-1.1.2.7-.4-1.7-.6-.9.4.2-.4.8-.2-1.9-.2,1.8-.3-1.6-.3h.8c0,0,1.8-.6,1.8-.6l1.4.7,1.8-.3.2-.4-1.6-.7.5-.2,2.6.2-1.6-.2.4-.4h-.8l.9-.2-1.1-.3,2.1.4.3-.7-1.3-.5,1.2-.2-1.7-.2-.7-.5,4-.3v-.3l-1.9-.2.4-.2-.3-.2h1.2c0,0-1.2-.4-1.2-.4l-1.1.4,1.2-.9h-.2l.2-.2,2-.5-.7.2.4-.5,1.8-.4-2.3.2v-.3c0,0,3.5-.5,3.5-.5h-4.1l5.3-.3v-.3c0,0,2.3-.4,2.3-.4l-2.6-.7h0c-.4,0-.9-.2-1.3-.4s-.8-.4-1.2-.4h-.2l.6,1.7-2.2-1.5c-13.8,3.1-26.3,9.9-36.5,19.2l.8,1.6.5.2h-.4l.2.3-1.1.4c0,.2-.3.3-.4.5v1.1c0,0,.6.2.6.2l-.4.3.6.5-.3.2.8-.2-.6.3.3.3-.3.2h1l-.9.2,1.2.5-.7.3,2.9-.2-.5.3.8.3-.4.5.4.2,1.7-.2-.4-.5h.8c0,0,1.5-1.7,1.5-1.7v-.9c0,0-.2-.3-.2-.3l1.3-.4-.3-.3h.7c0,0,0-.3,0-.3l1-.2-.5-.4h.8c0,0,0-.4,0-.4l-.7-.2h1.2c0,0-.7-.8-.7-.8l.3-.3h.9c0,0,.5,0,.5,0l-.4-.4.6-.2h1.4v-.4h.4l.4-.6.6.2-.8.4.4.2.2-.3,1.1.3.4-.7h1c0,0,1.5-.8,1.5-.8l.7-.9,1.3-.4v-.8c0,0,.5.7.5.7h1.4c0,0,.5-.4.5-.4l3.5-.3,4.5-1.9h0Z"/>
              <polygon class="cls-5" points="100.7 35.2 100 35.3 100.7 35.5 103.1 35.4 101.3 35.7 104.9 35.9 106.2 35.8 107.3 35.2 105.1 35.1 105.4 34.8 103.9 35.1 104.1 34.7 103.7 34.6 103.4 35.2 101.1 34.6 101.1 34.8 101.3 35 100.8 34.8 101.1 35.2 99.5 35.1 100.7 35.2"/>
              <polygon class="cls-5" points="95 35.8 94.8 36.1 95.4 36.3 94.5 36.2 96.1 36.6 95.4 36.7 95.9 37 97.3 36.8 97.1 36.7 97.3 36.4 97.9 36.3 98.1 36.7 98.9 36.4 98.8 36.7 99.5 36.8 96.4 37.2 96.7 37.5 99.2 37.3 97.5 37.6 98.5 37.8 96.8 37.7 97.1 38.2 98.8 38.3 98.1 38.4 98.8 38.9 99.4 38.8 100 37.9 99.9 37.8 100.4 37.8 100.5 37.2 101 37.2 101 36.8 102.9 36.4 100.7 35.9 100.4 35.6 99.6 35.8 99.9 35.4 98.6 35.2 98.1 35.4 98.7 36.2 97.3 35.4 96.6 35.7 96.9 35.9 95.3 35.7 96.5 35.3 93.9 35.7 94.4 36 95 35.8"/>
              <path class="cls-5" d="M144.7,165.4l.4.7.4-.7-.6-3.6-.9-1.2-.5.3v1.3l-.8.8-.4-.2v.9c0,0-.3.3-.3.3l.4.4-.8.5-.2-.4v1c0,0-.6-.3-.6-.3l-.5.5.2.7-.7-.5-2.2.8-.8,1.9.7,3.4-1.8,3.1.3,3.2,2.9-1.6c2.2-1.7,4.7-3.9,5.9-5l.6-.6-.9-3.6v-1.9h0Z"/>
              <path class="cls-5" d="M136.2,45.9l-5.1,2-.3.8-.9.4-1.9-1,1.5-.4-.4-.5-3.2-.6.9.4v1.3c0,0,.9.4.9.4v1.5c0,0-2-.9-2-.9l-2.1,1.2,1.4,1.5-2.9-.2.2-.2-1.6-.5v.7c0,0,1.2.3,1.2.3l.5.8-.7.2-3.1-1v-.5c0,0-.5-.6-.5-.6l.3-.7-3-1.5,6.9,1.3,2.1-.9v-.4c0,0-.3-.7-.3-.7l-5.4-1.9-2.8-.2-.9-.3.9-.2-1.2-.3-.2.3-.7-.2h0l-1.2.2.2-.3-1.2-.3,2.1-.3-1.8-.5-1,.4.2-.2-.4-.2.5-.3-.9-.2-.4.8-.4.2v-.7c0,0-1.3,1-1.3,1l.5-1-.8-.2-1.5,1.2-1.6-.3.5.7-.8-.3-1.1.9v-.8c0,0-.4.6-.4.6v-.4h-.5v.3c0,0,.3.3.3.3l-1.2-.3-.6.6.2.3-1.1.3h1c0,0-1.2.3-1.2.3v.4c0,0-.4-.2-.4-.2l-.6.7h.5l-1.1.2-1.2.9v.6c0,0-.7.4-.7.4h.6c0,0-.7.4-.7.4l.2.3-.3-.3-.2.4.3.2-1,.3.3.2-.3.3h-.5c0,0-1.2.9-1.2.9l.4.4-2.6.7-.6.2.6.4h-1.2l.2.4h-1.5c0,0,1.3.4,1.3.4l-1.4.2h.3c0,0-.3.8-.3.8l1.5-.3.5.3.5-.5-.2.4h.3l-.8.5h-1.9c0,0,0,.3,0,.3h.5c0,0-.6.3-.6.3h.4c0,0,0,.6,0,.6l.9-.9h.8l-1.3,1.1h.6c0,0-1.2.5-1.2.5h1.2l-1,1,1.3.5v.3c0,0,1,0,1,0l2-1.5h.7c0,0,0-.8,0-.8l.3.2.2-.5v.9c0,0,.6.2.6.2v.9l.8.9v.7c0,0,1,1.1,1,1.1l-.4.4.5.9-.2.2h1.4c0,0,.3-.8.3-.8l1.7-.2.7-1.8v-1.2c0,0-.2-.2-.2-.2h.4c0,0-.7-.3-.7-.3l2.5-.9h-.7c0,0,.9-.8.9-.8l-1.4-1-.3.3v-2.8l1-.5,3.2-1.9-.4-.5.3-.7.6-.3-.3-.3,2.2-.2,1.3.6.3.7-.9.2-2.8,2.3-.6.5.8,1.5-.3,1.1,1.6.4.4.5-.2.2,4.8-1,1-.2v.5l1.8.5-2.2.2-.3.4-2.2-.3-2.2.7.2,1.1h.9l-.2,2-1.8-1.1-.9.2-.7,1.1.3,2.6-.6-.2.4-.9-1.6,1.8-.9.2-.2-.7h-1.6l-3.4,1.4-1.4-.8-.5.4.3-.2-2.1.7.3-.5h-1.1c0,0-.5-.8-.5-.8v-1.2c0,0,1.5-.8,1.5-.8l-.9-.4.4-1.6-2.3,1.1-.3,1.9.6.3v.6l.3.5-.3.3.4.7h-.5c0,0,0,.8,0,.8l-1.1-.6-.8.4.5.3h-.4c0,0-1.8,0-1.8,0l-.2,1.4-.3-.2v-.6l-1,1.4.9.3-1.6.6-.9.3-1,.2-.2,1-1.6.7.3.4h-1.8c0,0-.9-.4-.9-.4l.4,1.6-2.2-.2-1.5.4.3,1,3,.9h-.4v.6l1,.7.4,1.5-.3-.3-.7,2.7-.6.3-7.3-.4-1.4,1,.7,1-.3.7v1.3c0,0-1.1,3.2-1.1,3.2l.9.3-.3,2.2,1.8-.2,1,.2,1.3,1.5,1.5-.8,2.8-.2,2.7-2.8-.4-1,1.5-2.1,2.8-1.5v-.9c0,0,.2-1.2.2-1.2l1-.4,1.2.2,1.3.4,1.6-1.1,1.5-.9,1.6.7,1.2,2.3,5.2,3.4.8,1.9-.6.9.4.4,1.3-1.7v-.6c0,0-.8-.4-.8-.4l.3-.9.5-.3,1.5,1v-.3c0,0-.5-.9-.5-.9l-2.5-1v-.8c0,0-.8.2-.8.2l-.6-.4-1.5-2.2-1.3-.8-.3-1.8,1.6-.3.3,1,.9-.6,1.7,2.6,1,.2.8.6h-.6l2.8,1.6.3.2-.3,2,1,1.1,1.2,1-.4.2.6.8h1.8l1.7,1v-.8c0,0-1.9-1.1-1.9-1.1h.5c0,0,0-.6,0-.6l.4.2-.9-1.2v-.9l1.1.9-.2-.4.7.4-.2-.7.6.3-.8-.7.8-.4,2.1.3h.9c0,0-.7,1-.7,1l1.6-1.3h1.6c0,0,0-.4,0-.4l-1-.4-.3-.5-.7-.9,1.2-1.9.2-1.8v.8l.7-.5v-.8c0,0,1-1,1-1l-.3-.4.4.2,1.5-.9.4.5h-.7.5c0,0-.3.4-.3.4l2.2.3-1.2.9,1,.3.2.9.7.2,1.6-1h1.1c0,0,0-.5,0-.5l-1.8.2-.7-.9-1-.4.5-.2.9.7.2-.9v.5l.8-.8,3.6-1,.3.3-.9.6h-.9l.9.9-2,1.3,5.8,3.5.6,1.1v.7c0,0-1.4.9-1.4.9h-2.7c0,0-2.2-.4-2.2-.4l-1.6-1.1h-2.1c0,0-2.6,1.6-2.6,1.6l-2.3-.3v.5c0,0,.9.3.9.3l-3.6.4-.4.6-.3.8h.9c0,0,0,1.2,0,1.2l.4.3-.8-.3v.6c0,0,.9.3.9.3l.3,1.5h1.2c0,0-1,.5-1,.5l1.4-.3,1.7,1,1.3-1,2.4,1.3,2.1-1.2,1.1.4.6-.4v1.6l.2,1.6-1,2.4-1,2.7-1.3.3-1.2-.3-.4-.4h-1.5c0,0-2.1,1.1-2.1,1.1l-4.8-1.3-2.5-.8-.4-.8h-2.4c0,0-1.2.9-1.2.9v2.1c0,0-1.3.6-1.3.6l-1.6-1-2.3-.6-.8-1.5-4.6-1.2-1.8-1.2,1.6-1.9-.8-1.4.6-1.3-.7.3-1-.8-1.2.5h-4.5c0,0-4.5.7-4.5.7l-4,2.2-2.9-.2-1.2-1.1-.6.3-1.2,2.4-3.2,2.4-1,1.7v1.9c0,0-.4.8-.4.8l-.4.6-3.5,2.2-.7,1.4-1.3,1-.5,1.6-2.7,4.1-.4,1.7.9,1-.4,1.5.5,1.3-.8,3.6-.5,1.4-.9.6,1.3,1.7-.3.8v.9l1.1,1.1,1.3-.4-.8.4.5,1.1,2.3,2.8.4,1.8,1.9,1.4,2.8,2.8,2.3,1,3.6-1h2.2c0,0,1.5.7,1.5.7l4.1-2.1.9-.2h1.1c0,0,1.9-.2,1.9-.2l.9.8.6.6v.9l1,.8,2.8-.8.8.9.9.2.3,1.1-.3,1.6-.5,1.4.3.3-.3.7.7.5h-.8c0,0,0,.9,0,.9l-.6.5.7,1.7,2.4,3.1,1.2,1.6.3,1.1v.6c0,0,1.3,3,1.3,3l-.3,1.4.9,2.8-.2,1.8-1.6,2.2-.9,5.2v1.2c0,0,3.5,6.5,3.5,6.5v2.4l.9,4.7,1.7,1.9,1.8,5.2h0c.5,0,1-.2,1.5-.3,2.6-.5,7.8-1.8,13.6-4,1-.4,2-.8,3-1.3l.9-3.4-.5-.2.4-.6,2.6-1.1.9-1,.3-2.9-1-2.3v-1c0,0,3.6-3.4,3.6-3.4l2.1-.9,2-2.2.3-7.6-.7-.6-.5-1.6.2-2.7-.9-1.2.6-2.5,1.4-2.9,1.6-1.6,1.4-2.1,4.1-3.6,2.4-2.8,1.6-2.4,1.6-3.7.9-3h.6c0,0-.4-.3-.4-.3l.2-2-.7-.3-1.9.8-6.1,1.6-1.6-1.6-.9-.2,1-.7-.4-1.2-2.4-2.6-1.4-.5-.4-.9-.3.4-1.8-4.2-1.5-1.3-.9-4.5-1.6-1.6-.3-1.1h.4c0,0-.8-.9-.8-.9l-2.4-5.1-1-1.4-.3-1.6,2.1,3.3.4-.2.5-2.2h.2l-.3,2h.7l3.2,5.4,1.3.8.9,2.1.4,2.6,2.1,1.7,2.5,4.6v1.6l1.3,3.8h1.8l1.1-1,3.7-1,1-1,3.5-1.3v-.9c0,0,1-.6,1-.6l2.4-.5.8-1.3,1-.3.4-1.1,1.3-.5v-2c0,0,.8,0,.8,0l1.4-3-1.5-1.6-2.5-.9-.8-1-.2-1.1v-1c0,0-.3.3-.3.3l-2.4,2.9h-2.7c0,0-.7-.3-.7-.3v-.5c0,0,.2-1.8.2-1.8l-.6-.4-.4,2.1-1-1.6-.2-1.4-2.3-2.8-.9-1.1.7-.5-.4-.4h.7c0,0,.3-.9.3-.9l.9.9.5-.3,2.2,3.4,2.9,1.7,1.3.2,2.2-.9.6.3.9,1.8,5.3.8,4.2-.2h1.9c0,0,1.6,2.1,1.6,2.1l.7.2,1.3,1.4,1.5-.2c0-26.6-13.4-50.4-33.8-65h0ZM116,57.9l-1.3-1.9.9-.5,1.6.7.6.9-1.8.8h0Z"/>
              <polygon class="cls-5" points="115.7 55.5 114.8 56.1 116 57.9 117.8 57.1 117.2 56.2 115.7 55.5"/>
            </g>
            <g>
              <path class="cls-3" d="M237.2,180.3c-5-7.5-11.7-17.1-11.7-17.1l-7.5-11.6,6.2-16c22.9-19.6,33-30.1,30.5-56.9-2.6-26.8-47.8-45.6-64.3-41.8-16.4,3.7-32.7,16.9-37.5,22.7-4.8,5.7-.7,6-1.4,11.3-.7,5.3-7.9,10.9-13.6,14.1-5.7,3.3-9,5.1-8.8,7.4.2,2.3,6,6.7,6,6.7,0,0-.7,2.6-1.9,5.5-1.2,3.1-1.6,3.9-.7,5.1.9,1.2,8.1,4.6,8.1,4.6h-6.7c-4.4,0-4.4,3.7-2.1,6.5,2.3,2.8,1.4,4.1-1.4,7.4-2.8,3.3-4.1,6-1.9,10.7,2.4,4.6,13.9,4.1,13.9,4.1,0,0,5.5,9.8,7.4,18.1,1.9,8.3,11,20.3,13.4,26.8,2.3,6.5-1.4,14.8-1.4,14.8-9.3,10.6-15,22.9-18.2,31.3l-1.5,4.1c39.1-5.7,72.9-27.2,94.9-57.9h0Z"/>
              <path class="cls-3" d="M116.9,218.8s-1.4-12-2.2-14.2c-.8-2.2-7.2-10.4-7.2-10.4-5.5,1.4-13.8,1.9-13.8,1.9,0,0-9.7-15.1-11.4-18.3-1.8-3.3-11.1-11.5-15.5-16.2-4.3-4.7-6.8,1.1-5.7,5.7,1.1,4.7,7.6,13.3,8.3,16.2.7,2.9-4.7,6.1-4.7,6.1,0,0-11.5-4.3-17.7-7.2s-11.8-9-15.9-12.9c-3.9-3.9-10.9-9-12.9-9s-2.9,2.9-1.1,5.4c1.8,2.6,10.9,15.5,14.4,19.1,3.6,3.6,9,11.1,11.8,16.2,2.9,5,8.3,6.5,20.9,10.9,12.6,4.3,14,9.8,14.8,13.3.2,1,.2,2.9.2,5.1s0,1.3-.2,2.7c12.5,3.9,25.8,6.2,39.7,6.5l-.9-11.2-.9-9.7h0Z"/>
            </g>
            <g>
              <path class="cls-6" d="M176.8,151.9c-1.9-.8-33.2-7-33.2-7,0,0,5.5,9.3,6.1,12.7.6,3.5,1.6,7.5,4,11.4,2.5,3.9,9.7,16.4,10.2,18.5.5,2.2-.8,14.7-.8,14.7l15-10.7s-1.4-4-2.4-7.7c-.9-3.6-.3-7.8,0-12.3,0-4.5,1.4-10,3-13.9,1.6-3.8,0-5-1.8-5.8h0Z"/>
              <path class="cls-6" d="M214.8,40.5c-32.8-10.2-50.1,7.5-57.6,14.7-7.5,7.2-6.7,9.1-6.1,12.1.6,3.2-.2,6.4-2.2,9.7-2.1,3.3-11.2,8.1-14,9.4-2.8,1.3-5.6,3.7-5.3,6.4s5.9,5.9,5.9,5.9c0,0-1.6,4-3.2,7.3-1.6,3.3-.3,3,.5,3.7s8.5,4.5,8.5,4.5c0,0-4,0-6.9-.2-2.9-.2-3,.3-3.3,1.7-.4,1.6.8,4.2,1.9,5.9,1.1,1.7-.2,3.9-1.4,5.6-1.3,1.7-5.1,4.8-2.9,10.8,2.4,5.9,15.4,4.6,15.4,4.6-9.1-.3-6.4-5.1-1.9-9.8,2.1-2.2,9.9-7.8,13.1-10.5,3.3-2.7,6.4-3,1.4-7.8-8.7-8.4-3.5-10.3-.2-12.8,3.3-2.5,12.3-5.7,13.6-8.9,1.3-3.2-3.7-7.7-3.7-7.7,0,0,4.7.3,7.3.2,2.7-.2,2.2-2.1-1.4-5.8-3.6-3.7-4.3-6.4-4.6-9.9-.3-3.5-8.1-3.9-8.4-4.3-.3-.5.6-2,1.3-2.8,3.4-3.8,20.8-28.8,55.5-16.4,39.5,14.1,39.9,45.6,39.9,45.6,1.9-15-8.5-41.2-41.2-51.4h0Z"/>
            </g>
            <g>
              <path class="cls-5" d="M203.9,123.5c-2.7-.4-4.8.5-6.3,2.2-1.5,1.8-.2,4.3.9,4.5.7,0,1.8-.8,1.2-1.5s-.4-2.4,1.3-3.2c1.8-.8,3.4,0,5.1,0,2.6,0,5.9-1.4,7.7-4.1,1.3-2.1,3.1-5.2.9-8.9-2.8-4.8-8.6-2.5-8.9-1.8-.9,2.2-.3,1.7,1.1,1.1,1.3-.6,3.6-.7,5.5,1.9,1.4,1.9.4,4.5-.7,6.2-1.1,1.7-4.4,4-7.8,3.6h0Z"/>
              <path class="cls-5" d="M162.4,81.8c-1.3-1.2-5.1-4.2-6.2-4.9-1.1-.7-1.5.5-2,1.5-.5,1-.7,3.7-.7,4.4s.8.6,3,1.1c1,.2,8.3.9,8.3.9-.2-.5-1.1-1.8-2.4-3h0Z"/>
              <path class="cls-5" d="M134.8,95.6c-1.7-.4-1.8-.3-1.6,0,0,.2,2.4,1.7,3.8,2.6,1.6.8,2.2,1,2.6.8.5-.2,1.4-.4,0-1.8-1.5-1.4-3.1-1.3-4.7-1.7h0Z"/>
            </g>
            <g>
              <path class="cls-5" d="M206.9,36.7c-30.3-6.9-52.9,19.2-55.2,22.2-3.9,4.8-2.2,5.5-1.6,9.5,0,0,.5,5.3-3.1,9-2.7,2.9-8.2,6-11.9,8.1-3.7,2.2-6.4,2.9-6.9,5-.5,2.2-1.1,3.3,4.3,6.9l2.3,2c-.7,1.9-.7,2.1-2.1,4.8-1.3,2.5-3.1,5-.7,6.1,2.3,1.1,7.1,3.6,7.1,3.6,0,0-5.5-.4-6.6-.4s-2.3.8-2.6,2.6c-.3,1.6-.5,2.5,1.3,4.5,1.8,2.2,1.6,4-.2,5.7-1.8,1.6-5.8,5.7-4.6,10.5,1.3,5.1,3.8,6.8,13.3,7.6.4,0,.8,0,1.2,0,.2.2,4.4,5.7,5.6,8.3,1.3,2.7,2,6.4,3.3,11,1.1,4.1,3.6,7.7,6.6,12.1.4.5.7,1.1,1.1,1.6,3.4,5.1,5.3,9.8,5.5,12.4.2,2.5-1.2,10.2-1.4,11.2l-1.8,1.8c-.6.6-2.1,2.1-2.8,3-7.7,9.6-12.9,20.3-16.2,28.5,0,0,0,.2-.2.6,0,.4-.3.9-.6,1.5-.2.6-.5,1.3-.8,2.2,39.9-4.9,74.6-25.8,98.2-55.8.7-1,1.4-1.9,2.1-2.9-.7-1-1.3-1.9-2.1-3.1q-.6-.8,0,0c-.2-.3-.5-.7-.7-1-5.4-7.7-12.9-18.2-12.9-18.2-2-3.1-4-5.7-3.7-7.1.4-1.4,3.8-12.9,5.1-14.2,1.3-1.3,29.5-18.4,32.3-42.4,2.8-24-11-48.3-50.6-57.3h0ZM253.6,94.4c-1.1,9.2-6.3,21.8-28.9,38.2l-1.7,1.3c-1.4,2.8-6,16.7-6,16.7-.5,1.2-.4,3.1,2.4,6.9.6.8,7.5,10.7,13,18.5,1,1.4,1.9,2.8,2.8,4-21.7,27.7-52.9,47.8-90.1,54.8.3-.9.7-1.8.7-1.9,4.1-10.6,9-19.3,14.8-25.7,14.2-16,32.8-21.3,44.1-23,3-.5,5.5-.7,7.4-.8.2,0,.4,0,.6,0,.9,0,1.9,0,2-.2,0-.5-1.1-.9-1.3-.9-1.1-.3-2.9-.4-5.3-.2-15.3,1.6-34.4,9.1-43.5,16.9.4-2.7.9-6,.9-8.1s0-1.9,0-2.1c-.2-3.1-2.7-7.7-5.8-12.7-.2-.4-.5-.7-.7-1.1,0,0-6.4-9-7.1-13.3-.7-4.3-.2-5-1.2-7.2-1.1-2.4-2.7-5.9-5.1-9.7,4.5.2,16.5.5,18.2.7,2.2.2,10,1.1,14.1,1.1s9.3-1.2,12.8-9.8c0,0,.9,1.4,3.4,2.6,2.5,1.2,7.5-1.4,9.5-2.5,3.6-1.9,13.6-8,16.4-13.2,2.8-5.2,3.4-14.1-1.7-19.2-4.2-4.2-11.6-.2-12.2.2-.8.7-.9.7-.4,1.9.3.7.6.5,1.6,0,1.2-.6,7.3-2.8,9.7.3,2.5,3.3,3.5,8.2.9,14.7-2.7,6.5-10,10.3-11.9,11.4-4.5,2.9-8.8,4.5-10.3,3.7-1.7-.9-3.7-1.7-3.8-6.6,0-.6-.9-.5-1.4.4-.6.9-2.6,5.7-4.7,9.1-1.5,2.2-3.6,4-10.1,3.7-7.3-.2-12.3-.7-15.6-.9-3.1-.2-22.1,0-26.8-1.6-2.1-1.1-3.2-2.4-3.6-4.1-1-4.6.8-6.7,3.2-8.8,1.5-1.4,2.6-3,2.6-4.6s-3.1-3.6-3.4-4.5c-.3-1,.2-2.4.6-3,.7-1.1,10.6.5,10.8-.5.3-1-9.6-5.4-10-6.4-.4-1,.3-2.6.8-3.5s2.6-6.6,2.6-6.6c0,0-3.5-2.6-3.6-2.7-2.7-1.8-2.4-2.8-2.4-3.4,0-.9.2-1.9.5-2.3,1.5-2,13.4-7,16.4-10.1,2.9-3.1,4.9-5.1,5-7.9,1.5,0,5.9,3.5,7.2,4.3.9.6,2.9,2.1,3.1,2.3.2.2.8.5.8.5-1.4-2.3-7.9-8.1-9.7-9.9-1.3-1.3-2.1-3.5-1.9-5,0-.3,0-.6,0-.8.3-.7.7-1.4,1.4-2.3.9-1.2,22.9-27.9,52.2-21.2,17.9,4.1,31,11.5,39.3,22,6,7.6,9.1,16.8,9.1,26.6-.3,1.4-.4,3.3-.6,5.2h0Z"/>
              <path class="cls-5" d="M78,231.4c0,.7,0,1.5,0,2.4,13.5,4,27.8,6.1,42.6,6.1,0-.7,0-1.4-.2-2.1,0-.4,0-.7,0-1.1-1.1-10.7-2.5-23.4-3.6-30.1-1.1-6.3-4.3-8.6-7.7-12.6l-2.9.6s6,6.8,6.8,8.8c.6,1.4,2.4,15.5,3.7,33.3-4.1,0-8.5-.3-12.5-.7,0-1.8-.2-3.1-.2-3.2-.7-9.4-1.4-20.1-1.6-22.4-.5-4.1-2.5-8.6-11.3-20.6-6.1-8.4-6.9-11.7-8.1-14-.5-1-1.2-1.8-2.4-2.7-3.9-3-11-10.6-13.4-12.7-2.5-2.2-4.9-3.5-6.9,1-2,4.4.9,10.9,3.9,15.3,3.1,4.4,4.2,6,3.7,8.8-.3,1.9-3.2,3.4-3.2,3.4,0,0-10.7-4.7-14.8-6.5-4.1-1.7-3.6-1-5.6-3-2-2-9.3-8-10.8-9-1.5-1-2.6-3.7-6.4-6.7-3.9-3-6.9-5.6-10.4-3.6-3.5,2-1.9,3.7.9,8.6,2.9,5,5.7,8.3,9.4,12.9,3.6,4.6,8.5,9.5,10.7,12.4,2.2,3,6,11.9,11.9,13.9,5.9,2,21.9,7.9,25.1,11.2.2.3.5.5.7.8,1.9,1.9,3,3.3,2.7,11,0,.2,0,.3,0,.4h0ZM77.2,218.2l-.7-.7c-.3-.4-.7-.7-1.2-1.1-6.1-4.6-24.1-10.7-25-10.9-3.6-1.2-6.6-6.3-8.6-9.8-.8-1.3-1.4-2.4-2.1-3.3-1.2-1.5-2.8-3.4-4.7-5.5-2-2.2-4.1-4.6-6-7l-1.7-2.1c-2.9-3.6-5.1-6.5-7.5-10.6l-.9-1.5c-.7-1.2-1.5-2.6-1.7-3.2,0,0,.3-.2.6-.4,1.4-.8,2.7,0,6.4,2.7l1.1.8c2.1,1.6,3.3,3.1,4.2,4.3.8,1,1.5,1.9,2.4,2.5,1.3.9,8.4,6.7,10.4,8.7,1.7,1.6,2.2,1.9,3.9,2.6l2.6,1s14.4,5.6,14.5,5.9c-1.3,1.3-1.6,3-.3,2.1,2.2-1.6,8.8-4.9,7.7-8.5-1.2-3.6-2.6-5.9-4.7-9-2.1-3-4.3-7.3-4.3-10.5s.2-1.8.5-2.6c1.5-2.4,2.8-1.2,3.8,0,1.2,1.3,2.2,2.8,3.6,4.2,2.6,2.8,6.1,6.3,8.8,8.4.6.4.9.8,1.2,1.1.5.6.7,1.4,1.4,2.8,1.3,2.4,2.1,5.1,6.7,11.3,10.1,13.6,11.5,18.1,11.7,20,.2,1.9.8,12.6,1.3,23.1,0,0,0,1.1,0,2.6-5.2-.6-10.4-1.5-15.4-2.7-1.6-.4-3.3-.9-4.8-1.4,0-.9,0-1.6,0-2.2,0-6.5-1.1-9.1-3.4-11.3h0Z"/>
            </g>
          </g>
        </g>
        <g>
          <path class="cls-1" d="M1042.8,110.2l-5.9-15h-18.9l-5.8,15h-5.5l18.6-47.4h4.6l18.5,47.4h-5.6ZM1035.2,90.2l-5.5-14.6c-.7-1.9-1.5-4.1-2.2-6.8-.5,2.1-1.2,4.3-2.1,6.8l-5.5,14.6h15.3Z"/>
          <path class="cls-1" d="M1083.1,110.2l-6.5-20.8c-.4-1.3-1.2-4.1-2.3-8.7h-.3c-.9,3.7-1.6,6.7-2.3,8.7l-6.7,20.7h-6.2l-9.7-35.4h5.6c2.3,8.9,4,15.7,5.2,20.3,1.2,4.6,1.9,7.8,2.1,9.4h.3c.2-1.2.6-2.9,1.2-4.7.5-2,1-3.5,1.4-4.6l6.5-20.3h5.8l6.3,20.3c1.2,3.7,2.1,6.8,2.5,9.4h.3c0-.8.3-2,.7-3.6.4-1.6,2.7-10.4,6.7-26h5.5l-9.8,35.4h-6.4Z"/>
          <path class="cls-1" d="M1127.5,110.2l-1.1-5h-.3c-1.8,2.2-3.6,3.7-5.3,4.5s-3.9,1.2-6.6,1.2-6.3-.9-8.3-2.8c-2-1.8-3-4.3-3-7.7,0-7.2,5.7-10.9,17.2-11.2l6-.2v-2.2c0-2.8-.6-4.8-1.8-6.1-1.2-1.3-3.2-2-5.7-2s-6.3.9-10.1,2.8l-1.7-4.1c1.8-1,3.6-1.7,5.7-2.3s4.1-.8,6.2-.8c4.2,0,7.4,1,9.4,2.9,2.1,1.9,3.1,4.8,3.1,9v24.2h-3.7ZM1115.4,106.5c3.4,0,5.9-.9,7.9-2.8,1.9-1.9,2.9-4.4,2.9-7.7v-3.2l-5.3.2c-4.2.2-7.3.8-9.3,2-1.9,1.2-2.9,3-2.9,5.5s.6,3.5,1.8,4.4c1.2.9,2.9,1.5,4.9,1.5Z"/>
          <path class="cls-1" d="M1158.7,74.1c1.6,0,3,0,4.2.4l-.8,4.9c-1.5-.3-2.8-.5-3.8-.5-2.9,0-5.3,1.2-7.4,3.5-2.1,2.4-3.1,5.2-3.1,8.7v19h-5.3v-35.3h4.4l.6,6.6h.3c1.3-2.3,2.9-4,4.7-5.3,1.9-1.3,3.9-2,6.1-2Z"/>
          <path class="cls-1" d="M1193.6,105.5h-.3c-2.5,3.6-6.2,5.4-11.1,5.4s-8.2-1.6-10.9-4.7c-2.6-3.2-3.8-7.7-3.8-13.5s1.3-10.4,3.8-13.6c2.6-3.3,6.2-4.8,10.8-4.8s8.5,1.8,11,5.2h.4l-.2-2.6v-2.5c0,0,0-14.5,0-14.5h5.3v50.3h-4.3l-.6-4.7ZM1182.9,106.4c3.6,0,6.3-1,8-3s2.5-5.2,2.5-9.7v-1.1c0-5-.8-8.6-2.5-10.8-1.7-2.2-4.3-3.3-8-3.3s-5.5,1.2-7.2,3.6c-1.7,2.5-2.5,5.9-2.5,10.4s.8,7.9,2.5,10.3c1.5,2.3,3.9,3.5,7.2,3.5Z"/>
          <path class="cls-1" d="M1232.9,100.6c0,3.3-1.2,5.8-3.6,7.6-2.5,1.8-5.9,2.7-10.4,2.7s-8.4-.8-10.9-2.3v-4.9c1.7.9,3.6,1.6,5.5,2.1s3.8.8,5.6.8c2.8,0,4.9-.5,6.5-1.4,1.5-.9,2.3-2.3,2.3-4s-.6-2.6-1.8-3.6c-1.2-1-3.6-2.2-7-3.5-3.3-1.2-5.6-2.3-7-3.3-1.4-.9-2.5-2-3.1-3.2-.7-1.2-1-2.6-1-4.1,0-2.9,1.2-5.1,3.6-6.8,2.4-1.7,5.5-2.5,9.7-2.5s7.5.8,11.1,2.4l-1.9,4.3c-3.6-1.5-6.8-2.2-9.7-2.2s-4.4.4-5.7,1.2c-1.3.8-2,1.9-2,3.3s.2,1.8.7,2.5,1.3,1.3,2.4,1.9,3.2,1.5,6.2,2.7c4.2,1.6,7,3.1,8.5,4.6,1.2,1.4,2,3.4,2,5.7Z"/>
        </g>
        <g>
          <path class="cls-1" d="M1021.8,205.9c1,0,1.9,0,2.8-.2.9,0,1.6-.3,2.1-.4v4.1c-.6.3-1.5.5-2.6.7-1.1.2-2.2.3-3.1.3-6.8,0-10.3-3.6-10.3-10.9v-21.1h-5v-2.6l5-2.3,2.3-7.6h3.1v8.2h10.3v4.1h-10.3v20.8c0,2.2.5,3.7,1.5,4.9,1.1,1.2,2.5,1.8,4.2,1.8Z"/>
          <path class="cls-1" d="M1064.3,191.9c0,5.8-1.5,10.3-4.3,13.5-2.9,3.3-6.9,4.8-12,4.8s-6-.8-8.5-2.3c-2.5-1.5-4.3-3.6-5.7-6.4s-2-6-2-9.8c0-5.8,1.5-10.3,4.3-13.5s6.9-4.8,12-4.8,8.9,1.7,11.8,4.9c2.9,3.5,4.3,7.9,4.3,13.5ZM1037.4,191.9c0,4.5.9,8,2.8,10.4,1.8,2.4,4.4,3.6,8,3.6s6.2-1.2,8-3.6c1.8-2.4,2.8-5.8,2.8-10.4s-.9-7.9-2.8-10.3c-1.8-2.4-4.5-3.6-8.1-3.6s-6.1,1.2-8,3.5c-1.9,2.3-2.7,5.8-2.7,10.4Z"/>
          <path class="cls-1" d="M1115.1,204.9h-.3c-2.5,3.6-6.2,5.4-11.1,5.4s-8.2-1.6-10.9-4.7c-2.6-3.2-3.8-7.7-3.8-13.5s1.3-10.4,3.8-13.6c2.6-3.3,6.2-4.8,10.8-4.8s8.5,1.8,11,5.2h.4l-.2-2.6v-2.5c0,0,0-14.4,0-14.4h5.3v50.3h-4.3l-.6-4.8ZM1104.3,205.8c3.6,0,6.3-1,8-3,1.7-2,2.5-5.2,2.5-9.7v-1.1c0-5-.8-8.6-2.5-10.8s-4.3-3.3-8-3.3-5.5,1.2-7.2,3.6c-1.7,2.5-2.5,5.9-2.5,10.4s.8,7.9,2.5,10.3,4,3.5,7.2,3.5Z"/>
          <path class="cls-1" d="M1153.3,209.7l-1.1-5h-.3c-1.8,2.2-3.6,3.7-5.3,4.5-1.8.8-3.9,1.2-6.6,1.2s-6.3-.9-8.3-2.8c-2-1.8-3-4.3-3-7.7,0-7.2,5.7-10.9,17.2-11.2l6-.2v-2.2c0-2.8-.6-4.8-1.8-6.1-1.2-1.3-3.2-2-5.7-2s-6.3.9-10.1,2.8l-1.7-4.1c1.8-1,3.6-1.7,5.7-2.3s4.1-.8,6.2-.8c4.2,0,7.4,1,9.4,2.9,2.1,1.9,3.1,4.8,3.1,9v24.1h-3.7ZM1141.2,205.9c3.4,0,5.9-.9,7.9-2.8s2.9-4.4,2.9-7.7v-3.2l-5.3.2c-4.2.2-7.3.8-9.3,2-1.9,1.2-2.9,3-2.9,5.5s.6,3.5,1.8,4.4c1.2,1,2.8,1.5,4.9,1.5Z"/>
          <path class="cls-1" d="M1179.8,205.9c1,0,1.9,0,2.8-.2.9,0,1.6-.3,2.1-.4v4.1c-.6.3-1.5.5-2.6.7-1.1.2-2.2.3-3.1.3-6.8,0-10.3-3.6-10.3-10.9v-21.1h-5v-2.6l5-2.3,2.3-7.6h3.1v8.2h10.3v4.1h-10.3v20.8c0,2.2.5,3.7,1.5,4.9,1.1,1.2,2.5,1.8,4.2,1.8Z"/>
          <path class="cls-1" d="M1206.7,210.4c-5.2,0-9.4-1.6-12.4-4.7-3.1-3.2-4.5-7.6-4.5-13.3s1.4-10.3,4.2-13.6c2.8-3.4,6.6-5,11.3-5s8,1.5,10.6,4.3c2.6,3,3.8,6.8,3.8,11.5v3.4h-24.4c0,4.1,1.2,7.3,3.2,9.5,2,2.2,4.8,3.3,8.4,3.3s7.6-.8,11.3-2.4v4.7c-1.9.8-3.6,1.4-5.4,1.8-1.8.4-3.7.6-6.1.6ZM1205.2,178.1c-2.9,0-5.1.9-6.8,2.8-1.7,1.9-2.7,4.4-3,7.7h18.5c0-3.4-.8-6-2.3-7.8-1.6-1.8-3.7-2.7-6.5-2.7Z"/>
        </g>
      </g>
      <g>
        <path class="cls-4" d="M795.7,228.2h-141.6v-34.7l47.6-48.2c13.6-14.2,22.5-24,26.7-29.2,4.2-5.2,7.1-9.7,8.7-13.4,1.6-3.7,2.5-7.7,2.5-11.7s-1.6-9.1-4.9-12c-3.3-2.9-7.9-4.4-13.9-4.4s-12.3,1.8-18.6,5.3c-6.3,3.5-13.4,8.7-21.3,15.5l-29-33.9c10.1-9,18.5-15.4,25.4-19.3,6.8-3.9,14.3-6.8,22.4-8.9,8.1-2,17.1-3.1,27.2-3.1s23.9,2.2,33.8,6.7c9.9,4.4,17.6,10.8,23.1,19,5.5,8.2,8.2,17.5,8.2,27.7s-1,14.7-2.9,21.2c-1.9,6.5-4.9,12.9-8.9,19.1-4,6.3-9.3,12.9-15.9,19.8-6.6,6.9-20.8,20.1-42.4,39.5v1.3h73.8v43.5Z"/>
        <path class="cls-2" d="M949.2,75.4c0,12.1-3.7,22.5-11.1,31.2-7.4,8.7-18.1,15-32,18.9v.8c32.6,4.1,48.8,19.5,48.8,46.2s-7.2,32.4-21.6,42.8c-14.4,10.4-34.3,15.6-59.8,15.6s-20.2-.8-29.2-2.3c-8.9-1.5-18.6-4.3-29-8.3v-43.8c8.5,4.4,17.2,7.6,26.1,9.7,8.9,2.1,17,3.1,24.5,3.1,11.6,0,20-1.6,25.3-4.9,5.3-3.2,7.9-8.3,7.9-15.3s-1.4-9.5-4.1-12.3c-2.8-2.9-7.2-5.1-13.3-6.5-6.1-1.5-14.1-2.2-24-2.2h-12v-39.6h12.3c26.8,0,40.2-6.8,40.2-20.5s-2-9-5.9-11.5c-4-2.5-9.3-3.7-15.9-3.7-12.5,0-25.4,4.2-38.7,12.5l-21.9-35.2c10.3-7.1,20.9-12.2,31.7-15.2,10.8-3,23.2-4.5,37.2-4.5,20.2,0,36,4,47.5,12,11.5,8,17.2,19,17.2,33.1Z"/>
      </g>
    </g>
  </g>
</svg>