<svg width="57" height="56" viewBox="0 0 57 56" fill="none" xmlns="http://www.w3.org/2000/svg">
<g clip-path="url(#clip0_6862_9705)">
<path d="M28.75 56C44.214 56 56.75 43.464 56.75 28C56.75 12.536 44.214 0 28.75 0C13.286 0 0.75 12.536 0.75 28C0.75 43.464 13.286 56 28.75 56Z" fill="#E9F6F8"/>
<path d="M16.5 7C16.5 6.0335 17.2835 5.25 18.25 5.25H41C41.9665 5.25 42.75 6.0335 42.75 7V47.25C42.75 48.2165 41.9665 49 41 49H18.25C17.2835 49 16.5 48.2165 16.5 47.25V7Z" fill="#BDE4EA"/>
<path d="M42.0493 7C42.0493 6.4201 41.5799 5.95068 41 5.95068H18.25C17.6701 5.95068 17.2007 6.4201 17.2007 7V47.25L17.2212 47.4619C17.3192 47.9403 17.7427 48.2993 18.25 48.2993H41C41.5799 48.2993 42.0493 47.8299 42.0493 47.25V7ZM43.4507 47.25C43.4507 48.6031 42.3531 49.7007 41 49.7007H18.25C16.9817 49.7007 15.9388 48.7363 15.813 47.5012L15.7993 47.25V7C15.7993 5.6469 16.8969 4.54932 18.25 4.54932H41C42.3531 4.54932 43.4507 5.6469 43.4507 7V47.25Z" fill="#0C9AB0"/>
<path d="M18.25 7.875C18.25 7.39175 18.6418 7 19.125 7H40.125C40.6082 7 41 7.39175 41 7.875V46.375C41 46.8582 40.6082 47.25 40.125 47.25H19.125C18.6418 47.25 18.25 46.8582 18.25 46.375V7.875Z" fill="white"/>
<path fill-rule="evenodd" clip-rule="evenodd" d="M25.95 9.63404C25.95 9.24615 26.2645 8.9317 26.6524 8.9317H30.1641C30.552 8.9317 30.8664 9.24615 30.8664 9.63404C30.8664 10.0219 30.552 10.3364 30.1641 10.3364H26.6524C26.2645 10.3364 25.95 10.0219 25.95 9.63404Z" fill="#0C9AB0"/>
<path d="M33.3246 9.63404C33.3246 10.0219 33.0101 10.3364 32.6223 10.3364C32.2344 10.3364 31.9199 10.0219 31.9199 9.63404C31.9199 9.24615 32.2344 8.9317 32.6223 8.9317C33.0101 8.9317 33.3246 9.24615 33.3246 9.63404Z" fill="#0C9AB0"/>
<path d="M33.125 43.9243L33.2668 43.9397C33.5854 44.0053 33.8257 44.287 33.8257 44.625C33.8257 44.963 33.5854 45.2447 33.2668 45.3103L33.125 45.3257H26.125C25.7384 45.3257 25.4243 45.0116 25.4243 44.625C25.4243 44.2384 25.7384 43.9243 26.125 43.9243H33.125Z" fill="#0C9AB0"/>
<path d="M38.5493 40.62V38.4942H20.7007V40.62C20.7005 40.9956 20.3865 41.2993 20 41.2993C19.6135 41.2993 19.2995 40.9956 19.2993 40.62V27.5243C19.2993 27.1486 19.6134 26.8434 20 26.8434C20.3866 26.8434 20.7007 27.1486 20.7007 27.5243V30.1185H23.0454C25.4133 30.1188 27.5727 31.3867 28.6833 33.392H38.5493V31.7329C38.5497 31.3575 38.8636 31.0536 39.25 31.0536C39.6364 31.0536 39.9503 31.3575 39.9507 31.7329V40.62C39.9505 40.9956 39.6365 41.2993 39.25 41.2993C38.8635 41.2993 38.5495 40.9956 38.5493 40.62ZM20.7007 37.1339H38.5493V34.7523H20.7007V37.1339ZM20.7007 33.392H27.0222C26.0885 32.2034 24.6268 31.479 23.0454 31.4788H20.7007V33.392Z" fill="#0C9AB0"/>
<path d="M39.25 33.8628V37.7128H31.55H28.25H20V33.8628H28.25H31.55H39.25Z" fill="#E9F6F8"/>
<path d="M39.9507 33.1621V38.4121H19.2993V33.1621H39.9507ZM20.7007 37.0125H38.5493V34.5635H20.7007V37.0125Z" fill="#0C9AB0"/>
<path d="M35.75 20.6636C35.75 24.0463 33.0077 26.7886 29.625 26.7886C26.2423 26.7886 23.5 24.0463 23.5 20.6636C23.5 17.2809 26.2423 14.5386 29.625 14.5386C33.0077 14.5386 35.75 17.2809 35.75 20.6636Z" fill="white"/>
<path d="M35.0493 20.6636C35.0493 17.6675 32.6211 15.2393 29.625 15.2393C26.6289 15.2393 24.2007 17.6675 24.2007 20.6636C24.2007 23.6597 26.6289 26.0879 29.625 26.0879C32.6211 26.0879 35.0493 23.6597 35.0493 20.6636ZM36.4507 20.6636C36.4507 24.4329 33.3943 27.4893 29.625 27.4893C25.8557 27.4893 22.7993 24.4329 22.7993 20.6636C22.7993 16.8943 25.8557 13.8379 29.625 13.8379C33.3943 13.8379 36.4507 16.8943 36.4507 20.6636Z" fill="#91D2DC"/>
<path d="M31.8656 18.329C32.1373 18.1498 32.5067 18.1788 32.7458 18.4178C32.9849 18.6569 33.0138 19.0263 32.8346 19.298L32.7458 19.4091L29.2458 22.9091C29.0067 23.1482 28.6373 23.1771 28.3656 22.9979L28.2546 22.9091L26.5046 21.1591L26.4157 21.048C26.2365 20.7763 26.2655 20.4069 26.5046 20.1678C26.7436 19.9288 27.113 19.8998 27.3847 20.079L27.4958 20.1678L28.7502 21.4222L31.7546 18.4178L31.8656 18.329Z" fill="#EF4550"/>
</g>
<defs>
<clipPath id="clip0_6862_9705">
<rect width="56" height="56" fill="white" transform="translate(0.75)"/>
</clipPath>
</defs>
</svg>
