<svg viewBox="0 0 24 24" fill="none" xmlns="http://www.w3.org/2000/svg">
  <path
    fill-rule="evenodd"
    clip-rule="evenodd"
    d="M11.9998 3.5C7.3054 3.5 3.49982 7.30558 3.49982 12C3.49982 13.6603 3.97586 15.2095 4.79891 16.5184L5.48495 16.1043C5.52161 16.0821 5.55197 16.051 5.57312 16.0137C5.59427 15.9765 5.60551 15.9345 5.60575 15.8916L5.62476 12.5045C5.62609 12.2687 5.69411 12.038 5.82098 11.8392L7.68122 8.92378C7.77286 8.78016 7.89289 8.65679 8.03394 8.56125C8.17499 8.4657 8.33408 8.39999 8.50144 8.36817C8.66881 8.33634 8.84092 8.33906 9.00719 8.37615C9.17346 8.41325 9.3304 8.48395 9.46836 8.5839L11.3111 9.91897C11.3631 9.95666 11.4277 9.97288 11.4913 9.96426L14.4426 9.56457C14.503 9.5564 14.5582 9.52648 14.5981 9.48044L16.6753 7.08036C16.7173 7.03179 16.7391 6.96891 16.736 6.90475L16.6385 4.87613C15.3046 4.00582 13.7113 3.5 11.9998 3.5ZM11.9998 20.5C9.32571 20.5 6.94002 19.2652 5.38187 17.3346L6.00176 16.9604C6.18505 16.8497 6.33684 16.6939 6.4426 16.5077C6.54836 16.3215 6.60453 16.1114 6.60573 15.8973L6.62475 12.5102C6.62501 12.463 6.63862 12.4169 6.66399 12.3771L6.24249 12.1081L6.66399 12.3771L8.52423 9.46168C8.54256 9.43296 8.56656 9.40828 8.59477 9.38917C8.62299 9.37006 8.6548 9.35692 8.68828 9.35056C8.72175 9.34419 8.75617 9.34474 8.78942 9.35216C8.82268 9.35958 8.85407 9.37372 8.88166 9.39371L10.7244 10.7288C10.9845 10.9172 11.3072 10.9983 11.6255 10.9552L14.5768 10.5555C14.8785 10.5147 15.155 10.3651 15.3542 10.1349L17.4314 7.73478C17.6416 7.49194 17.7503 7.17752 17.7348 6.85674L17.678 5.67471C19.4103 7.23079 20.4998 9.48816 20.4998 12C20.4998 12.9241 20.3524 13.8137 20.0797 14.6466L18.2913 13.0109C18.1157 12.8503 17.8978 12.7432 17.6634 12.7021C17.429 12.661 17.1877 12.6877 16.9679 12.7791L14.1132 13.9656C13.9138 14.0485 13.7393 14.1816 13.6066 14.352C13.474 14.5224 13.3877 14.7242 13.3563 14.9378L13.1327 16.4562C13.0879 16.7606 13.1569 17.0708 13.3265 17.3275C13.4962 17.5842 13.7545 17.7693 14.0521 17.8474L16.0638 18.3753C16.1068 18.3866 16.146 18.4091 16.1773 18.4405L16.7712 19.0355C15.4109 19.9598 13.7684 20.5 11.9998 20.5ZM17.8524 19.4837C20.0728 17.7447 21.4998 15.039 21.4998 12C21.4998 6.75329 17.2465 2.5 11.9998 2.5C6.75311 2.5 2.49982 6.75329 2.49982 12C2.49982 17.2467 6.75311 21.5 11.9998 21.5C14.2005 21.5 16.2264 20.7517 17.837 19.4957C17.8422 19.4918 17.8473 19.4878 17.8524 19.4837ZM17.5702 18.4205L16.8851 17.7341C16.7283 17.5769 16.5324 17.4644 16.3177 17.408L14.3059 16.8801C14.2464 16.8645 14.1947 16.8275 14.1608 16.7761C14.1269 16.7248 14.1131 16.6627 14.1221 16.6019L14.3456 15.0835C14.3519 15.0408 14.3692 15.0004 14.3957 14.9663C14.4222 14.9323 14.4571 14.9056 14.497 14.8891L17.3517 13.7025C17.3957 13.6842 17.444 13.6789 17.4908 13.6871C17.5377 13.6953 17.5813 13.7167 17.6164 13.7489L19.6835 15.6394C19.1765 16.7079 18.4532 17.6538 17.5702 18.4205Z"
    fill="currentColor"
  />
</svg>