<svg width="56" height="56" viewBox="0 0 56 56" fill="none" xmlns="http://www.w3.org/2000/svg">
<g clip-path="url(#clip0_6862_9612)">
<circle cx="28" cy="28" r="28" fill="#E9F6F8"/>
<circle cx="28.0001" cy="28.0001" r="23" fill="white" stroke="#0C9AB0" stroke-width="0.8"/>
<path d="M15.7514 36.517L13.8786 35.2066C13.6862 35.072 13.4588 35 13.2259 35C12.7398 35 12.3054 35.3114 12.1381 35.7797L11.3213 38.0658C11.2741 38.1978 11.25 38.3374 11.25 38.478V39.6855C11.25 39.8261 11.2741 39.9656 11.3213 40.0977L12.3454 42.9639C12.3819 43.0662 12.3822 44.7353 12.3805 45.5466C12.3799 45.8218 12.492 46.0849 12.6955 46.27C13.1253 46.6608 13.5698 47.035 14.028 47.3915C14.4703 47.7356 15.1059 47.6186 15.4201 47.1546L15.819 46.5656C15.8838 46.4749 15.9358 46.3753 15.9735 46.2697L17.0265 43.3226C17.0642 43.2171 17.1162 43.1175 17.181 43.0268L18.0241 41.8469C18.1709 41.6415 18.25 41.3935 18.25 41.1388V39.06C18.25 38.6212 17.9033 38.2654 17.4757 38.2654C17.2291 38.2654 16.9972 38.1448 16.8513 37.9407L16.035 36.7982C15.9567 36.6887 15.8608 36.5936 15.7514 36.517Z" fill="#BDE4EA"/>
<path d="M44.0969 12.0001L42.7631 14.1677C42.5612 14.5117 42.2543 14.7817 41.8875 14.938L36.2307 17.3485C35.5816 17.6251 34.832 17.5107 34.295 17.053L33.8727 16.6931C33.5361 16.4062 33.1083 16.2486 32.6661 16.2486H30.7761C30.1161 16.2486 29.5055 16.5984 29.1714 17.1678L28.1465 18.9148C27.9789 19.2006 27.8905 19.5259 27.8905 19.8572V21.5941C27.8905 22.1395 27.6514 22.6575 27.2364 23.0112L24.5261 25.3211C24.351 25.4703 24.2501 25.6889 24.2501 25.9191C24.2501 26.4823 24.825 26.8626 25.343 26.6419L27.5411 25.7052C27.7717 25.607 28.0197 25.5563 28.2703 25.5563H32.2858C32.9458 25.5563 33.5564 25.9061 33.8905 26.4756L35.0124 28.3879C35.1177 28.5673 35.2522 28.7278 35.4105 28.8627L38.439 31.4437C38.6797 31.6488 38.9855 31.7615 39.3017 31.7615H39.398C40.0796 31.7615 40.6321 31.2087 40.6321 30.5268C40.6321 29.6416 41.5358 29.044 42.3498 29.3908L43.7077 29.9695C44.0745 30.1258 44.3815 30.3959 44.5833 30.7399L45.5535 32.3935C45.8875 32.963 46.4981 33.3127 47.1581 33.3127H47.2279C47.6701 33.3127 48.0979 33.1552 48.4345 32.8683L48.5266 32.7898C49.222 32.1972 50.2185 32.1076 50.9138 32.7002C51.1349 31.4153 51.2501 30.0944 51.2501 28.7468C51.2501 22.1694 48.5067 16.2298 44.0969 12.0001Z" fill="#BDE4EA"/>
<path d="M22.5557 7.77025H21.2571C20.9972 7.77025 20.7446 7.67599 20.5394 7.50239L20.0322 7C19.335 7.28181 18.6541 7.60013 17.9916 7.95283C17.5593 8.18293 17.3784 8.70195 17.5533 9.15934L18.4621 11.5365C18.4992 11.6622 18.5181 11.7935 18.5181 11.9256V19.5386C18.5181 19.6046 18.5276 19.6703 18.5462 19.7331L19.1551 21.794C19.2502 22.1159 19.6871 22.0414 19.6871 21.7033C19.6871 21.6465 19.7021 21.5908 19.7304 21.543L20.748 19.821C20.8195 19.7 20.9093 19.5931 21.0137 19.5049L22.7427 18.0421C23.0274 17.8011 23.1939 17.4307 23.1939 17.0383V13.9036C23.1939 13.7715 23.2129 13.6402 23.25 13.5145L24.194 10.3199C24.3009 9.95795 24.2534 9.56295 24.0644 9.24316L23.539 8.35421C23.324 7.99025 22.9535 7.77025 22.5557 7.77025Z" fill="#BDE4EA"/>
<path d="M15.0743 11.2084L15.9282 9.96592C16.1387 9.65975 16.24 9.32682 16.25 8.99994C9.65424 13.1299 5.25 20.5915 5.25 29.1104C5.25 30.0645 5.30525 31.0054 5.41264 31.9298L8.43067 33.8814C8.91257 34.193 9.55418 33.8538 9.55418 33.2874C9.55418 33.0972 9.47664 32.915 9.33886 32.7814L7.88641 31.3726C7.06977 30.5804 7.29144 29.2346 8.32077 28.7354L8.996 28.4079C9.35832 28.2322 9.65281 27.9459 9.83526 27.5919L10.9977 25.3369C11.1446 25.0518 11.3649 24.8093 11.6368 24.6336L14.9943 22.4624C15.6284 22.0524 15.7169 21.1733 15.1768 20.6494C14.8077 20.2915 14.7163 19.7406 14.9506 19.2862L15.8719 17.499C16.0979 17.0604 16.1351 16.551 15.9751 16.0853L14.8528 12.8197C14.6667 12.2781 14.7486 11.6823 15.0743 11.2084Z" fill="#BDE4EA"/>
<path d="M41.2992 27.9999C41.2992 21.8262 39.7586 16.2704 37.3036 12.2807C34.8414 8.27961 31.5321 5.95062 27.9999 5.95062C24.4676 5.95062 21.1584 8.27961 18.6962 12.2807C16.2411 16.2704 14.7006 21.8262 14.7006 27.9999C14.7006 34.1737 16.2411 39.7295 18.6962 43.7192C21.1584 47.7203 24.4676 50.0493 27.9999 50.0493C31.5321 50.0493 34.8414 47.7203 37.3036 43.7192C39.7586 39.7295 41.2992 34.1737 41.2992 27.9999ZM42.7006 27.9999C42.7006 34.3904 41.1065 40.2099 38.4948 44.454C35.89 48.6864 32.1994 51.4506 27.9999 51.4506C23.8004 51.4506 20.1098 48.6864 17.505 44.454C14.8932 40.2099 13.2992 34.3904 13.2992 27.9999C13.2992 21.6095 14.8932 15.79 17.505 11.5458C20.1098 7.31347 23.8004 4.54926 27.9999 4.54926C32.1994 4.54926 35.89 7.31347 38.4948 11.5458C41.1065 15.79 42.7006 21.6095 42.7006 27.9999Z" fill="#BDE4EA"/>
<path d="M27.9994 40.9499C21.6296 40.95 15.9189 42.3824 11.9025 44.643L11.2155 43.4228C15.4823 41.0212 21.4407 39.5503 27.9994 39.5502C34.5403 39.5502 40.4847 41.0125 44.7491 43.4023L44.0638 44.6242C40.049 42.3744 34.3515 40.9499 27.9994 40.9499Z" fill="#BDE4EA"/>
<path d="M27.9995 16.4506C21.4201 16.4506 15.4443 14.9693 11.1746 12.5541L11.5198 11.944L11.865 11.3356C15.8833 13.6084 21.6097 15.0492 27.9995 15.0493C34.3462 15.0493 40.0394 13.6283 44.0537 11.3818L44.3955 11.9919L44.7373 12.6037C40.4738 14.9896 34.5346 16.4506 27.9995 16.4506Z" fill="#BDE4EA"/>
<path d="M28.7006 5.24994V50.7499H27.2992V5.24994H28.7006Z" fill="#BDE4EA"/>
<path d="M4.81238 27.7368L51.1874 27.7368V29.1381L4.81238 29.1381V27.7368Z" fill="#BDE4EA"/>
<path d="M50.3 27.9995C50.2997 15.6838 40.3152 5.70068 27.9995 5.70068C15.6839 5.70095 5.70089 15.6839 5.70062 27.9995C5.70062 40.3153 15.6837 50.2998 27.9995 50.3C40.3154 50.3 50.3 40.3155 50.3 27.9995ZM51.6996 27.9995C51.6996 41.0887 41.0886 51.6997 27.9995 51.6997C14.9105 51.6994 4.29926 41.0885 4.29926 27.9995C4.29952 14.9108 14.9107 4.29958 27.9995 4.29932C41.0884 4.29932 51.6994 14.9106 51.6996 27.9995Z" fill="#0C9AB0"/>
<circle cx="44.625" cy="27.125" r="1.3125" fill="#EF4550"/>
<circle cx="10.0625" cy="22.3125" r="1.3125" fill="#EF4550"/>
<circle cx="13.5625" cy="38.0625" r="1.3125" fill="#EF4550"/>
<circle cx="46.8125" cy="32.8125" r="1.3125" fill="#EF4550"/>
<circle cx="43.3125" cy="18.8125" r="1.3125" fill="#EF4550"/>
<circle cx="32.8125" cy="18.8125" r="1.3125" fill="#EF4550"/>
<circle cx="31.0625" cy="22.3125" r="1.3125" fill="#EF4550"/>
<circle cx="36.3125" cy="24.0625" r="1.3125" fill="#EF4550"/>
<circle cx="13.5625" cy="17.0625" r="1.3125" fill="#EF4550"/>
</g>
<defs>
<clipPath id="clip0_6862_9612">
<rect width="56" height="56" fill="white"/>
</clipPath>
</defs>
</svg>
