<svg width="85" height="26" viewBox="0 0 85 26" fill="none" xmlns="http://www.w3.org/2000/svg">
<g clip-path="url(#clip0_1_434)">
<path d="M78.8249 0.246643H5.29875C5.10709 0.246643 4.91542 0.246643 4.72206 0.246643C4.30036 0.252818 3.87969 0.290495 3.46353 0.359366C3.05005 0.42988 2.64968 0.563497 2.27622 0.755604C1.90058 0.948985 1.55722 1.20023 1.25854 1.50026C0.959913 1.80044 0.710323 2.1463 0.51902 2.52501C0.325921 2.90641 0.192066 3.31537 0.122122 3.73764C0.0518261 4.15587 0.0143949 4.57904 0.0101769 5.00321C0 5.19962 0 5.3909 0 5.58561V20.5282C0 20.7246 0 20.9159 0.0101769 21.1123C0.0145421 21.5365 0.0519722 21.9596 0.122122 22.3779C0.19146 22.7942 0.323589 23.1974 0.513932 23.5734C0.89869 24.3384 1.51372 24.9613 2.27114 25.3531C2.64475 25.5455 3.045 25.6803 3.45844 25.7528C3.87464 25.8211 4.29531 25.8582 4.71698 25.8638C4.91034 25.8638 5.102 25.8638 5.29366 25.8638H79.5C79.6916 25.8638 79.8867 25.8638 80.0783 25.8638C80.4989 25.8585 80.9185 25.8214 81.3335 25.7528C81.7506 25.68 82.1548 25.5453 82.5327 25.3531C82.9095 25.1617 83.2532 24.9103 83.5503 24.6084C83.8505 24.3088 84.1013 23.9629 84.2933 23.5837C84.4818 23.2071 84.6127 22.8041 84.6817 22.3881C84.7518 21.9698 84.7909 21.5468 84.7987 21.1226C84.7987 20.9262 84.7987 20.7349 84.7987 20.5385C84.7987 20.3096 84.7987 20.0807 84.7987 19.8553V6.27561C84.7987 6.04333 84.7987 5.81447 84.7987 5.59244C84.7987 5.39774 84.7987 5.20303 84.7987 5.01004C84.7911 4.58583 84.752 4.1628 84.6817 3.74447C84.6121 3.32869 84.4811 2.92573 84.2933 2.54892C83.9089 1.78175 83.2948 1.15562 82.5377 0.75902C82.1597 0.568883 81.7555 0.437039 81.3386 0.367906C80.9236 0.29866 80.504 0.26098 80.0834 0.255183C79.8918 0.255183 79.6967 0.255183 79.505 0.255183L78.8249 0.246643Z" fill="#090909"/>
<path d="M5.30215 25.3121C5.11048 25.3121 4.92391 25.3121 4.73394 25.3121C4.34073 25.307 3.94843 25.2727 3.56021 25.2096C3.19885 25.1478 2.84851 25.0327 2.52047 24.8681C1.86875 24.5317 1.33791 23.9984 1.00243 23.3429C0.837322 23.0126 0.722944 22.659 0.663196 22.2942C0.598341 21.9024 0.563749 21.5061 0.559732 21.1089C0.559732 20.9757 0.549555 20.5316 0.549555 20.5316V5.58561C0.549555 5.58561 0.549555 5.14838 0.559732 5.02028C0.562665 4.62254 0.596693 4.22564 0.6615 3.83328C0.720475 3.46718 0.834882 3.11236 1.00073 2.7812C1.16559 2.45533 1.38151 2.15834 1.64018 1.90162C1.89852 1.64121 2.1955 1.42284 2.52047 1.25432C2.84778 1.08932 3.19761 0.974206 3.55851 0.912731C3.94773 0.848279 4.34122 0.813453 4.73564 0.808548H5.30215H79.5016H80.0749C80.466 0.811917 80.8562 0.84618 81.2419 0.911023C81.6063 0.971233 81.9597 1.08639 82.2901 1.25261C82.9433 1.5919 83.4739 2.12971 83.8064 2.78974C83.9711 3.11838 84.0855 3.4702 84.1457 3.83328C84.2108 4.22859 84.2471 4.62817 84.2542 5.02882C84.2542 5.20816 84.2542 5.40115 84.2542 5.59244C84.2542 5.82984 84.2542 6.05529 84.2542 6.27561V19.8365C84.2542 20.0671 84.2542 20.2908 84.2542 20.5197C84.2542 20.7485 84.2542 20.9142 84.2542 21.1089C84.2481 21.5016 84.2124 21.8933 84.1474 22.2805C84.0893 22.648 83.9749 23.0041 83.8081 23.336C83.4712 23.9891 82.9414 24.5208 82.2918 24.8578C81.9621 25.0242 81.6092 25.1394 81.2453 25.1994C80.8571 25.2628 80.4648 25.2971 80.0715 25.3019C79.8884 25.3019 79.695 25.3019 79.5084 25.3019H5.30215V25.3121Z" fill="black"/>
<path d="M31.4787 17.5411H28.4952L27.771 19.5462H26.4598L29.3772 12.0552H30.6154L33.5989 19.5462H32.2267L31.4787 17.5411ZM28.8751 16.5163H31.0971L30.3016 14.3712C30.1931 14.0757 30.0845 13.7478 29.9793 13.3891C29.8827 13.7068 29.7775 14.0296 29.6655 14.3609L28.8751 16.5163Z" fill="white"/>
<path d="M34.1264 15.3327C34.1264 14.9194 34.1128 14.464 34.0857 13.9664H35.273C35.3176 14.2006 35.3482 14.4373 35.3646 14.6752C35.5723 14.4245 35.8315 14.222 36.1243 14.0817C36.417 13.9413 36.7365 13.8665 37.0607 13.8622C37.4409 13.8561 37.8142 13.9644 38.133 14.1731C38.4517 14.3818 38.7014 14.6815 38.8502 15.0338C39.0588 15.5182 39.1579 16.0433 39.1402 16.571C39.1531 17.1463 39.0372 17.7172 38.801 18.2413C38.6034 18.6763 38.2808 19.0416 37.8749 19.29C37.4572 19.533 36.9816 19.6564 36.4993 19.6469C36.1198 19.6467 35.7431 19.582 35.3849 19.4556V21.7665L34.1162 21.8758L34.1264 15.3327ZM37.461 18.1798C37.7188 17.8382 37.8494 17.3259 37.8494 16.6427C37.8494 16.0199 37.742 15.5644 37.5272 15.2764C37.4301 15.1425 37.3022 15.0343 37.1545 14.9611C37.0068 14.888 36.8437 14.8519 36.6791 14.8562C36.4421 14.853 36.2083 14.9119 36.0006 15.027C35.7801 15.1528 35.5794 15.3111 35.4053 15.4967V18.4855C35.5459 18.5523 35.6939 18.6016 35.8463 18.6324C36.0102 18.6681 36.1773 18.6864 36.345 18.6871C36.5579 18.6999 36.7707 18.6605 36.9651 18.5721C37.1596 18.4837 37.3297 18.3491 37.461 18.1798V18.1798Z" fill="white"/>
<path d="M39.912 15.3327C39.912 14.9194 39.8984 14.464 39.8712 13.9664H41.0585C41.1046 14.2004 41.1357 14.4371 41.1518 14.6752C41.646 14.1332 42.2114 13.8622 42.848 13.8622C43.2281 13.8561 43.6015 13.9644 43.9202 14.1731C44.239 14.3818 44.4887 14.6815 44.6374 15.0338C44.8461 15.5182 44.9451 16.0433 44.9274 16.571C44.943 17.1457 44.83 17.7166 44.5967 18.2413C44.3987 18.6765 44.0754 19.0418 43.6689 19.29C43.2514 19.5332 42.7756 19.6567 42.2933 19.6469C41.9138 19.6467 41.5371 19.582 41.179 19.4556V21.7665L39.9103 21.8758L39.912 15.3327ZM43.2517 18.1798C43.5095 17.8303 43.6384 17.3179 43.6384 16.6427C43.6384 16.0199 43.5315 15.5644 43.3178 15.2764C43.2207 15.1425 43.0929 15.0343 42.9451 14.9611C42.7974 14.888 42.6343 14.8519 42.4697 14.8562C42.2327 14.8533 41.999 14.9122 41.7913 15.027C41.5707 15.1528 41.37 15.3111 41.1959 15.4967V18.4855C41.3367 18.5518 41.4847 18.6011 41.6369 18.6324C41.8008 18.6681 41.9679 18.6864 42.1356 18.6871C42.3485 18.6996 42.5612 18.66 42.7556 18.5717C42.95 18.4833 43.1202 18.3489 43.2517 18.1798V18.1798Z" fill="white"/>
<path d="M47.2597 19.1926C46.7176 18.8933 46.2774 18.4369 45.996 17.8826C45.6885 17.2563 45.5371 16.564 45.555 15.8656C45.533 15.1183 45.7086 14.3786 46.0639 13.7221C46.3846 13.1525 46.8664 12.6917 47.4479 12.3985C48.0591 12.0978 48.7319 11.9463 49.4121 11.9562C49.8245 11.9544 50.2357 12.0025 50.6367 12.0996C51.0117 12.1885 51.3758 12.3191 51.7222 12.489L51.3932 13.4711C50.7932 13.1663 50.1331 13.0006 49.4612 12.986C48.987 12.9781 48.519 13.0959 48.1043 13.3276C47.7108 13.5551 47.3946 13.8967 47.1969 14.308C46.9695 14.7957 46.8591 15.3304 46.8746 15.869C46.8662 16.3543 46.9502 16.8366 47.1223 17.29C47.2784 17.6913 47.5531 18.0347 47.9093 18.2738C48.315 18.5294 48.788 18.6556 49.2662 18.6358C49.514 18.6352 49.7613 18.6141 50.0057 18.5726C50.2422 18.5348 50.4745 18.4742 50.6994 18.3916V16.8681H48.9795V15.8758H51.9325V19.0338C51.5041 19.2348 51.0554 19.3889 50.5943 19.4932C50.137 19.5993 49.6693 19.6531 49.2 19.6538C48.5247 19.6701 47.8565 19.5113 47.2597 19.1926V19.1926Z" fill="white"/>
<path d="M56.4392 19.5462C56.3912 19.3023 56.3617 19.055 56.351 18.8066C56.1391 19.0549 55.8802 19.2581 55.5894 19.4044C55.2611 19.5718 54.8973 19.6563 54.5293 19.6504C54.2282 19.6542 53.9302 19.5894 53.6575 19.4608C53.3981 19.3383 53.1812 19.1401 53.035 18.892C52.873 18.6109 52.7925 18.2896 52.8026 17.9646C52.7931 17.7182 52.8408 17.4729 52.9417 17.2482C53.0427 17.0235 53.1943 16.8255 53.3844 16.67C53.7711 16.3467 54.4162 16.1855 55.3197 16.1867C55.6563 16.1865 55.9924 16.2105 56.3255 16.2584V16.1491C56.3255 15.6572 56.2215 15.31 56.0134 15.1073C55.7647 14.8918 55.4419 14.7832 55.1145 14.805C54.8212 14.8086 54.5295 14.8487 54.2461 14.9245C53.9652 14.9927 53.6915 15.0876 53.4285 15.208L53.2284 14.2789C53.516 14.1553 53.8148 14.0598 54.1205 13.9937C54.5051 13.9061 54.8983 13.8626 55.2926 13.8639C55.7103 13.8524 56.126 13.9274 56.5138 14.0842C56.8549 14.2361 57.1327 14.5031 57.2991 14.8391C57.5073 15.2891 57.6045 15.783 57.5824 16.2789V18.4992C57.5824 18.7269 57.596 19.0765 57.6231 19.5479L56.4392 19.5462ZM55.6793 18.5214C55.9238 18.407 56.1434 18.2451 56.3255 18.0449V17.0202C56.044 16.9866 55.7609 16.9678 55.4775 16.9638C54.9539 16.9638 54.5915 17.0492 54.3902 17.22C54.2921 17.3035 54.214 17.4084 54.162 17.5268C54.11 17.6451 54.0854 17.7738 54.09 17.9031C54.0808 18.0149 54.0956 18.1273 54.1334 18.2328C54.1711 18.3383 54.231 18.4344 54.3088 18.5146C54.4742 18.655 54.6865 18.7265 54.9025 18.7144C55.1726 18.7103 55.4383 18.6443 55.6793 18.5214V18.5214Z" fill="white"/>
<path d="M58.5627 18.2072V11.6146L59.8247 11.5121V17.98C59.8067 18.1596 59.8491 18.34 59.9451 18.4924C59.9936 18.5449 60.0533 18.5855 60.1197 18.6113C60.1861 18.637 60.2575 18.6472 60.3284 18.641C60.4435 18.6359 60.5574 18.6164 60.6677 18.5829L60.8169 19.4983C60.6749 19.5523 60.5277 19.5913 60.3776 19.6145C60.2157 19.6428 60.0518 19.6576 59.8874 19.6589C59.0043 19.6532 58.5627 19.1693 58.5627 18.2072Z" fill="white"/>
<path d="M61.7193 18.2072V11.6146L62.9829 11.5121V17.98C62.965 18.1596 63.0074 18.34 63.1033 18.4924C63.1518 18.5449 63.2115 18.5855 63.2779 18.6113C63.3444 18.637 63.4157 18.6472 63.4866 18.641C63.6017 18.6359 63.7157 18.6164 63.8259 18.5829L63.9734 19.4983C63.832 19.5524 63.6853 19.5913 63.5358 19.6145C63.3734 19.6428 63.2088 19.6577 63.044 19.6589C62.162 19.6532 61.7204 19.1693 61.7193 18.2072Z" fill="white"/>
<path d="M69.1636 16.9194H65.539C65.5966 18.0887 66.1496 18.6734 67.1978 18.6734C67.4668 18.672 67.7348 18.6399 67.9967 18.5778C68.2641 18.5151 68.5257 18.4294 68.7786 18.3216L69.0568 19.196C68.4037 19.5059 67.689 19.6613 66.9671 19.6503C66.45 19.6654 65.9376 19.5478 65.4779 19.3088C65.0797 19.0921 64.7601 18.7535 64.5654 18.3421C64.3501 17.8654 64.2457 17.3455 64.2601 16.822C64.246 16.2735 64.3568 15.729 64.5841 15.2302C64.7778 14.807 65.091 14.4506 65.4847 14.2055C65.8882 13.9662 66.3497 13.8444 66.8179 13.8537C67.2825 13.8371 67.7408 13.9667 68.129 14.2243C68.4791 14.469 68.7503 14.8116 68.9092 15.2097C69.0839 15.6435 69.1704 16.1081 69.1636 16.5761V16.9194ZM67.9272 16.1081C67.9296 15.7455 67.81 15.3927 67.5879 15.1073C67.4884 14.995 67.3655 14.9062 67.228 14.8472C67.0905 14.7881 66.9418 14.7603 66.7924 14.7657C66.6421 14.7626 66.4928 14.7914 66.3543 14.8502C66.2158 14.9091 66.0911 14.9967 65.9885 15.1073C65.7493 15.3879 65.6029 15.7365 65.5695 16.1047L67.9272 16.1081Z" fill="white"/>
<path d="M70.1237 15.3686C70.1237 15.0629 70.1084 14.5949 70.0813 13.9681H71.2686C71.2889 14.1235 71.3076 14.3097 71.3279 14.5232C71.3483 14.7367 71.3585 14.9143 71.3652 15.0492C71.493 14.8315 71.6382 14.6247 71.7994 14.4309C71.9395 14.2653 72.1085 14.127 72.2981 14.0227C72.4975 13.9144 72.7212 13.8597 72.9477 13.8639C73.1195 13.8597 73.291 13.881 73.4566 13.9271L73.2971 15.0338C73.0985 14.9759 72.89 14.9612 72.6853 14.9907C72.4806 15.0201 72.2844 15.0931 72.1098 15.2046C71.8291 15.4147 71.5844 15.6698 71.3856 15.9595V19.5462H70.1237V15.3686Z" fill="white"/>
<path d="M74.1622 21.8297C74.0075 21.8045 73.855 21.7673 73.7059 21.7186L73.9366 20.7878C74.0433 20.8167 74.1514 20.8401 74.2606 20.8578C74.3826 20.8797 74.5063 20.8911 74.6303 20.892C75.1957 20.892 75.6163 20.5282 75.8922 19.8006L75.9754 19.594L73.9315 13.9681H75.2884L76.3265 17.1124C76.4593 17.5168 76.5669 17.9292 76.6487 18.3472C76.7454 17.9441 76.8573 17.5411 76.988 17.138L78.0226 13.9681H79.2998L77.2644 19.6196C77.1108 20.0748 76.9017 20.5091 76.6419 20.9125C76.4438 21.2172 76.1733 21.4673 75.8549 21.6401C75.5137 21.8079 75.1371 21.8899 74.7575 21.8792C74.558 21.88 74.3588 21.8634 74.1622 21.8297V21.8297Z" fill="white"/>
<path d="M26.4598 4.92293H28.7157L28.653 5.47288H27.1179V6.53692H28.5648V7.04929H27.1179V8.22776H28.7344L28.6784 8.78625H26.4598V4.92293Z" fill="white"/>
<path d="M30.2745 6.81531L29.0872 4.92293H29.8403L30.6476 6.31318L31.4957 4.92293H32.2267L31.0394 6.7914L32.3234 8.78625H31.5601L30.6459 7.2662L29.7147 8.78625H28.9837L30.2745 6.81531Z" fill="white"/>
<path d="M32.8102 4.92293H33.8448C34.3299 4.92293 34.702 5.02256 34.9609 5.22181C35.0897 5.32386 35.1921 5.45573 35.2595 5.60619C35.3268 5.75665 35.357 5.92126 35.3476 6.08602C35.3548 6.32136 35.296 6.55398 35.178 6.75724C35.0629 6.94832 34.8949 7.10145 34.6946 7.19788C34.4721 7.30379 34.2283 7.35641 33.9822 7.35159C33.8114 7.34916 33.6411 7.33144 33.4734 7.29865V8.78625H32.8102V4.92293ZM34.4724 6.64793C34.5448 6.57796 34.6012 6.49301 34.6378 6.39895C34.6744 6.30489 34.6903 6.20395 34.6844 6.1031C34.6931 6.00645 34.6779 5.90915 34.6404 5.81979C34.6028 5.73043 34.544 5.65176 34.469 5.59073C34.2781 5.47366 34.056 5.41879 33.833 5.4336H33.4734V6.79993C33.5994 6.8228 33.727 6.83593 33.855 6.83922C34.0774 6.85602 34.2979 6.78771 34.4724 6.64793Z" fill="white"/>
<path d="M36.0023 4.92293H36.6638V8.2158H38.2514L38.1955 8.78625H36.0023V4.92293Z" fill="white"/>
<path d="M39.2589 8.59668C38.9809 8.43917 38.7564 8.20115 38.6144 7.91351C38.4601 7.5947 38.3839 7.24331 38.3922 6.88876C38.3841 6.51826 38.4656 6.15133 38.6297 5.8196C38.7801 5.52058 39.0165 5.27417 39.3081 5.11252C39.6346 4.94035 39.9999 4.85677 40.3682 4.86999C40.7164 4.86058 41.061 4.94364 41.3672 5.11081C41.6436 5.26888 41.8663 5.50689 42.0067 5.79398C42.158 6.10947 42.2329 6.45653 42.2255 6.80678C42.2347 7.18141 42.1526 7.5526 41.9863 7.88789C41.8345 8.18587 41.5984 8.43191 41.3079 8.59497C40.9872 8.76678 40.6279 8.85265 40.2648 8.84433C39.9136 8.85327 39.5664 8.76779 39.2589 8.59668V8.59668ZM40.9754 8.12359C41.1624 7.99882 41.3078 7.82029 41.3927 7.61121C41.4879 7.37187 41.5346 7.11579 41.5301 6.85802C41.5343 6.60497 41.493 6.35324 41.408 6.11507C41.3318 5.90878 41.1959 5.73027 41.0178 5.60269C40.8113 5.47544 40.5739 5.4081 40.3318 5.4081C40.0896 5.4081 39.8522 5.47544 39.6457 5.60269C39.4582 5.73369 39.3121 5.91632 39.225 6.12873C39.1285 6.35821 39.0806 6.60542 39.0842 6.8546C39.0801 7.11131 39.1251 7.36643 39.2165 7.60609C39.2978 7.82534 39.4464 8.0128 39.6407 8.14119C39.835 8.26958 40.0649 8.33222 40.297 8.32C40.5378 8.32596 40.7746 8.25741 40.9754 8.12359V8.12359Z" fill="white"/>
<path d="M42.9633 4.92294H44.1642C44.516 4.89786 44.8662 4.99096 45.1598 5.18767C45.2725 5.27674 45.3622 5.39188 45.4212 5.5233C45.4803 5.65471 45.507 5.79854 45.499 5.94257C45.503 6.12984 45.4611 6.31522 45.3769 6.48227C45.3033 6.62875 45.2006 6.7584 45.075 6.86314C44.9628 6.95439 44.8368 7.02703 44.7019 7.07834L45.8892 8.78626H45.1174L44.1184 7.24913H43.6316V8.78626H42.9633V4.92294ZM44.003 6.75042C44.1504 6.75365 44.2963 6.72145 44.4288 6.65648C44.5481 6.59879 44.6487 6.50817 44.7188 6.39517C44.7888 6.27455 44.8246 6.1369 44.8223 5.99722C44.8291 5.9166 44.816 5.83554 44.784 5.76131C44.752 5.68708 44.7022 5.62201 44.6391 5.57195C44.4801 5.4717 44.2937 5.42449 44.1065 5.43702H43.6265V6.75725L44.003 6.75042Z" fill="white"/>
<path d="M46.4065 4.92293H48.6674L48.603 5.47288H47.0765V6.53692H48.5097V7.04929H47.0629V8.22776H48.6793L48.6301 8.78625H46.4065V4.92293Z" fill="white"/>
<path d="M51.1269 4.92293H51.7883V8.78625H51.1269V4.92293Z" fill="white"/>
<path d="M53.5405 5.47971H52.3532L52.4108 4.92293H55.396L55.335 5.47971H54.2037V8.78625H53.5405V5.47971Z" fill="white"/>
<path d="M58.271 8.59667C57.9935 8.43905 57.7695 8.20101 57.6282 7.9135C57.4725 7.59512 57.3957 7.24352 57.4043 6.88874C57.3962 6.51824 57.4777 6.15131 57.6417 5.81958C57.7926 5.52088 58.0289 5.27457 58.3202 5.1125C58.6441 4.93949 59.0069 4.8536 59.3735 4.86315C59.7258 4.85359 60.0743 4.9391 60.3827 5.1108C60.6594 5.26836 60.8823 5.50651 61.0221 5.79397C61.174 6.10931 61.2496 6.45637 61.2426 6.80676C61.2521 7.18162 61.1693 7.553 61.0018 7.88788C60.8504 8.18622 60.6142 8.43239 60.3233 8.59496C60.0028 8.7672 59.6435 8.85309 59.2802 8.84431C58.9279 8.85387 58.5795 8.76836 58.271 8.59667V8.59667ZM59.9892 8.12357C60.1753 7.99824 60.32 7.81983 60.4048 7.61119C60.4999 7.37185 60.5466 7.11577 60.5421 6.858C60.5464 6.60495 60.505 6.35323 60.42 6.11506C60.3445 5.90888 60.2092 5.73035 60.0316 5.60268C59.8248 5.47527 59.5871 5.40786 59.3447 5.40786C59.1022 5.40786 58.8645 5.47527 58.6577 5.60268C58.4702 5.73367 58.3242 5.91631 58.2371 6.12872C58.1414 6.35844 58.0935 6.60548 58.0963 6.85459C58.0922 7.1113 58.1371 7.36642 58.2286 7.60607C58.3095 7.81675 58.4506 7.9986 58.634 8.1287C58.8348 8.26215 59.072 8.32904 59.3124 8.31998C59.5526 8.32494 59.7885 8.25646 59.9892 8.12357V8.12357Z" fill="white"/>
<path d="M61.9771 4.92293H62.737L64.6349 7.91692C64.618 7.63169 64.6112 7.37038 64.6112 7.12956V4.92293H65.2252V8.78625H64.4891L62.5623 5.74444C62.5809 6.08602 62.5911 6.39516 62.5911 6.6633V8.78625H61.9771V4.92293Z" fill="white"/>
<path fill-rule="evenodd" clip-rule="evenodd" d="M17.131 4.94344H10.0904C6.771 4.94344 5.55656 6.16631 5.55656 9.50871V16.6034C5.55656 19.9458 6.771 21.1687 10.0904 21.1687H17.131C20.4504 21.1687 21.6665 19.9458 21.6665 16.6034V9.50871C21.6699 6.16631 20.4555 4.94344 17.131 4.94344Z" fill="#C8102E"/>
<path d="M8.74702 13.0561H9.17445V15.179H8.74702V14.3165H7.78191V15.179H7.35448V13.0561H7.78191V13.91H8.74702V13.0561ZM11.1555 14.2704C11.1555 14.612 10.9859 14.7998 10.6772 14.7998C10.3685 14.7998 10.1955 14.612 10.1955 14.2516V13.0561H9.7681V14.2687C9.7681 14.8648 10.0971 15.2063 10.6704 15.2063C11.2437 15.2063 11.583 14.8647 11.583 14.2499V13.0561H11.1555V14.2704ZM16.0947 14.5146L15.6164 13.0561H15.2653L14.7904 14.5163L14.3239 13.0561H13.8694L14.6038 15.179H14.9583L15.4349 13.7853L15.9132 15.179H16.2711L17.0055 13.0561H16.5612L16.0947 14.5146ZM17.7705 14.2636H18.549V13.8793H17.7705V13.4455H18.9001V13.0561H17.3499V15.1739H18.9408V14.7913H17.7705V14.2636ZM19.4497 15.1739H19.872V13.0561H19.4497V15.1739ZM12.4276 14.7349L12.236 15.1756H11.8001L12.7211 13.0561H13.0976L14.022 15.1756H13.581L13.3995 14.7367L12.4276 14.7349ZM12.5871 14.3524H13.2299L12.9077 13.5941L12.5871 14.3524Z" fill="white"/>
<path d="M13.6132 10.3558C12.9022 10.3554 12.2204 10.0707 11.7176 9.56446C11.2148 9.05816 10.9321 8.37161 10.9316 7.65561H11.3099C11.3099 8.27074 11.5526 8.86068 11.9845 9.29564C12.4165 9.73061 13.0024 9.97497 13.6132 9.97497C14.2241 9.97497 14.81 9.73061 15.242 9.29564C15.6739 8.86068 15.9166 8.27074 15.9166 7.65561H16.2948C16.2944 8.37161 16.0117 9.05816 15.5089 9.56446C15.0061 10.0707 14.3243 10.3554 13.6132 10.3558V10.3558Z" fill="white"/>
</g>
<defs>
<clipPath id="clip0_1_434">
<rect width="84.8072" height="25.6188" fill="white" transform="translate(0 0.246643)"/>
</clipPath>
</defs>
</svg>
