<svg xmlns="http://www.w3.org/2000/svg" width="516" height="79" viewBox="0 0 516 79">
    <g fill="none" fill-rule="evenodd">
        <path fill="#003143" d="M195.766 63.957V37.205h21.996l-20.148-13.56H179.45c-.664 0-1.2.512-1.2 1.146V77.95s11.557-6.359 25.456-13.992h-7.941"/>
        <path fill="#23A5B9" d="M251.463 38.08v-.038c-.14.025-7.71 3.956-17.506 9.318v16.597h-30.25a39786.438 39786.438 0 0 0-25.456 13.99h72.01c.671 0 1.21-.52 1.202-1.16V38.08"/>
        <path fill="#EF4050" d="M250.26 23.642h-52.646l20.148 13.56h16.198V47.36c9.794-5.362 17.363-9.29 17.503-9.318v-13.25c0-.633-.536-1.15-1.202-1.15M212.651 18.805h8.275v3.175h3.747v-6.687H208.88v6.684h3.77v-3.172"/>
        <path fill="#003143" d="M342.812 22.5c-9.125 0-18.712.857-28.493 2.542l-.802.137 1.76 12.056.786-.046c9.271-.56 16.97-.84 22.886-.84 4.038 0 5.753.653 6.483 1.198.998.749 1.537 2.352 1.601 4.735v1.507h-18.56c-5.4 0-9.7 1.239-12.776 3.67-3.13 2.461-4.726 5.937-4.726 10.32v5.27c0 4.938 1.774 8.853 5.273 11.637 3.443 2.753 7.93 4.146 13.333 4.146 7.611 0 14.185-2.77 19.57-8.236l1.231 5.887c.133.626.712 1.083 1.383 1.083h11.887c.777 0 1.41-.604 1.41-1.35V42.39c0-7.237-1.843-12.426-5.48-15.423-3.595-2.961-9.237-4.466-16.766-4.466m4.221 32.297v5.342c0 .446-.239.89-.624 1.149-4.126 2.801-8.19 4.217-12.09 4.217-3.786 0-5.547-1.449-5.547-4.565v-2.002c0-2.804 1.376-4.083 4.445-4.14h13.816M466.82 52.856c2.767-2.568 4.169-6.438 4.169-11.503-.077-6.346-2.267-11.147-6.507-14.283-4.176-3.08-10.952-4.646-20.146-4.646-10.19 0-17.57 2.139-21.94 6.354-4.376 4.212-6.592 11.604-6.592 21.97 0 9.875 2.275 17.09 6.751 21.441 4.484 4.36 12.032 6.567 22.442 6.567 10.224 0 18.325-1.342 24.08-3.984l.56-.261-1.76-11.053-.804.078c-7.665.767-14.461 1.157-20.201 1.157-4.142 0-7.105-.604-8.82-1.796-1.527-1.053-2.565-3.129-3.104-6.171H453.6c6.014 0 10.463-1.307 13.222-3.87m-17.746-7.138H434.53c.276-4.088 1.07-6.836 2.376-8.17 1.37-1.407 4.051-2.12 7.98-2.12 3.327 0 5.603.424 6.768 1.261 1.094.787 1.649 2.287 1.649 4.464 0 1.57-.3 2.76-.879 3.527-.53.69-1.654 1.038-3.348 1.038M397.955 14.466c.9-.827 2.615-1.25 5.089-1.25h10.997l1.765-11.795-.804-.142C410.919.573 404.932.215 397.203.215c-12.42 0-18.717 5.664-18.717 16.83V23.6l-9.48 1.218v12.383h9.48v39.18c0 .743.632 1.344 1.412 1.344h15.311c.778 0 1.407-.601 1.407-1.345V37.202h15v-13.6h-15V19.15c0-2.286.454-3.867 1.339-4.684M511.96 22.665c-7.083 0-14.305 2.814-21.484 8.363l-1.088-5.78c-.125-.642-.707-1.106-1.392-1.106h-11.65c-.777 0-1.412.6-1.412 1.344v50.895c0 .744.635 1.347 1.413 1.347h15.2c.78 0 1.409-.603 1.409-1.347V43.074c0-.586.43-1.124 1.02-1.307 6.578-2.015 11.551-3.037 14.785-3.037h5.174l1.84-16.065h-3.815M46.36 6.333c-.141-.502-.62-.85-1.163-.85H21.483c-.544 0-1.02.348-1.16.853L.633 76.264c-.206.731.37 1.452 1.16 1.452h15.325a1.2 1.2 0 0 0 1.158-.845l4.487-15.438c.143-.498.62-.84 1.16-.84h18.93c.538 0 1.01.342 1.157.84l4.487 15.438c.143.497.618.845 1.157.845h15.322c.794 0 1.37-.723 1.163-1.452l-19.78-69.93zm-6.232 42.169H26.83c-.789 0-1.354-.741-1.155-1.467 4.243-15.446 6.82-25.172 7.742-29.179.228 1.162.608 2.743 1.141 4.745.515 1.939 2.754 10.08 6.725 24.429.2.726-.363 1.472-1.155 1.472zM87.429 5.486h-16.1c-.664 0-1.203.512-1.203 1.147V76.67c0 .635.54 1.15 1.203 1.15h16.1c.66 0 1.2-.515 1.2-1.15V6.633c0-.635-.54-1.147-1.2-1.147M173.103 23.644H103.47c-6.019 0-10.893 4.662-10.893 10.412V76.56c0 .637.536 1.155 1.202 1.155h15.43c.667 0 1.203-.518 1.203-1.155V38.407c0-.634.54-1.15 1.203-1.15h11.772c.664 0 1.203.516 1.203 1.15v38.154c0 .637.536 1.155 1.2 1.155h16.766c.663 0 1.202-.518 1.202-1.155v-38.28c0-.637.537-1.15 1.203-1.15h9.375c.666 0 1.202.513 1.202 1.15v38.28c0 .637.537 1.155 1.203 1.155h16.362c.664 0 1.203-.518 1.203-1.155V24.794c0-.632-.539-1.15-1.203-1.15M291.205 43.505H276.63c-.983 0-1.814-.317-2.462-.936-.65-.62-.98-1.411-.98-2.345 0-.949.325-1.436.98-2.07.654-.625 1.482-.94 2.462-.94h24.008c.656 0 1.187-.507 1.187-1.131V24.735c0-.626-.531-1.131-1.187-1.131H270.38c-4.75 0-8.615 1.39-11.493 4.14-2.873 2.739-4.33 6.436-4.33 10.986v3.481c0 4.547 1.457 8.244 4.33 10.985 2.87 2.743 6.735 4.134 11.493 4.134h18.016v3.286c0 .936-.332 1.725-.982 2.344-.659.635-1.466.942-2.456.942h-28.174c-.658 0-1.187.505-1.187 1.129v11.566c0 .624.529 1.129 1.187 1.129h34.421c4.755 0 8.62-1.388 11.496-4.134 2.87-2.745 4.327-6.44 4.327-10.984v-3.98c0-4.549-1.457-8.244-4.327-10.984-2.875-2.746-6.744-4.139-11.496-4.139"/>
    </g>
</svg>
