<svg width="57" height="56" viewBox="0 0 57 56" fill="none" xmlns="http://www.w3.org/2000/svg">
<g clip-path="url(#clip0_6862_9646)">
<path d="M28.25 56C43.714 56 56.25 43.464 56.25 28C56.25 12.536 43.714 0 28.25 0C12.786 0 0.25 12.536 0.25 28C0.25 43.464 12.786 56 28.25 56Z" fill="#E9F6F8"/>
<path d="M43.9699 42.2592C44.0433 42.1963 44.1538 42.2047 44.2167 42.2781L49.799 48.7872C50.4282 49.5208 50.3436 50.6256 49.6099 51.2548L48.2815 52.3941C47.5479 53.0233 46.4431 52.9386 45.8139 52.2049L40.2315 45.6959C40.1686 45.6225 40.1771 45.512 40.2505 45.4491L43.9699 42.2592Z" fill="#E9F6F8"/>
<path d="M49.1538 50.7229C49.5939 50.3454 49.6447 49.6835 49.2672 49.2433L44.027 43.1333L41.1056 45.6387L46.3458 51.7488C46.7233 52.189 47.3852 52.2397 47.8254 51.8622L49.1538 50.7229ZM48.7377 52.9259C47.7106 53.8068 46.1629 53.6882 45.282 52.6611L39.6992 46.1515C39.3853 45.7848 39.4276 45.2322 39.7938 44.9177L43.5143 41.7269C43.8809 41.4129 44.4336 41.4552 44.7481 41.8214L50.3309 48.331C51.2118 49.3581 51.0932 50.9058 50.0661 51.7867L48.7377 52.9259Z" fill="#0C9AB0"/>
<path d="M51 28C51 40.5645 40.8145 50.75 28.25 50.75C15.6855 50.75 5.5 40.5645 5.5 28C5.5 15.4355 15.6855 5.25 28.25 5.25C40.8145 5.25 51 15.4355 51 28Z" fill="#BDE4EA"/>
<path d="M50.2993 28C50.2993 15.8221 40.4279 5.95068 28.25 5.95068C16.0721 5.95068 6.20068 15.8221 6.20068 28C6.20068 40.1779 16.0721 50.0493 28.25 50.0493C40.4279 50.0493 50.2993 40.1779 50.2993 28ZM51.7007 28C51.7007 40.9511 41.2011 51.4507 28.25 51.4507C15.2989 51.4507 4.79932 40.9511 4.79932 28C4.79932 15.0489 15.2989 4.54932 28.25 4.54932C41.2011 4.54932 51.7007 15.0489 51.7007 28Z" fill="#0C9AB0"/>
<path d="M47.5 28C47.5 38.6315 38.8815 47.25 28.25 47.25C17.6185 47.25 9 38.6315 9 28C9 17.3685 17.6185 8.75 28.25 8.75C38.8815 8.75 47.5 17.3685 47.5 28Z" fill="white"/>
<path d="M8.29932 28C8.29932 23.9475 9.50849 20.1749 11.5857 17.0266C11.7986 16.7039 12.2337 16.6155 12.5564 16.8284C12.8787 17.0413 12.9672 17.4748 12.7546 17.7974C10.8238 20.7239 9.70068 24.23 9.70068 28C9.70068 38.2449 18.0051 46.5493 28.25 46.5493C36.555 46.5493 43.5877 41.091 45.9517 33.5645C46.0678 33.1963 46.4599 32.9909 46.8284 33.1064C47.1972 33.2223 47.4022 33.616 47.2864 33.9849C44.7444 42.0781 37.1839 47.9507 28.25 47.9507C17.2319 47.9507 8.29932 39.0181 8.29932 28ZM46.7993 28C46.7993 17.7551 38.4949 9.45068 28.25 9.45068C24.0736 9.45068 20.2212 10.8292 17.1211 13.1575L16.9998 13.231C16.7054 13.3709 16.3435 13.2898 16.1401 13.019C15.908 12.7099 15.9712 12.2703 16.2803 12.0381L16.9143 11.5818C20.1337 9.35499 24.0402 8.04932 28.25 8.04932C39.2681 8.04932 48.2007 16.9819 48.2007 28C48.2007 28.3866 47.8866 28.7007 47.5 28.7007C47.1134 28.7007 46.7993 28.3866 46.7993 28Z" fill="#91D2DC"/>
<path d="M38.75 28L28.25 42L17.75 28L23 21H25.625H28.25H30.875H33.5L38.75 28Z" fill="#BDE4EA"/>
<path d="M28.25 42L23 28H17.75L23 21V28L28.25 21L33.5 28V21L38.75 28H33.5L28.25 42Z" fill="white"/>
<path d="M33.5 20.2993L33.6624 20.3181C33.8198 20.3556 33.9615 20.4475 34.0606 20.5796L39.3106 27.5796C39.4972 27.8285 39.4972 28.1715 39.3106 28.4204L28.8106 42.4204C28.6784 42.5967 28.4703 42.7007 28.25 42.7007C28.0297 42.7007 27.8217 42.5967 27.6895 42.4204L17.1895 28.4204C17.0028 28.1715 17.0028 27.8285 17.1895 27.5796L22.4395 20.5796L22.5523 20.4617C22.6767 20.3582 22.8348 20.2993 23 20.2993H33.5ZM28.25 40.0039L32.4883 28.7007H24.0117L28.25 40.0039ZM25.8762 37.6677L22.5147 28.7007H19.1514L25.8762 37.6677ZM30.6221 37.6677L37.3486 28.7007H33.9854L30.6221 37.6677ZM34.2007 27.2993H37.3486L34.2007 23.1021V27.2993ZM24.4014 27.2993H32.0986L28.25 22.1672L24.4014 27.2993ZM19.1514 27.2993H22.2993V23.1021L19.1514 27.2993ZM23.7007 25.8979L26.8486 21.7007H23.7007V25.8979ZM32.7993 25.8979V21.7007H29.6514L32.7993 25.8979Z" fill="#0C9AB0"/>
<path d="M27.5493 17.5V14C27.5493 13.6134 27.8634 13.2993 28.25 13.2993C28.6366 13.2993 28.9507 13.6134 28.9507 14V17.5C28.9507 17.8866 28.6366 18.2007 28.25 18.2007C27.8634 18.2007 27.5493 17.8866 27.5493 17.5ZM24.4373 15.1245C24.74 14.9732 25.0993 15.0613 25.3003 15.3176L25.3755 15.4373L26.2505 17.1873L26.3018 17.3188C26.3863 17.6335 26.2405 17.9741 25.9378 18.1255C25.6351 18.2768 25.2757 18.1887 25.0747 17.9324L24.9995 17.8127L24.1245 16.0627L24.0733 15.9312C23.9887 15.6165 24.1345 15.2759 24.4373 15.1245ZM31.1997 15.3176C31.4007 15.0613 31.7601 14.9732 32.0628 15.1245C32.4085 15.2974 32.5484 15.717 32.3755 16.0627L31.5005 17.8127C31.3276 18.1585 30.9081 18.2984 30.5623 18.1255C30.2165 17.9526 30.0766 17.533 30.2495 17.1873L31.1245 15.4373L31.1997 15.3176Z" fill="#EF4550"/>
</g>
<defs>
<clipPath id="clip0_6862_9646">
<rect width="56" height="56" fill="white" transform="translate(0.25)"/>
</clipPath>
</defs>
</svg>
