<svg width="32" height="32" viewBox="0 0 32 32" fill="none" xmlns="http://www.w3.org/2000/svg">
<rect width="32" height="32" rx="3" fill="#141413"/>
<path d="M19.4341 9.67847H12.5677V22.0175H19.4341V9.67847Z" fill="#FF5F00"/>
<path d="M13.0022 15.8473C13.0011 14.6589 13.2704 13.4859 13.7897 12.4171C14.309 11.3482 15.0646 10.4114 15.9994 9.67775C14.8418 8.76782 13.4515 8.20195 11.9875 8.04482C10.5234 7.88768 9.04473 8.14562 7.72036 8.78915C6.39599 9.43269 5.27939 10.4358 4.4982 11.684C3.71701 12.9321 3.30273 14.3748 3.30273 15.8473C3.30273 17.3197 3.71701 18.7625 4.4982 20.0106C5.27939 21.2587 6.39599 22.2619 7.72036 22.9054C9.04473 23.549 10.5234 23.8069 11.9875 23.6498C13.4515 23.4926 14.8418 22.9268 15.9994 22.0168C15.0646 21.2831 14.309 20.3464 13.7897 19.2775C13.2704 18.2086 13.0011 17.0356 13.0022 15.8473Z" fill="#EB001B"/>
<path d="M28.6971 15.8473C28.6971 17.3197 28.2829 18.7624 27.5018 20.0106C26.7206 21.2587 25.6041 22.2619 24.2797 22.9054C22.9554 23.5489 21.4767 23.8069 20.0127 23.6498C18.5487 23.4926 17.1584 22.9268 16.0008 22.0168C16.9348 21.2824 17.6898 20.3455 18.209 19.2768C18.7282 18.2081 18.998 17.0354 18.998 15.8473C18.998 14.6591 18.7282 13.4865 18.209 12.4178C17.6898 11.3491 16.9348 10.4122 16.0008 9.67775C17.1584 8.76782 18.5487 8.20195 20.0127 8.04482C21.4767 7.88768 22.9554 8.14563 24.2797 8.78917C25.6041 9.43271 26.7206 10.4359 27.5018 11.684C28.2829 12.9321 28.6971 14.3749 28.6971 15.8473Z" fill="#F79E1B"/>
<path d="M27.9446 20.7116V20.4589H28.0465V20.4075H27.7871V20.4589H27.889V20.7116H27.9446ZM28.4483 20.7116V20.407H28.3688L28.2773 20.6165L28.1858 20.407H28.1062V20.7116H28.1624V20.4818L28.2482 20.6799H28.3064L28.3922 20.4813V20.7116H28.4483Z" fill="#F79E1B"/>
</svg>
