<svg viewBox="0 0 24 24" fill="none" xmlns="http://www.w3.org/2000/svg">
 <mask
        id="mask0_23738_106247"
        maskUnits="userSpaceOnUse"
        x="0"
        y="3"
        width="24"
        height="18"
      >
        <path d="M0 3H24V21H0V3Z" fill="white" />
      </mask>
      <g mask="url(#mask0_23738_106247)">
        <path
          fill-rule="evenodd"
          clip-rule="evenodd"
          d="M-0.123779 2.19019H26.2125V22.9277H-0.123779V2.19019Z"
          fill="#EF2D29"
        />
        <path
          fill-rule="evenodd"
          clip-rule="evenodd"
          d="M6.54736 14.8988H26.6361V22.6876H6.54736V14.8988Z"
          fill="#009025"
        />
        <path
          fill-rule="evenodd"
          clip-rule="evenodd"
          d="M6.54745 1.67261H27.7312V8.79761H6.5437L6.54745 1.67261Z"
          fill="white"
        />
        <path
          d="M5.24994 5.60962H4.38953C4.34308 5.60962 4.30542 5.64477 4.30542 5.68814V6.09669C4.30542 6.14006 4.34308 6.17521 4.38953 6.17521H5.24994C5.29639 6.17521 5.33404 6.14006 5.33404 6.09669V5.68814C5.33404 5.64477 5.29639 5.60962 5.24994 5.60962Z"
          fill="white"
          stroke="#EF2D28"
          stroke-width="0.262732"
        />
        <path
          d="M5.22841 5.63354H4.41192C4.36793 5.63354 4.33228 5.66602 4.33228 5.70607V6.08003C4.33228 6.12008 4.36793 6.15256 4.41192 6.15256H5.22841C5.2724 6.15256 5.30805 6.12008 5.30805 6.08003V5.70607C5.30805 5.66602 5.2724 5.63354 5.22841 5.63354Z"
          fill="white"
          stroke="#EF2D28"
          stroke-width="0.243965"
        />
        <path
          fill-rule="evenodd"
          clip-rule="evenodd"
          d="M4.78613 5.77417L4.8353 5.77612L4.83733 5.7987L4.87788 5.81934L4.90931 5.79325L4.94733 5.81389L4.91185 5.83647L4.92046 5.86762L4.96507 5.86568V5.90656L4.92959 5.90501L4.91134 5.93071L4.95189 5.95991L4.92046 5.98405L4.8865 5.95835L4.83733 5.96848L4.83986 6.00625L4.78613 6.01014L4.77903 5.97354L4.73442 5.95485L4.70958 5.98055L4.67156 5.96147L4.69387 5.93226L4.667 5.91357H4.62898L4.62695 5.86023L4.66497 5.86373L4.69184 5.83258L4.66041 5.80844L4.70096 5.78118L4.72986 5.80337L4.77903 5.79637L4.78613 5.77417Z"
          fill="white"
          stroke="#EF2D28"
          stroke-width="0.154021"
        />
        <path
          d="M4.79998 5.93285C4.83002 5.93285 4.85436 5.91214 4.85436 5.88659C4.85436 5.86104 4.83002 5.84033 4.79998 5.84033C4.76995 5.84033 4.74561 5.86104 4.74561 5.88659C4.74561 5.91214 4.76995 5.93285 4.79998 5.93285Z"
          fill="white"
          stroke="#EF2D28"
          stroke-width="0.165862"
        />
        <path
          fill-rule="evenodd"
          clip-rule="evenodd"
          d="M4.46393 5.65698L4.38429 5.72751L4.46393 5.65698ZM4.51677 5.65698L4.43713 5.72751L4.51677 5.65698ZM4.56888 5.65698L4.48998 5.72751L4.56888 5.65698ZM4.62172 5.65698L4.54283 5.72751L4.62172 5.65698ZM4.67457 5.65698L4.59567 5.72751L4.67457 5.65698ZM4.72741 5.65698L4.64852 5.72751L4.72741 5.65698ZM4.78026 5.65698L4.70136 5.72751L4.78026 5.65698ZM4.8331 5.65698L4.75421 5.72751L4.8331 5.65698ZM4.88595 5.65698L4.80631 5.72751L4.88595 5.65698ZM4.93879 5.65698L4.85841 5.72751L4.93879 5.65698ZM4.99015 5.65698L4.91125 5.72751L4.99015 5.65698ZM5.04299 5.65698L4.9641 5.72751L5.04299 5.65698ZM4.83236 5.65698L4.75421 5.72751L4.83236 5.65698ZM5.09658 5.65698L5.01769 5.72751L5.09658 5.65698ZM5.14943 5.65698L5.07053 5.72751L5.14943 5.65698ZM5.20227 5.65698L5.12338 5.72751L5.20227 5.65698ZM5.25512 5.65698L5.17622 5.72751L5.25512 5.65698ZM5.17622 5.65698L5.25512 5.72751L5.17622 5.65698ZM5.12338 5.65698L5.20227 5.72751L5.12338 5.65698ZM5.07053 5.65698L5.14943 5.72751L5.07053 5.65698ZM5.01769 5.65698L5.09658 5.72751L5.01769 5.65698ZM4.96484 5.65698L5.04374 5.72751L4.96484 5.65698ZM4.912 5.65698L4.99089 5.72751L4.912 5.65698ZM4.85915 5.65698L4.93879 5.72751L4.85915 5.65698ZM4.80631 5.65698L4.8852 5.72751L4.80631 5.65698ZM4.75272 5.65698L4.83236 5.72751L4.75272 5.65698ZM4.70062 5.65698L4.77951 5.72751L4.70062 5.65698ZM4.64777 5.65698L4.72667 5.72751L4.64777 5.65698ZM4.59493 5.65698L4.67382 5.72751L4.59493 5.65698ZM4.80631 5.65698L4.8852 5.72751L4.80631 5.65698ZM4.54283 5.65698L4.62098 5.72751L4.54283 5.65698ZM4.48924 5.65698L4.56888 5.72751L4.48924 5.65698ZM4.43639 5.65698L4.51603 5.72751L4.43639 5.65698ZM4.38354 5.65698L4.46393 5.72751L4.38354 5.65698ZM4.46393 6.05755L4.38503 6.12875L4.46393 6.05755ZM4.51603 6.05755L4.43639 6.12875L4.51603 6.05755ZM4.56962 6.05755L4.48998 6.12875L4.56962 6.05755ZM4.62172 6.05755L4.54283 6.12875L4.62172 6.05755ZM4.67457 6.05755L4.59567 6.12875L4.67457 6.05755ZM4.72741 6.05755L4.64852 6.12875L4.72741 6.05755ZM4.78026 6.05755L4.70211 6.12875L4.78026 6.05755ZM4.8331 6.05755L4.75421 6.12875L4.8331 6.05755ZM4.88595 6.05755L4.80631 6.12875L4.88595 6.05755ZM4.93805 6.05755L4.85841 6.12875L4.93805 6.05755ZM4.99238 6.05755L4.91274 6.12875L4.99238 6.05755ZM5.04448 6.05755L4.96559 6.12875L5.04448 6.05755ZM4.8331 6.05755L4.75421 6.12875L4.8331 6.05755ZM5.09658 6.05755L5.01769 6.12875L5.09658 6.05755ZM5.14943 6.05755L5.07053 6.12875L5.14943 6.05755ZM5.20227 6.05755L5.12338 6.12875L5.20227 6.05755ZM5.25512 6.05755L5.17622 6.12875L5.25512 6.05755ZM5.17622 6.05755L5.25512 6.12875L5.17622 6.05755ZM5.12338 6.05755L5.20227 6.12875L5.12338 6.05755ZM5.07053 6.05755L5.14943 6.12875L5.07053 6.05755ZM5.01769 6.05755L5.09658 6.12875L5.01769 6.05755ZM4.96484 6.05755L5.04374 6.12875L4.96484 6.05755ZM4.912 6.05755L4.99164 6.12875L4.912 6.05755ZM4.85841 6.05755L4.93805 6.12875L4.85841 6.05755ZM4.80631 6.05755L4.8852 6.12875L4.80631 6.05755ZM4.75421 6.05755L4.8331 6.12875L4.75421 6.05755ZM4.70136 6.05755L4.78026 6.12875L4.70136 6.05755ZM4.64852 6.05755L4.72741 6.12875L4.64852 6.05755ZM4.59567 6.05755L4.67457 6.12875L4.59567 6.05755ZM4.80705 6.05755L4.88595 6.12875L4.80705 6.05755ZM4.54357 6.05755L4.62172 6.12875L4.54357 6.05755ZM4.48998 6.05755L4.56962 6.12875L4.48998 6.05755ZM4.43713 6.05755L4.51677 6.12875L4.43713 6.05755ZM4.38503 6.05755L4.46393 6.12875L4.38503 6.05755Z"
          fill="white"
        />
        <path
          d="M4.46393 5.65698L4.38429 5.72751M4.51677 5.65698L4.43713 5.72751M4.56888 5.65698L4.48998 5.72751M4.62172 5.65698L4.54283 5.72751M4.67457 5.65698L4.59567 5.72751M4.72741 5.65698L4.64852 5.72751M4.78026 5.65698L4.70136 5.72751M4.8331 5.65698L4.75421 5.72751L4.83236 5.65698M4.88595 5.65698L4.80631 5.72751M4.93879 5.65698L4.85841 5.72751M4.99015 5.65698L4.91125 5.72751M5.04299 5.65698L4.9641 5.72751M5.09658 5.65698L5.01769 5.72751M5.14943 5.65698L5.07053 5.72751M5.20227 5.65698L5.12338 5.72751M5.25512 5.65698L5.17622 5.72751M5.17622 5.65698L5.25512 5.72751M5.12338 5.65698L5.20227 5.72751M5.07053 5.65698L5.14943 5.72751M5.01769 5.65698L5.09658 5.72751M4.96484 5.65698L5.04374 5.72751M4.912 5.65698L4.99089 5.72751M4.85915 5.65698L4.93879 5.72751M4.80631 5.65698L4.8852 5.72751M4.75272 5.65698L4.83236 5.72751M4.70062 5.65698L4.77951 5.72751M4.64777 5.65698L4.72667 5.72751M4.59493 5.65698L4.67382 5.72751M4.54283 5.65698L4.62098 5.72751M4.48924 5.65698L4.56888 5.72751M4.43639 5.65698L4.51603 5.72751M4.38354 5.65698L4.46393 5.72751M4.46393 6.05755L4.38503 6.12875M4.51603 6.05755L4.43639 6.12875M4.56962 6.05755L4.48998 6.12875M4.62172 6.05755L4.54283 6.12875M4.67457 6.05755L4.59567 6.12875M4.72741 6.05755L4.64852 6.12875M4.78026 6.05755L4.70211 6.12875M4.8331 6.05755L4.75421 6.12875M4.88595 6.05755L4.80631 6.12875M4.93805 6.05755L4.85841 6.12875M4.99238 6.05755L4.91274 6.12875M5.04448 6.05755L4.96559 6.12875M5.09658 6.05755L5.01769 6.12875M5.14943 6.05755L5.07053 6.12875M5.20227 6.05755L5.12338 6.12875M5.25512 6.05755L5.17622 6.12875M5.17622 6.05755L5.25512 6.12875M5.12338 6.05755L5.20227 6.12875M5.07053 6.05755L5.14943 6.12875M5.01769 6.05755L5.09658 6.12875M4.96484 6.05755L5.04374 6.12875M4.912 6.05755L4.99164 6.12875M4.85841 6.05755L4.93805 6.12875M4.80631 6.05755L4.8852 6.12875M4.75421 6.05755L4.8331 6.12875M4.70136 6.05755L4.78026 6.12875M4.64852 6.05755L4.72741 6.12875M4.59567 6.05755L4.67457 6.12875M4.80705 6.05755L4.88595 6.12875M4.54357 6.05755L4.62172 6.12875M4.48998 6.05755L4.56962 6.12875M4.43713 6.05755L4.51677 6.12875M4.38503 6.05755L4.46393 6.12875"
          stroke="#EF2D28"
          stroke-width="0.243965"
        />
        <path
          d="M1.79242 5.58716H0.932006C0.885556 5.58716 0.8479 5.62231 0.8479 5.66568V6.07423C0.8479 6.11759 0.885556 6.15275 0.932006 6.15275H1.79242C1.83887 6.15275 1.87652 6.11759 1.87652 6.07423V5.66568C1.87652 5.62231 1.83887 5.58716 1.79242 5.58716Z"
          fill="white"
          stroke="#EF2D28"
          stroke-width="0.262732"
        />
        <path
          d="M1.77089 5.61108H0.954396C0.910412 5.61108 0.874756 5.64356 0.874756 5.68361V6.05757C0.874756 6.09762 0.910412 6.1301 0.954396 6.1301H1.77089C1.81488 6.1301 1.85053 6.09762 1.85053 6.05757V5.68361C1.85053 5.64356 1.81488 5.61108 1.77089 5.61108Z"
          fill="white"
          stroke="#EF2D28"
          stroke-width="0.243965"
        />
        <path
          fill-rule="evenodd"
          clip-rule="evenodd"
          d="M1.32861 5.75171L1.37778 5.75366L1.37981 5.77624L1.42036 5.79688L1.45179 5.77079L1.48981 5.79143L1.45433 5.81401L1.46294 5.84516L1.50755 5.84322V5.8841L1.47207 5.88254L1.45382 5.90824L1.49437 5.93745L1.46294 5.96159L1.42898 5.93589L1.37981 5.94602L1.38234 5.98379L1.32861 5.98768L1.32151 5.95108L1.2769 5.93239L1.25206 5.95809L1.21404 5.93901L1.23635 5.9098L1.20948 5.89111H1.17146L1.16943 5.83776L1.20745 5.84127L1.23432 5.81012L1.20289 5.78598L1.24345 5.75872L1.27234 5.78091L1.32151 5.7739L1.32861 5.75171Z"
          fill="white"
          stroke="#EF2D28"
          stroke-width="0.154021"
        />
        <path
          d="M1.34246 5.91039C1.3725 5.91039 1.39684 5.88968 1.39684 5.86413C1.39684 5.83858 1.3725 5.81787 1.34246 5.81787C1.31243 5.81787 1.28809 5.83858 1.28809 5.86413C1.28809 5.88968 1.31243 5.91039 1.34246 5.91039Z"
          fill="white"
          stroke="#EF2D28"
          stroke-width="0.165862"
        />
        <path
          fill-rule="evenodd"
          clip-rule="evenodd"
          d="M1.00641 5.63452L0.92677 5.70505L1.00641 5.63452ZM1.05926 5.63452L0.979615 5.70505L1.05926 5.63452ZM1.11136 5.63452L1.03246 5.70505L1.11136 5.63452ZM1.1642 5.63452L1.08531 5.70505L1.1642 5.63452ZM1.21705 5.63452L1.13815 5.70505L1.21705 5.63452ZM1.26989 5.63452L1.191 5.70505L1.26989 5.63452ZM1.32274 5.63452L1.24384 5.70505L1.32274 5.63452ZM1.37558 5.63452L1.29669 5.70505L1.37558 5.63452ZM1.42843 5.63452L1.34879 5.70505L1.42843 5.63452ZM1.48127 5.63452L1.40089 5.70505L1.48127 5.63452ZM1.53263 5.63452L1.45373 5.70505L1.53263 5.63452ZM1.58548 5.63452L1.50658 5.70505L1.58548 5.63452ZM1.37484 5.63452L1.29669 5.70505L1.37484 5.63452ZM1.63906 5.63452L1.56017 5.70505L1.63906 5.63452ZM1.69191 5.63452L1.61301 5.70505L1.69191 5.63452ZM1.74476 5.63452L1.66586 5.70505L1.74476 5.63452ZM1.7976 5.63452L1.7187 5.70505L1.7976 5.63452ZM1.7187 5.63452L1.7976 5.70505L1.7187 5.63452ZM1.66586 5.63452L1.74476 5.70505L1.66586 5.63452ZM1.61301 5.63452L1.69191 5.70505L1.61301 5.63452ZM1.56017 5.63452L1.63906 5.70505L1.56017 5.63452ZM1.50732 5.63452L1.58622 5.70505L1.50732 5.63452ZM1.45448 5.63452L1.53337 5.70505L1.45448 5.63452ZM1.40163 5.63452L1.48127 5.70505L1.40163 5.63452ZM1.34879 5.63452L1.42768 5.70505L1.34879 5.63452ZM1.2952 5.63452L1.37484 5.70505L1.2952 5.63452ZM1.2431 5.63452L1.32199 5.70505L1.2431 5.63452ZM1.19025 5.63452L1.26915 5.70505L1.19025 5.63452ZM1.13741 5.63452L1.2163 5.70505L1.13741 5.63452ZM1.34879 5.63452L1.42768 5.70505L1.34879 5.63452ZM1.08531 5.63452L1.16346 5.70505L1.08531 5.63452ZM1.03172 5.63452L1.11136 5.70505L1.03172 5.63452ZM0.978871 5.63452L1.05851 5.70505L0.978871 5.63452ZM0.926025 5.63452L1.00641 5.70505L0.926025 5.63452ZM1.00641 6.03509L0.927514 6.10629L1.00641 6.03509ZM1.05851 6.03509L0.978871 6.10629L1.05851 6.03509ZM1.1121 6.03509L1.03246 6.10629L1.1121 6.03509ZM1.1642 6.03509L1.08531 6.10629L1.1642 6.03509ZM1.21705 6.03509L1.13815 6.10629L1.21705 6.03509ZM1.26989 6.03509L1.191 6.10629L1.26989 6.03509ZM1.32274 6.03509L1.24459 6.10629L1.32274 6.03509ZM1.37558 6.03509L1.29669 6.10629L1.37558 6.03509ZM1.42843 6.03509L1.34879 6.10629L1.42843 6.03509ZM1.48053 6.03509L1.40089 6.10629L1.48053 6.03509ZM1.53486 6.03509L1.45522 6.10629L1.53486 6.03509ZM1.58696 6.03509L1.50807 6.10629L1.58696 6.03509ZM1.37558 6.03509L1.29669 6.10629L1.37558 6.03509ZM1.63906 6.03509L1.56017 6.10629L1.63906 6.03509ZM1.69191 6.03509L1.61301 6.10629L1.69191 6.03509ZM1.74476 6.03509L1.66586 6.10629L1.74476 6.03509ZM1.7976 6.03509L1.7187 6.10629L1.7976 6.03509ZM1.7187 6.03509L1.7976 6.10629L1.7187 6.03509ZM1.66586 6.03509L1.74476 6.10629L1.66586 6.03509ZM1.61301 6.03509L1.69191 6.10629L1.61301 6.03509ZM1.56017 6.03509L1.63906 6.10629L1.56017 6.03509ZM1.50732 6.03509L1.58622 6.10629L1.50732 6.03509ZM1.45448 6.03509L1.53412 6.10629L1.45448 6.03509ZM1.40089 6.03509L1.48053 6.10629L1.40089 6.03509ZM1.34879 6.03509L1.42768 6.10629L1.34879 6.03509ZM1.29669 6.03509L1.37558 6.10629L1.29669 6.03509ZM1.24384 6.03509L1.32274 6.10629L1.24384 6.03509ZM1.191 6.03509L1.26989 6.10629L1.191 6.03509ZM1.13815 6.03509L1.21705 6.10629L1.13815 6.03509ZM1.34953 6.03509L1.42843 6.10629L1.34953 6.03509ZM1.08605 6.03509L1.1642 6.10629L1.08605 6.03509ZM1.03246 6.03509L1.1121 6.10629L1.03246 6.03509ZM0.979615 6.03509L1.05926 6.10629L0.979615 6.03509ZM0.927514 6.03509L1.00641 6.10629L0.927514 6.03509Z"
          fill="white"
        />
        <path
          d="M1.00641 5.63452L0.92677 5.70505M1.05926 5.63452L0.979615 5.70505M1.11136 5.63452L1.03246 5.70505M1.1642 5.63452L1.08531 5.70505M1.21705 5.63452L1.13815 5.70505M1.26989 5.63452L1.191 5.70505M1.32274 5.63452L1.24384 5.70505M1.37558 5.63452L1.29669 5.70505L1.37484 5.63452M1.42843 5.63452L1.34879 5.70505M1.48127 5.63452L1.40089 5.70505M1.53263 5.63452L1.45373 5.70505M1.58548 5.63452L1.50658 5.70505M1.63906 5.63452L1.56017 5.70505M1.69191 5.63452L1.61301 5.70505M1.74476 5.63452L1.66586 5.70505M1.7976 5.63452L1.7187 5.70505M1.7187 5.63452L1.7976 5.70505M1.66586 5.63452L1.74476 5.70505M1.61301 5.63452L1.69191 5.70505M1.56017 5.63452L1.63906 5.70505M1.50732 5.63452L1.58622 5.70505M1.45448 5.63452L1.53337 5.70505M1.40163 5.63452L1.48127 5.70505M1.34879 5.63452L1.42768 5.70505M1.2952 5.63452L1.37484 5.70505M1.2431 5.63452L1.32199 5.70505M1.19025 5.63452L1.26915 5.70505M1.13741 5.63452L1.2163 5.70505M1.08531 5.63452L1.16346 5.70505M1.03172 5.63452L1.11136 5.70505M0.978871 5.63452L1.05851 5.70505M0.926025 5.63452L1.00641 5.70505M1.00641 6.03509L0.927514 6.10629M1.05851 6.03509L0.978871 6.10629M1.1121 6.03509L1.03246 6.10629M1.1642 6.03509L1.08531 6.10629M1.21705 6.03509L1.13815 6.10629M1.26989 6.03509L1.191 6.10629M1.32274 6.03509L1.24459 6.10629M1.37558 6.03509L1.29669 6.10629M1.42843 6.03509L1.34879 6.10629M1.48053 6.03509L1.40089 6.10629M1.53486 6.03509L1.45522 6.10629M1.58696 6.03509L1.50807 6.10629M1.63906 6.03509L1.56017 6.10629M1.69191 6.03509L1.61301 6.10629M1.74476 6.03509L1.66586 6.10629M1.7976 6.03509L1.7187 6.10629M1.7187 6.03509L1.7976 6.10629M1.66586 6.03509L1.74476 6.10629M1.61301 6.03509L1.69191 6.10629M1.56017 6.03509L1.63906 6.10629M1.50732 6.03509L1.58622 6.10629M1.45448 6.03509L1.53412 6.10629M1.40089 6.03509L1.48053 6.10629M1.34879 6.03509L1.42768 6.10629M1.29669 6.03509L1.37558 6.10629M1.24384 6.03509L1.32274 6.10629M1.191 6.03509L1.26989 6.10629M1.13815 6.03509L1.21705 6.10629M1.34953 6.03509L1.42843 6.10629M1.08605 6.03509L1.1642 6.10629M1.03246 6.03509L1.1121 6.10629M0.979615 6.03509L1.05926 6.10629M0.927514 6.03509L1.00641 6.10629"
          stroke="#EF2D28"
          stroke-width="0.243965"
        />
        <path
          fill-rule="evenodd"
          clip-rule="evenodd"
          d="M2.46263 6.77103C1.18278 8.02625 0.636801 8.18481 0.893487 8.28612C1.15017 8.38743 1.97412 7.73947 2.83134 6.87957C3.68856 6.01967 4.21364 5.25375 3.95696 5.15243C3.70027 5.05112 3.82427 5.43714 2.46263 6.77103Z"
          fill="white"
          stroke="#EF2D28"
          stroke-width="0.4083"
        />
        <path
          fill-rule="evenodd"
          clip-rule="evenodd"
          d="M1.38688 7.68433L1.83569 7.8021C1.41368 8.20334 0.938812 8.36769 0.807071 8.29716C0.67533 8.22663 1.0445 8.06161 1.38762 7.68499L1.38688 7.68433Z"
          fill="white"
          stroke="#EF2D28"
          stroke-width="0.225198"
        />
        <path
          fill-rule="evenodd"
          clip-rule="evenodd"
          d="M1.38683 7.7312L1.75659 7.82526C1.3455 8.21107 0.938764 8.32048 0.833635 8.27313C0.727782 8.22643 1.05332 8.09398 1.38683 7.7312Z"
          fill="white"
          stroke="#EF2D28"
          stroke-width="0.236113"
        />
        <path
          d="M2.76147 6.71753C2.76043 6.72358 2.75728 6.75058 2.75466 6.76129C2.75466 6.77619 2.75309 6.78736 2.75152 6.799C2.74732 6.80924 2.74785 6.81855 2.73527 6.82227C2.72946 6.83158 2.72019 6.83882 2.70906 6.84276C2.69898 6.84993 2.68788 6.85588 2.67603 6.86045C2.66364 6.86523 2.64981 6.86621 2.63672 6.86324C2.62519 6.85626 2.6168 6.84881 2.60737 6.84276C2.60527 6.83344 2.60317 6.81994 2.60055 6.81063C2.60465 6.82305 2.60694 6.83588 2.60737 6.84881C2.60632 6.86277 2.60055 6.86929 2.59426 6.88046"
          stroke="#EF2D28"
          stroke-width="0.237111"
        />
        <path
          d="M2.6424 6.91235L2.63925 6.90956C2.64711 6.91654 2.64397 6.91328 2.62615 6.90351C2.61357 6.89792 2.59994 6.89513 2.58369 6.89233H2.53756C2.51974 6.89233 2.50768 6.89466 2.4951 6.89792C2.48567 6.9063 2.47204 6.91095 2.46208 6.9184C2.45323 6.92434 2.4465 6.93243 2.44269 6.94168C2.43378 6.94959 2.42801 6.9617 2.41962 6.96775C2.41595 6.98125 2.40862 6.98078 2.40337 6.99103C2.4191 6.99196 2.43115 6.99382 2.43954 7.00266C2.45317 7.00872 2.42801 6.99661 2.42277 6.99103C2.41228 6.98823 2.40966 6.98544 2.39341 6.98544C2.37874 6.98078 2.3693 6.9887 2.3541 6.99103C2.34519 6.99568 2.34257 6.99708 2.33104 6.99708"
          stroke="#EF2D28"
          stroke-width="0.237111"
        />
        <path
          d="M2.46606 7.05733C2.45925 7.05733 2.42885 7.06245 2.41679 7.05733C2.40316 7.05407 2.39582 7.04802 2.38744 7.03685C2.38324 7.02894 2.38744 7.05082 2.38744 7.06013C2.38587 7.07735 2.3801 7.07735 2.37066 7.08899C2.36123 7.09457 2.35127 7.10202 2.34131 7.10668C2.33258 7.11301 2.32263 7.1179 2.31196 7.12111C2.30147 7.12576 2.29047 7.12949 2.2826 7.13554C2.2716 7.14252 2.27212 7.1509 2.26583 7.16208C2.2674 7.17604 2.27002 7.18442 2.27893 7.19094C2.28313 7.20071 2.29151 7.21049 2.29885 7.21701C2.30672 7.23097 2.31615 7.23703 2.29571 7.24028C2.28418 7.24494 2.27789 7.24122 2.26583 7.24028"
          stroke="#EF2D28"
          stroke-width="0.237111"
        />
        <path
          d="M2.25806 7.26004C2.24967 7.25817 2.22136 7.2498 2.20878 7.24561H2.16266C2.14536 7.247 2.14169 7.25166 2.12701 7.25724C2.11705 7.26609 2.11076 7.27214 2.09714 7.27773C2.09032 7.28564 2.07617 7.29961 2.07093 7.30985C2.06661 7.32189 2.06449 7.33446 2.06464 7.34709C2.06464 7.36431 2.06988 7.36757 2.07093 7.38247C2.0746 7.39527 2.0814 7.40719 2.09084 7.41738C2.09242 7.42111 2.09347 7.42204 2.09714 7.42297"
          stroke="#EF2D28"
          stroke-width="0.237111"
        />
        <path
          d="M2.10352 7.46087C2.10203 7.46087 2.09905 7.46822 2.09421 7.47446C2.08342 7.48549 2.0823 7.48622 2.0663 7.48622C2.05141 7.48549 2.05328 7.48034 2.04285 7.47703C2.03802 7.46969 2.03206 7.46381 2.02648 7.45388C2.02276 7.448 2.01941 7.43882 2.01532 7.43331C2.01085 7.42632 2.00564 7.42118 2.00117 7.41493C1.99671 7.4131 1.99522 7.41126 1.98927 7.41016C2.00266 7.41236 2.00415 7.41714 2.01271 7.42412C2.01693 7.43077 2.02078 7.43764 2.02425 7.4447C2.02574 7.45462 2.02871 7.46234 2.02909 7.47446C2.02909 7.48732 2.02909 7.49614 2.02425 7.5068C2.01867 7.51231 2.01494 7.51819 2.00787 7.52297C2.00199 7.52861 1.99664 7.53475 1.99187 7.54134L1.97066 7.55494C1.96396 7.55898 1.95614 7.56302 1.94535 7.56412C1.93158 7.56302 1.92749 7.55935 1.91744 7.55494C1.90851 7.54869 1.90181 7.54465 1.89399 7.53877C1.88758 7.53354 1.88205 7.52734 1.87762 7.52039C1.86534 7.51746 1.85715 7.51856 1.84971 7.52517C1.8434 7.52952 1.83797 7.53501 1.83371 7.54134C1.82999 7.54318 1.82329 7.54869 1.81956 7.55053"
          stroke="#EF2D28"
          stroke-width="0.22681"
        />
        <path
          d="M1.84634 7.55811C1.85004 7.55948 1.86392 7.56911 1.86947 7.57232C1.87317 7.5847 1.87919 7.59112 1.88104 7.60442C1.88428 7.61635 1.88428 7.6301 1.88428 7.64432C1.88104 7.65899 1.87502 7.66954 1.86947 7.68101C1.86022 7.68743 1.85559 7.69201 1.84356 7.69843C1.832 7.70027 1.82043 7.70164 1.80609 7.70164C1.79683 7.7044 1.78018 7.70577 1.77138 7.70164C1.75843 7.69981 1.74871 7.69476 1.73946 7.69018C1.72882 7.68422 1.72234 7.67826 1.71077 7.67275C1.70476 7.6645 1.69597 7.6567 1.68764 7.64707C1.68024 7.63744 1.67515 7.63194 1.67006 7.62139C1.67469 7.63331 1.6807 7.64432 1.6844 7.65578C1.69134 7.66771 1.69504 7.67229 1.69597 7.68697C1.7006 7.69889 1.69921 7.71357 1.69921 7.72732C1.69782 7.7365 1.69736 7.75392 1.69319 7.76172V7.77043"
          stroke="#EF2D28"
          stroke-width="0.233384"
        />
        <path
          d="M1.4196 7.81554V7.8202C1.4196 7.80888 1.4196 7.81421 1.42481 7.83683C1.433 7.84615 1.45458 7.84881 1.47096 7.84482C1.48584 7.8335 1.48584 7.82485 1.51264 7.8202C1.53943 7.82153 1.54985 7.82818 1.56474 7.83683C1.58057 7.84209 1.59377 7.85224 1.60195 7.86544C1.60716 7.87942 1.61014 7.8894 1.59228 7.89472C1.57672 7.90404 1.55881 7.90975 1.54018 7.91136C1.51934 7.91136 1.5037 7.90936 1.49403 7.92001C1.47914 7.93331 1.48063 7.9413 1.48063 7.96525C1.47542 7.97257 1.47468 7.99453 1.47096 8.00318C1.45814 8.00921 1.44372 8.01197 1.42927 8.01117C1.42406 7.99786 1.41885 7.97523 1.41513 7.96126C1.41141 7.94662 1.41067 7.92533 1.40099 7.91535C1.39246 7.90389 1.3816 7.89396 1.36899 7.88607C1.36146 7.87844 1.35164 7.8729 1.3407 7.8701C1.35931 7.87809 1.36154 7.8874 1.36378 7.90736C1.34815 7.91402 1.34368 7.91934 1.31763 7.92001C1.29158 7.91801 1.28562 7.91202 1.27595 7.89871C1.27372 7.92001 1.26627 7.92666 1.26106 7.94529C1.25213 7.95727 1.24841 7.96991 1.23873 7.98655C1.24246 8.00651 1.25139 8.00717 1.25213 8.03179C1.25809 8.04843 1.25809 8.06373 1.27074 8.07371C1.27669 8.08037 1.28116 8.08103 1.29456 8.0817C1.26776 8.0817 1.25139 8.07904 1.23352 8.06972C1.22013 8.06174 1.20971 8.05242 1.19631 8.04444C1.17952 8.03312 1.16062 8.02456 1.14049 8.01915C1.1189 8.01915 1.10327 8.01715 1.09434 8.0278C1.08094 8.03645 1.07201 8.05109 1.06606 8.06972C1.06233 8.09101 1.0601 8.10565 1.07127 8.11963C1.07871 8.1356 1.08094 8.14158 1.07127 8.16088C1.0601 8.17419 1.04447 8.17619 1.01917 8.18151C1.00205 8.18084 0.984928 8.17752 0.973019 8.17352"
          stroke="#EF2D28"
          stroke-width="0.225198"
        />
        <path
          fill-rule="evenodd"
          clip-rule="evenodd"
          d="M3.92446 5.63918C4.49205 4.65673 4.86848 3.81956 4.76584 3.77217C4.66215 3.72429 4.11748 4.48378 3.54989 5.46623L3.92446 5.63918Z"
          fill="white"
          stroke="#EF2D28"
          stroke-width="0.310154"
        />
        <path
          fill-rule="evenodd"
          clip-rule="evenodd"
          d="M3.88703 5.62273C4.43459 4.67495 4.81168 3.87376 4.72957 3.83585C4.64661 3.79755 4.13493 4.53659 3.58737 5.48437"
          fill="white"
        />
        <path
          d="M3.88703 5.62273C4.43459 4.67495 4.81168 3.87376 4.72957 3.83585C4.64661 3.79755 4.13493 4.53659 3.58737 5.48437"
          stroke="#EF2D28"
          stroke-width="0.272474"
        />
        <path
          fill-rule="evenodd"
          clip-rule="evenodd"
          d="M3.79304 5.12815C3.72637 5.23891 3.65574 5.36581 3.58743 5.48405L3.88793 5.6228C3.95624 5.50456 4.0311 5.37961 4.09354 5.2669L3.79304 5.12815Z"
          fill="white"
          stroke="#EF2D28"
          stroke-width="0.30924"
        />
        <path
          fill-rule="evenodd"
          clip-rule="evenodd"
          d="M3.81918 5.1665C3.75217 5.27785 3.70612 5.36219 3.63747 5.48102L3.86179 5.58459C3.9301 5.46635 3.98106 5.38279 4.04349 5.27007L3.81918 5.1665Z"
          fill="white"
          stroke="#EF2D28"
          stroke-width="0.30924"
        />
        <path
          fill-rule="evenodd"
          clip-rule="evenodd"
          d="M3.98203 5.29501L3.83178 5.22564L3.69857 5.45621L3.84882 5.52558L3.98203 5.29501ZM3.98203 5.29501L3.69857 5.45621L3.98203 5.29501ZM3.84882 5.52558L3.83178 5.22564L3.84882 5.52558ZM4.65967 4.12207L4.50942 4.0527L4.65967 4.12207Z"
          fill="white"
        />
        <path
          d="M3.98203 5.29501L3.83178 5.22564M3.98203 5.29501L3.84882 5.52558M3.98203 5.29501L3.69857 5.45621M3.83178 5.22564L3.69857 5.45621M3.83178 5.22564L3.84882 5.52558M3.69857 5.45621L3.84882 5.52558M4.65967 4.12207L4.50942 4.0527"
          stroke="#EF2D28"
          stroke-width="0.30924"
        />
        <path
          d="M4.65895 4.01306C4.63587 4.01889 4.61293 4.00716 4.60772 3.98686C4.60251 3.96655 4.617 3.94536 4.64008 3.93952C4.66317 3.93369 4.68611 3.94542 4.69132 3.96572C4.69653 3.98603 4.68204 4.00722 4.65895 4.01306Z"
          fill="#EF0000"
          stroke="#EF2D28"
          stroke-width="0.400692"
        />
        <path
          fill-rule="evenodd"
          clip-rule="evenodd"
          d="M3.70192 6.74856C4.98177 8.00379 5.52775 8.16234 5.27106 8.26366C5.01438 8.36497 4.19043 7.71701 3.33321 6.85711C2.47599 5.99721 1.95091 5.23129 2.2076 5.12997C2.46428 5.02866 2.34028 5.41467 3.70192 6.74856Z"
          fill="white"
          stroke="#EF2D28"
          stroke-width="0.4083"
        />
        <path
          fill-rule="evenodd"
          clip-rule="evenodd"
          d="M4.77767 7.66187L4.32886 7.77964C4.75088 8.18088 5.22574 8.34523 5.35748 8.2747C5.48922 8.20417 5.12005 8.03915 4.77693 7.66253L4.77767 7.66187Z"
          fill="white"
          stroke="#EF2D28"
          stroke-width="0.225198"
        />
        <path
          fill-rule="evenodd"
          clip-rule="evenodd"
          d="M4.77797 7.70483L4.4082 7.79889C4.81929 8.1847 5.22603 8.29411 5.33116 8.24677C5.43701 8.20006 5.11148 8.06761 4.77797 7.70483Z"
          fill="white"
          stroke="#EF2D28"
          stroke-width="0.236113"
        />
        <path
          d="M3.40332 6.69116C3.40437 6.69721 3.40751 6.72421 3.41013 6.73492C3.41013 6.74982 3.41171 6.76099 3.41328 6.77263C3.41747 6.78287 3.41695 6.79218 3.42953 6.79591C3.43534 6.80522 3.4446 6.81245 3.45574 6.81639C3.46581 6.82356 3.47692 6.82951 3.48876 6.83408C3.50115 6.83886 3.51498 6.83985 3.52807 6.83687C3.53961 6.82989 3.54799 6.82244 3.55743 6.81639C3.55952 6.80708 3.56162 6.79358 3.56424 6.78427C3.56015 6.79668 3.55786 6.80951 3.55743 6.82244C3.55848 6.83641 3.56424 6.84292 3.57053 6.8541"
          stroke="#EF2D28"
          stroke-width="0.237111"
        />
        <path
          d="M3.52215 6.88623L3.5253 6.88344C3.51744 6.89042 3.52058 6.88716 3.5384 6.87738C3.55098 6.8718 3.56461 6.869 3.58086 6.86621H3.62699C3.64481 6.86621 3.65687 6.86854 3.66945 6.8718C3.67888 6.88018 3.69251 6.88483 3.70247 6.89228C3.71132 6.89822 3.71806 6.9063 3.72186 6.91556C3.73078 6.92347 3.73654 6.93557 3.74493 6.94163C3.7486 6.95513 3.75594 6.95466 3.76118 6.9649C3.74545 6.96583 3.7334 6.9677 3.72501 6.97654C3.71138 6.98259 3.73654 6.97049 3.74178 6.9649C3.75227 6.96211 3.75489 6.95932 3.77114 6.95932C3.78581 6.95466 3.79525 6.96257 3.81045 6.9649C3.81936 6.96956 3.82198 6.97095 3.83351 6.97095"
          stroke="#EF2D28"
          stroke-width="0.237111"
        />
        <path
          d="M3.69873 7.03463C3.70554 7.03463 3.73595 7.03975 3.748 7.03463C3.76163 7.03137 3.76897 7.02532 3.77736 7.01414C3.78155 7.00623 3.77736 7.02811 3.77736 7.03742C3.77893 7.05465 3.7847 7.05465 3.79413 7.06628C3.80357 7.07187 3.81352 7.07932 3.82348 7.08397C3.83222 7.0903 3.84216 7.09519 3.85284 7.0984C3.86332 7.10306 3.87433 7.10678 3.88219 7.11284C3.8932 7.11982 3.89268 7.1282 3.89897 7.13937C3.89739 7.15334 3.89477 7.16172 3.88586 7.16823C3.88167 7.17801 3.87328 7.18779 3.86594 7.1943C3.85808 7.20827 3.84864 7.21432 3.86909 7.21758C3.88062 7.22223 3.88691 7.21851 3.89897 7.21758"
          stroke="#EF2D28"
          stroke-width="0.237111"
        />
        <path
          d="M3.90649 7.23758C3.91488 7.23571 3.94319 7.22733 3.95577 7.22314H4.00189C4.01919 7.22454 4.02286 7.2292 4.03754 7.23478C4.0475 7.24363 4.05379 7.24968 4.06742 7.25527C4.07423 7.26318 4.08838 7.27715 4.09362 7.28739C4.09794 7.29942 4.10006 7.312 4.09991 7.32463C4.09991 7.34185 4.09467 7.34511 4.09362 7.36001C4.08995 7.37281 4.08315 7.38473 4.07371 7.39492C4.07213 7.39865 4.07109 7.39958 4.06742 7.40051"
          stroke="#EF2D28"
          stroke-width="0.237111"
        />
        <path
          d="M4.06494 7.43841C4.06643 7.43841 4.06941 7.44575 4.07425 7.452C4.08504 7.46303 4.08615 7.46376 4.10216 7.46376C4.11704 7.46303 4.11518 7.45788 4.1256 7.45457C4.13044 7.44722 4.13639 7.44134 4.14198 7.43142C4.1457 7.42554 4.14905 7.41636 4.15314 7.41085C4.15761 7.40386 4.16282 7.39872 4.16728 7.39247C4.17175 7.39063 4.17324 7.3888 4.17919 7.3877C4.16579 7.3899 4.16431 7.39468 4.15575 7.40166C4.15153 7.40831 4.14767 7.41518 4.14421 7.42224C4.14272 7.43216 4.13974 7.43987 4.13937 7.452C4.13937 7.46486 4.13937 7.47368 4.14421 7.48434C4.14979 7.48985 4.15351 7.49573 4.16058 7.50051C4.16647 7.50614 4.17182 7.51229 4.17659 7.51888L4.1978 7.53248C4.2045 7.53652 4.21231 7.54056 4.22311 7.54166C4.23687 7.54056 4.24097 7.53688 4.25102 7.53248C4.25995 7.52623 4.26665 7.52219 4.27446 7.51631C4.28088 7.51108 4.2864 7.50488 4.29084 7.49793C4.30312 7.49499 4.3113 7.4961 4.31875 7.50271C4.32506 7.50706 4.33049 7.51255 4.33475 7.51888C4.33847 7.52072 4.34517 7.52623 4.34889 7.52807"
          stroke="#EF2D28"
          stroke-width="0.22681"
        />
        <path
          d="M4.31821 7.53198C4.31451 7.53336 4.30063 7.54299 4.29508 7.5462C4.29138 7.55858 4.28536 7.565 4.28351 7.5783C4.28027 7.59022 4.28027 7.60398 4.28027 7.6182C4.28351 7.63287 4.28953 7.64342 4.29508 7.65488C4.30433 7.6613 4.30896 7.66589 4.32099 7.67231C4.33256 7.67414 4.34412 7.67552 4.35847 7.67552C4.36772 7.67827 4.38438 7.67965 4.39317 7.67552C4.40612 7.67369 4.41584 7.66864 4.42509 7.66406C4.43573 7.65809 4.44221 7.65213 4.45378 7.64663C4.45979 7.63837 4.46858 7.63058 4.47691 7.62095C4.48431 7.61132 4.4894 7.60582 4.49449 7.59527C4.48987 7.60719 4.48385 7.6182 4.48015 7.62966C4.47321 7.64159 4.46951 7.64617 4.46858 7.66085C4.46396 7.67277 4.46534 7.68744 4.46534 7.7012C4.46673 7.71037 4.46719 7.7278 4.47136 7.7356V7.74431"
          stroke="#EF2D28"
          stroke-width="0.233384"
        />
        <path
          d="M4.74495 7.79308V7.79774C4.74495 7.78642 4.74495 7.79175 4.73974 7.81437C4.73155 7.82369 4.70997 7.82635 4.6936 7.82235C4.67871 7.81104 4.67871 7.80239 4.65191 7.79774C4.62512 7.79907 4.6147 7.80572 4.59981 7.81437C4.58398 7.81963 4.57078 7.82978 4.5626 7.84298C4.55739 7.85696 4.55441 7.86694 4.57227 7.87226C4.58783 7.88157 4.60574 7.88729 4.62438 7.88889C4.64522 7.88889 4.66085 7.8869 4.67052 7.89755C4.68541 7.91085 4.68392 7.91884 4.68392 7.94279C4.68913 7.95011 4.68987 7.97207 4.6936 7.98072C4.70641 7.98675 4.72083 7.98951 4.73528 7.9887C4.74049 7.9754 4.7457 7.95277 4.74942 7.9388C4.75314 7.92416 4.75388 7.90287 4.76356 7.89289C4.77209 7.88143 4.78295 7.8715 4.79556 7.86361C4.80309 7.85598 4.81291 7.85044 4.82385 7.84764C4.80524 7.85563 4.80301 7.86494 4.80077 7.8849C4.8164 7.89156 4.82087 7.89688 4.84692 7.89755C4.87297 7.89555 4.87893 7.88956 4.8886 7.87625C4.89083 7.89755 4.89828 7.9042 4.90349 7.92283C4.91242 7.93481 4.91614 7.94745 4.92582 7.96409C4.9221 7.98405 4.91316 7.98471 4.91242 8.00933C4.90647 8.02597 4.90647 8.04127 4.89381 8.05125C4.88786 8.05791 4.88339 8.05857 4.86999 8.05924C4.89679 8.05924 4.91316 8.05658 4.93103 8.04726C4.94442 8.03928 4.95484 8.02996 4.96824 8.02197C4.98503 8.01066 5.00393 8.0021 5.02406 7.99669C5.04565 7.99669 5.06128 7.99469 5.07021 8.00534C5.08361 8.01399 5.09254 8.02863 5.09849 8.04726C5.10222 8.06855 5.10445 8.08319 5.09328 8.09717C5.08584 8.11313 5.08361 8.11912 5.09328 8.13842C5.10445 8.15173 5.12008 8.15372 5.14539 8.15905C5.1625 8.15838 5.17962 8.15505 5.19153 8.15106"
          stroke="#EF2D28"
          stroke-width="0.225198"
        />
        <path
          fill-rule="evenodd"
          clip-rule="evenodd"
          d="M2.24034 5.61672C1.67275 4.63427 1.29632 3.7971 1.39895 3.74971C1.50265 3.70183 2.04732 4.46132 2.6149 5.44377L2.24034 5.61672Z"
          fill="white"
          stroke="#EF2D28"
          stroke-width="0.310154"
        />
        <path
          fill-rule="evenodd"
          clip-rule="evenodd"
          d="M2.27777 5.60027C1.73021 4.65249 1.35312 3.8513 1.43523 3.81339C1.51819 3.77508 2.02987 4.51413 2.57743 5.46191"
          fill="white"
        />
        <path
          d="M2.27777 5.60027C1.73021 4.65249 1.35312 3.8513 1.43523 3.81339C1.51819 3.77508 2.02987 4.51413 2.57743 5.46191"
          stroke="#EF2D28"
          stroke-width="0.272474"
        />
        <path
          fill-rule="evenodd"
          clip-rule="evenodd"
          d="M2.37175 5.10569C2.43842 5.21645 2.50906 5.34335 2.57737 5.46159L2.27687 5.60034C2.20856 5.4821 2.13369 5.35715 2.07125 5.24444L2.37175 5.10569Z"
          fill="white"
          stroke="#EF2D28"
          stroke-width="0.30924"
        />
        <path
          fill-rule="evenodd"
          clip-rule="evenodd"
          d="M2.34562 5.14404C2.41263 5.25539 2.45867 5.33973 2.52732 5.45856L2.30301 5.56213C2.2347 5.44389 2.18374 5.36033 2.1213 5.24761L2.34562 5.14404Z"
          fill="white"
          stroke="#EF2D28"
          stroke-width="0.30924"
        />
        <path
          fill-rule="evenodd"
          clip-rule="evenodd"
          d="M2.18277 5.27255L2.33302 5.20318L2.46622 5.43375L2.31597 5.50312L2.18277 5.27255ZM2.18277 5.27255L2.46622 5.43375L2.18277 5.27255ZM2.31597 5.50312L2.33302 5.20318L2.31597 5.50312ZM1.50513 4.09961L1.65538 4.03023L1.50513 4.09961Z"
          fill="white"
        />
        <path
          d="M2.18277 5.27255L2.33302 5.20318M2.18277 5.27255L2.31597 5.50312M2.18277 5.27255L2.46622 5.43375M2.33302 5.20318L2.46622 5.43375M2.33302 5.20318L2.31597 5.50312M2.46622 5.43375L2.31597 5.50312M1.50513 4.09961L1.65538 4.03023"
          stroke="#EF2D28"
          stroke-width="0.30924"
        />
        <path
          d="M1.50584 3.99059C1.52893 3.99643 1.55187 3.9847 1.55708 3.9644C1.56229 3.94409 1.5478 3.9229 1.52471 3.91706C1.50162 3.91123 1.47869 3.92295 1.47348 3.94326C1.46827 3.96357 1.48276 3.98476 1.50584 3.99059Z"
          fill="#EF0000"
          stroke="#EF2D28"
          stroke-width="0.400692"
        />
        <path
          fill-rule="evenodd"
          clip-rule="evenodd"
          d="M2.69406 5.11597C2.69406 5.94106 2.69902 6.2518 2.63848 6.29439C2.58093 6.3403 0.980225 6.29439 0.980225 6.52994C0.980225 6.76549 2.2981 7.00238 2.69406 7.00238C3.222 7.00238 3.48498 6.76616 3.48498 6.29439V5.11663H2.69406V5.11597Z"
          fill="white"
          stroke="#EF2D28"
          stroke-width="0.281703"
        />
        <path
          fill-rule="evenodd"
          clip-rule="evenodd"
          d="M2.69434 5.35156V5.46934C2.95599 5.50856 3.22313 5.50856 3.48478 5.46934V5.35156C3.22313 5.39079 2.95599 5.39079 2.69434 5.35156Z"
          fill="white"
          stroke="#EF2D28"
          stroke-width="0.243965"
        />
        <path
          fill-rule="evenodd"
          clip-rule="evenodd"
          d="M2.69434 5.11597V5.23374C2.95599 5.27296 3.22313 5.27296 3.48478 5.23374V5.11597C3.22313 5.15519 2.95599 5.15519 2.69434 5.11597Z"
          fill="white"
          stroke="#EF2D28"
          stroke-width="0.243965"
        />
        <path
          fill-rule="evenodd"
          clip-rule="evenodd"
          d="M2.69434 5.23389V5.35166C2.95599 5.39088 3.22313 5.39088 3.48478 5.35166V5.23389C3.22313 5.27311 2.95599 5.27311 2.69434 5.23389Z"
          fill="white"
          stroke="#EF2D28"
          stroke-width="0.243965"
        />
        <path
          fill-rule="evenodd"
          clip-rule="evenodd"
          d="M2.69434 5.46948V5.58726C2.95599 5.62648 3.22313 5.62648 3.48478 5.58726V5.46948C3.22313 5.5087 2.95599 5.5087 2.69434 5.46948Z"
          fill="white"
          stroke="#EF2D28"
          stroke-width="0.243965"
        />
        <path
          d="M2.73022 5.32606C2.75018 5.32606 2.76636 5.31466 2.76636 5.3006C2.76636 5.28654 2.75018 5.27515 2.73022 5.27515C2.71027 5.27515 2.69409 5.28654 2.69409 5.3006C2.69409 5.31466 2.71027 5.32606 2.73022 5.32606Z"
          fill="white"
          stroke="#EF2D28"
          stroke-width="0.231281"
        />
        <path
          d="M2.87402 5.33876C2.89398 5.33876 2.91015 5.32736 2.91015 5.3133C2.91015 5.29924 2.89398 5.28784 2.87402 5.28784C2.85407 5.28784 2.83789 5.29924 2.83789 5.3133C2.83789 5.32736 2.85407 5.33876 2.87402 5.33876Z"
          fill="white"
          stroke="#EF2D28"
          stroke-width="0.231281"
        />
        <path
          d="M3.01807 5.3517C3.03802 5.3517 3.0542 5.3403 3.0542 5.32624C3.0542 5.31218 3.03802 5.30078 3.01807 5.30078C2.99811 5.30078 2.98193 5.31218 2.98193 5.32624C2.98193 5.3403 2.99811 5.3517 3.01807 5.3517Z"
          fill="white"
          stroke="#EF2D28"
          stroke-width="0.231281"
        />
        <path
          d="M3.16186 5.3517C3.18182 5.3517 3.198 5.3403 3.198 5.32624C3.198 5.31218 3.18182 5.30078 3.16186 5.30078C3.14191 5.30078 3.12573 5.31218 3.12573 5.32624C3.12573 5.3403 3.14191 5.3517 3.16186 5.3517Z"
          fill="white"
          stroke="#EF2D28"
          stroke-width="0.231281"
        />
        <path
          d="M3.30566 5.33876C3.32562 5.33876 3.3418 5.32736 3.3418 5.3133C3.3418 5.29924 3.32562 5.28784 3.30566 5.28784C3.28571 5.28784 3.26953 5.29924 3.26953 5.3133C3.26953 5.32736 3.28571 5.33876 3.30566 5.33876Z"
          fill="white"
          stroke="#EF2D28"
          stroke-width="0.231281"
        />
        <path
          d="M3.44971 5.32606C3.46966 5.32606 3.48584 5.31466 3.48584 5.3006C3.48584 5.28654 3.46966 5.27515 3.44971 5.27515C3.42975 5.27515 3.41357 5.28654 3.41357 5.3006C3.41357 5.31466 3.42975 5.32606 3.44971 5.32606Z"
          fill="white"
          stroke="#EF2D28"
          stroke-width="0.231281"
        />
        <path
          fill-rule="evenodd"
          clip-rule="evenodd"
          d="M2.6944 5.70508L3.48484 6.34187L2.6944 5.70508ZM2.77329 5.70508L3.48559 6.27067L2.77329 5.70508ZM2.87824 5.72903L3.48559 6.2008L2.87824 5.72903ZM2.95714 5.72837L3.48559 6.1296L2.95714 5.72837ZM3.03678 5.72903L3.48484 6.05907L3.03678 5.72903ZM3.11567 5.72903L3.48484 5.98854L3.11567 5.72903ZM3.19457 5.72903L3.48484 5.91734L3.19457 5.72903ZM3.27495 5.72903L3.48633 5.8701L3.27495 5.72903ZM3.3531 5.72903L3.48559 5.82352L3.3531 5.72903ZM3.43274 5.72903L3.48484 5.77561L3.43274 5.72903ZM2.6944 5.77561L3.48484 6.41306L2.6944 5.77561ZM3.48484 5.70574L2.61401 6.4124L3.48484 5.70574ZM3.4052 5.70508L2.64081 6.31858L3.4052 5.70508ZM3.30026 5.72903L2.69365 6.20014L3.30026 5.72903ZM3.22062 5.72903L2.69365 6.1296L3.22062 5.72903ZM3.14247 5.72903L2.6944 6.05907L3.14247 5.72903ZM3.06357 5.72903L2.6944 5.98854L3.06357 5.72903ZM2.98467 5.72903L2.6944 5.91734L2.98467 5.72903ZM2.90429 5.72903L2.69365 5.8701L2.90429 5.72903ZM2.82539 5.72903L2.69365 5.82352L2.82539 5.72903ZM2.74575 5.72903L2.69365 5.77561L2.74575 5.72903ZM3.48484 5.77561L2.61401 6.48426L3.48484 5.77561ZM3.48484 5.84747L2.61401 6.55413L3.48484 5.84747ZM3.48484 5.91734L2.61401 6.62466L3.48484 5.91734ZM3.48484 5.98787L2.61401 6.69652L3.48484 5.98787ZM3.48484 6.05974L2.61401 6.76639L3.48484 6.05974ZM3.48484 6.1296L2.61401 6.83692L3.48484 6.1296ZM3.48484 6.20014L2.61401 6.90746L3.48484 6.20014ZM3.48484 6.27133L2.61401 6.97865L3.48484 6.27133ZM3.48484 6.34187L2.66686 7.00194L3.48484 6.34187ZM3.48484 6.4124L2.7465 7.00194L3.48484 6.4124ZM3.45805 6.50689L2.8775 6.97865L3.45805 6.50689ZM3.43274 6.60071L2.95788 6.97799L3.43274 6.60071ZM3.3799 6.71848L3.14172 6.90679L3.3799 6.71848ZM2.6944 5.84614L3.45879 6.45898L2.6944 5.84614ZM2.6944 5.91668L3.45879 6.53017L2.6944 5.91668ZM2.6944 5.98854L3.43274 6.57742L2.6944 5.98854ZM2.6944 6.05841L3.43274 6.64862L2.6944 6.05841ZM2.6944 6.1296L3.40595 6.69519L2.6944 6.1296ZM2.6676 6.17685L3.3799 6.74244L2.6676 6.17685ZM2.6676 6.24804L3.32705 6.76706L2.6676 6.24804ZM2.64155 6.29462L3.301 6.81363L2.64155 6.29462ZM2.61401 6.3412L3.24667 6.83626L2.61401 6.3412ZM2.61401 6.41173L3.22062 6.8835L2.61401 6.41173ZM2.61401 6.48293L3.14247 6.90679L2.61401 6.48293Z"
          fill="white"
        />
        <path
          d="M2.6944 5.70508L3.48484 6.34187L2.66686 7.00194M2.77329 5.70508L3.48559 6.27067M2.87824 5.72903L3.48559 6.2008M2.95714 5.72837L3.48559 6.1296M3.03678 5.72903L3.48484 6.05907M3.11567 5.72903L3.48484 5.98854M3.19457 5.72903L3.48484 5.91734L2.61401 6.62466M3.27495 5.72903L3.48633 5.8701M3.3531 5.72903L3.48559 5.82352M3.43274 5.72903L3.48484 5.77561L2.61401 6.48426M2.6944 5.77561L3.48484 6.41306M3.48484 5.70574L2.61401 6.4124M3.4052 5.70508L2.64081 6.31858M3.30026 5.72903L2.69365 6.20014M3.22062 5.72903L2.69365 6.1296M3.14247 5.72903L2.6944 6.05907M3.06357 5.72903L2.6944 5.98854L3.43274 6.57742M2.98467 5.72903L2.6944 5.91734M2.90429 5.72903L2.69365 5.8701M2.82539 5.72903L2.69365 5.82352M2.74575 5.72903L2.69365 5.77561M3.48484 5.84747L2.61401 6.55413M3.48484 5.98787L2.61401 6.69652M3.48484 6.05974L2.61401 6.76639M3.48484 6.1296L2.61401 6.83692M3.48484 6.20014L2.61401 6.90746M3.48484 6.27133L2.61401 6.97865M3.48484 6.4124L2.7465 7.00194M3.45805 6.50689L2.8775 6.97865M3.43274 6.60071L2.95788 6.97799M3.3799 6.71848L3.14172 6.90679M2.6944 5.84614L3.45879 6.45898M2.6944 5.91668L3.45879 6.53017M2.6944 6.05841L3.43274 6.64862M2.6944 6.1296L3.40595 6.69519M2.6676 6.17685L3.3799 6.74244M2.6676 6.24804L3.32705 6.76706M2.64155 6.29462L3.301 6.81363M2.61401 6.3412L3.24667 6.83626M2.61401 6.41173L3.22062 6.8835M2.61401 6.48293L3.14247 6.90679"
          stroke="#EF2D28"
          stroke-width="0.243965"
        />
        <path
          fill-rule="evenodd"
          clip-rule="evenodd"
          d="M2.69434 5.58789V5.70567C2.95599 5.74489 3.22313 5.74489 3.48478 5.70567V5.58789C3.22313 5.62711 2.95599 5.62711 2.69434 5.58789Z"
          fill="white"
          stroke="#EF2D28"
          stroke-width="0.243965"
        />
        <path
          fill-rule="evenodd"
          clip-rule="evenodd"
          d="M2.61476 6.55396L3.08962 6.93124L2.61476 6.55396ZM2.61476 6.62515L3.03678 6.95453L2.61476 6.62515ZM2.61476 6.69502L2.98393 6.97848L2.61476 6.69502ZM2.61476 6.76555L2.87898 6.97848L2.61476 6.76555ZM2.61401 6.83675L2.82539 7.00177L2.61401 6.83675ZM2.61401 6.90728L2.74575 7.00177L2.61401 6.90728Z"
          fill="white"
        />
        <path
          d="M2.61476 6.55396L3.08962 6.93124M2.61476 6.62515L3.03678 6.95453M2.61476 6.69502L2.98393 6.97848M2.61476 6.76555L2.87898 6.97848M2.61401 6.83675L2.82539 7.00177M2.61401 6.90728L2.74575 7.00177"
          stroke="#EF2D28"
          stroke-width="0.243965"
        />
        <path
          d="M2.73022 5.68007C2.75018 5.68007 2.76636 5.66867 2.76636 5.65461C2.76636 5.64055 2.75018 5.62915 2.73022 5.62915C2.71027 5.62915 2.69409 5.64055 2.69409 5.65461C2.69409 5.66867 2.71027 5.68007 2.73022 5.68007Z"
          fill="white"
          stroke="#EF2D28"
          stroke-width="0.231281"
        />
        <path
          d="M2.87402 5.69276C2.89398 5.69276 2.91015 5.68136 2.91015 5.6673C2.91015 5.65324 2.89398 5.64185 2.87402 5.64185C2.85407 5.64185 2.83789 5.65324 2.83789 5.6673C2.83789 5.68136 2.85407 5.69276 2.87402 5.69276Z"
          fill="white"
          stroke="#EF2D28"
          stroke-width="0.231281"
        />
        <path
          d="M3.01807 5.70497C3.03802 5.70497 3.0542 5.69357 3.0542 5.67951C3.0542 5.66545 3.03802 5.65405 3.01807 5.65405C2.99811 5.65405 2.98193 5.66545 2.98193 5.67951C2.98193 5.69357 2.99811 5.70497 3.01807 5.70497Z"
          fill="white"
          stroke="#EF2D28"
          stroke-width="0.231281"
        />
        <path
          d="M3.16186 5.70497C3.18182 5.70497 3.198 5.69357 3.198 5.67951C3.198 5.66545 3.18182 5.65405 3.16186 5.65405C3.14191 5.65405 3.12573 5.66545 3.12573 5.67951C3.12573 5.69357 3.14191 5.70497 3.16186 5.70497Z"
          fill="white"
          stroke="#EF2D28"
          stroke-width="0.231281"
        />
        <path
          d="M3.30566 5.69276C3.32562 5.69276 3.3418 5.68136 3.3418 5.6673C3.3418 5.65324 3.32562 5.64185 3.30566 5.64185C3.28571 5.64185 3.26953 5.65324 3.26953 5.6673C3.26953 5.68136 3.28571 5.69276 3.30566 5.69276Z"
          fill="white"
          stroke="#EF2D28"
          stroke-width="0.231281"
        />
        <path
          d="M3.44971 5.68007C3.46966 5.68007 3.48584 5.66867 3.48584 5.65461C3.48584 5.64055 3.46966 5.62915 3.44971 5.62915C3.42975 5.62915 3.41357 5.64055 3.41357 5.65461C3.41357 5.66867 3.42975 5.68007 3.44971 5.68007Z"
          fill="white"
          stroke="#EF2D28"
          stroke-width="0.231281"
        />
        <path
          fill-rule="evenodd"
          clip-rule="evenodd"
          d="M1.56016 6.81342L2.50914 6.31836L1.56016 6.81342ZM1.50731 6.78946L2.4042 6.31836L1.50731 6.78946ZM1.48126 6.74222L2.2985 6.31836L1.48126 6.74222ZM1.45447 6.69564L2.16676 6.31836L1.45447 6.69564ZM1.40088 6.6484L2.06033 6.31836L1.40088 6.6484ZM1.42767 6.57787L1.87574 6.34165L1.42767 6.57787ZM1.40088 6.52996L1.74326 6.34165L1.40088 6.52996ZM1.40088 6.45942L1.63905 6.34165L1.40088 6.45942ZM1.63905 6.83671L2.53519 6.36494L1.63905 6.83671ZM1.7187 6.86L2.56199 6.41218L1.7187 6.86ZM1.79759 6.88395L2.58878 6.45942L1.79759 6.88395ZM1.87649 6.90724L2.53594 6.55391L1.87649 6.90724ZM1.98143 6.90724L2.56199 6.60115L1.98143 6.90724ZM2.06033 6.93119L2.56124 6.67169L2.06033 6.93119ZM2.13922 6.95448L2.53519 6.74222L2.13922 6.95448ZM2.24492 6.95515L2.56124 6.78946L2.24492 6.95515ZM2.35061 6.97844L2.56199 6.86L2.35061 6.97844ZM2.45779 6.97844L2.58953 6.9079L2.45779 6.97844Z"
          fill="white"
        />
        <path
          d="M1.56016 6.81342L2.50914 6.31836M1.50731 6.78946L2.4042 6.31836M1.48126 6.74222L2.2985 6.31836M1.45447 6.69564L2.16676 6.31836M1.40088 6.6484L2.06033 6.31836M1.42767 6.57787L1.87574 6.34165M1.40088 6.52996L1.74326 6.34165M1.40088 6.45942L1.63905 6.34165M1.63905 6.83671L2.53519 6.36494M1.7187 6.86L2.56199 6.41218M1.79759 6.88395L2.58878 6.45942M1.87649 6.90724L2.53594 6.55391M1.98143 6.90724L2.56199 6.60115M2.06033 6.93119L2.56124 6.67169M2.13922 6.95448L2.53519 6.74222M2.24492 6.95515L2.56124 6.78946M2.35061 6.97844L2.56199 6.86M2.45778 6.97844L2.58953 6.9079"
          stroke="#EF2D28"
          stroke-width="0.243965"
        />
        <path
          fill-rule="evenodd"
          clip-rule="evenodd"
          d="M2.64087 6.29517H2.50913C2.46526 6.52908 2.46526 6.7679 2.50913 7.00182H2.64087C2.597 6.7679 2.597 6.52908 2.64087 6.29517Z"
          fill="white"
          stroke="#EF2D28"
          stroke-width="0.243965"
        />
        <path
          fill-rule="evenodd"
          clip-rule="evenodd"
          d="M1.08521 6.62447L1.40153 6.38892L1.08521 6.62447ZM1.08521 6.45945L1.40153 6.74224L1.08521 6.45945Z"
          fill="white"
        />
        <path
          d="M1.08521 6.62447L1.40153 6.38892M1.08521 6.45945L1.40153 6.74224"
          stroke="#EF2D28"
          stroke-width="0.243965"
        />
        <path
          fill-rule="evenodd"
          clip-rule="evenodd"
          d="M1.56006 6.34131L1.40167 6.36491C1.36654 6.51451 1.36654 6.64009 1.40167 6.7897L1.56006 6.83647C1.52493 6.68729 1.52493 6.49091 1.56006 6.34131Z"
          fill="white"
          stroke="#EF2D28"
          stroke-width="0.173655"
        />
        <path
          fill-rule="evenodd"
          clip-rule="evenodd"
          d="M3.485 5.16276V5.04365C3.36568 5.04498 3.2865 4.97379 3.2865 4.90259L2.89172 4.90325C2.89172 4.97379 2.81366 5.04498 2.69434 5.04498V5.16276H3.485Z"
          fill="white"
          stroke="#EF2D28"
          stroke-width="0.298625"
        />
        <path
          fill-rule="evenodd"
          clip-rule="evenodd"
          d="M2.91919 4.76203H3.25859V4.90376H2.91919V4.76203ZM2.94822 4.6203H3.23031V4.76203H2.94747L2.94822 4.6203ZM2.94822 4.47924H3.23031V4.6203H2.94747L2.94822 4.47924ZM2.9765 4.29026H3.20202V4.47924H2.9765V4.29026ZM2.96682 4.12524H3.21244V4.29026H2.96682V4.12524Z"
          fill="white"
        />
        <path
          d="M3.23031 4.6203H2.94822L2.94747 4.76203H3.23031V4.6203ZM3.23031 4.6203V4.47924H2.94822L2.94747 4.6203H3.23031ZM2.91919 4.76203H3.25859V4.90376H2.91919V4.76203ZM2.9765 4.29026H3.20202V4.47924H2.9765V4.29026ZM2.96682 4.12524H3.21244V4.29026H2.96682V4.12524Z"
          stroke="#EF2D28"
          stroke-width="0.262732"
        />
        <path
          d="M3.10225 4.19653C3.28277 4.19653 3.42911 4.09613 3.42911 3.97229C3.42911 3.84844 3.28277 3.74805 3.10225 3.74805C2.92173 3.74805 2.77539 3.84844 2.77539 3.97229C2.77539 4.09613 2.92173 4.19653 3.10225 4.19653Z"
          fill="white"
          stroke="#EF2D28"
          stroke-width="0.247994"
        />
        <path
          fill-rule="evenodd"
          clip-rule="evenodd"
          d="M3.26609 3.96038C3.26609 4.02226 3.34761 4.1254 3.34761 4.1254C3.28839 4.16665 3.19225 4.19659 3.10227 4.19659C3.01229 4.19659 2.9 4.17929 2.85693 4.1254C2.85693 4.1254 2.93846 4.02292 2.93846 3.96104C2.93846 3.89916 2.85693 3.81931 2.85693 3.81931C2.92832 3.77393 3.01446 3.74924 3.10304 3.74878C3.19225 3.74878 3.28762 3.77872 3.34761 3.81931C3.34761 3.81931 3.26609 3.89916 3.26609 3.96104V3.96038Z"
          fill="white"
          stroke="#EF2D28"
          stroke-width="0.247994"
        />
        <path
          fill-rule="evenodd"
          clip-rule="evenodd"
          d="M3.21156 3.96038C3.21156 4.02226 3.29309 4.14935 3.29309 4.14935C3.23387 4.18927 3.19311 4.19593 3.10235 4.19593C3.0116 4.19593 2.95469 4.20325 2.91162 4.14935C2.91162 4.14935 2.99314 4.02292 2.99314 3.96038C2.99314 3.89783 2.91162 3.79536 2.91162 3.79536C2.97084 3.75543 3.0116 3.74878 3.10235 3.74878C3.19234 3.74878 3.23387 3.75543 3.29309 3.79536C3.29309 3.79536 3.21156 3.89849 3.21156 3.96038Z"
          fill="white"
          stroke="#EF2D28"
          stroke-width="0.247994"
        />
        <path
          d="M2.77537 4.05415C2.82039 4.05415 2.85689 4.02257 2.85689 3.98362C2.85689 3.94466 2.82039 3.91309 2.77537 3.91309C2.73035 3.91309 2.69385 3.94466 2.69385 3.98362C2.69385 4.02257 2.73035 4.05415 2.77537 4.05415Z"
          fill="white"
          stroke="#EF2D28"
          stroke-width="0.247994"
        />
        <path
          d="M3.42967 4.05415C3.47469 4.05415 3.51119 4.02257 3.51119 3.98362C3.51119 3.94466 3.47469 3.91309 3.42967 3.91309C3.38464 3.91309 3.34814 3.94466 3.34814 3.98362C3.34814 4.02257 3.38464 4.05415 3.42967 4.05415Z"
          fill="white"
          stroke="#EF2D28"
          stroke-width="0.247994"
        />
        <path
          d="M3.10301 4.05415C3.14803 4.05415 3.18453 4.02257 3.18453 3.98362C3.18453 3.94466 3.14803 3.91309 3.10301 3.91309C3.05798 3.91309 3.02148 3.94466 3.02148 3.98362C3.02148 4.02257 3.05798 4.05415 3.10301 4.05415Z"
          fill="white"
          stroke="#EF2D28"
          stroke-width="0.247994"
        />
        <path
          d="M3.10301 3.81856C3.14803 3.81856 3.18453 3.78698 3.18453 3.74802C3.18453 3.70907 3.14803 3.67749 3.10301 3.67749C3.05798 3.67749 3.02148 3.70907 3.02148 3.74802C3.02148 3.78698 3.05798 3.81856 3.10301 3.81856Z"
          fill="white"
          stroke="#EF2D28"
          stroke-width="0.247994"
        />
        <path
          d="M2.86398 5.16255C2.91061 5.16255 2.94841 5.13097 2.94841 5.09202C2.94841 5.05306 2.91061 5.02148 2.86398 5.02148C2.81734 5.02148 2.77954 5.05306 2.77954 5.09202C2.77954 5.13097 2.81734 5.16255 2.86398 5.16255Z"
          fill="white"
          stroke="#EF2D28"
          stroke-width="0.252383"
        />
        <path
          d="M3.3149 5.16255C3.36153 5.16255 3.39934 5.13097 3.39934 5.09202C3.39934 5.05306 3.36153 5.02148 3.3149 5.02148C3.26827 5.02148 3.23047 5.05306 3.23047 5.09202C3.23047 5.13097 3.26827 5.16255 3.3149 5.16255Z"
          fill="white"
          stroke="#EF2D28"
          stroke-width="0.252383"
        />
        <path
          fill-rule="evenodd"
          clip-rule="evenodd"
          d="M2.89185 4.90308H3.28693L3.08939 5.11534L2.89185 4.90308Z"
          fill="white"
          stroke="#EF2D28"
          stroke-width="0.252383"
        />
        <path
          d="M3.08915 5.1622C3.15133 5.1622 3.20173 5.1201 3.20173 5.06816C3.20173 5.01622 3.15133 4.97412 3.08915 4.97412C3.02697 4.97412 2.97656 5.01622 2.97656 5.06816C2.97656 5.1201 3.02697 5.1622 3.08915 5.1622Z"
          fill="white"
          stroke="#EF2D28"
          stroke-width="0.336514"
        />
        <path
          d="M3.23109 5.77319H2.6885C2.67082 5.77319 2.65649 5.78422 2.65649 5.79781V5.8903C2.65649 5.9039 2.67082 5.91492 2.6885 5.91492H3.23109C3.24877 5.91492 3.2631 5.9039 3.2631 5.8903V5.79781C3.2631 5.78422 3.24877 5.77319 3.23109 5.77319Z"
          fill="white"
          stroke="#EF2D28"
          stroke-width="0.225198"
        />
        <path
          fill-rule="evenodd"
          clip-rule="evenodd"
          d="M3.44766 5.65555C3.37472 5.65555 3.31592 5.71077 3.31592 5.77865V5.88577C3.31543 5.90161 3.31845 5.91738 3.32483 5.93217C3.3312 5.94696 3.34079 5.96047 3.35304 5.97192C3.36529 5.98337 3.37997 5.99253 3.39621 5.99887C3.41245 6.00522 3.42994 6.00862 3.44766 6.00887C3.46539 6.00862 3.48288 6.00522 3.49912 5.99887C3.51536 5.99253 3.53003 5.98337 3.54229 5.97192C3.55454 5.96047 3.56413 5.94696 3.5705 5.93217C3.57687 5.91738 3.5799 5.90161 3.57941 5.88577V5.77931C3.58 5.76342 3.57705 5.74757 3.57072 5.73271C3.5644 5.71785 3.55482 5.70426 3.54256 5.69274C3.5303 5.68122 3.51559 5.67199 3.4993 5.66561C3.483 5.65922 3.46545 5.6558 3.44766 5.65555ZM3.44766 5.70212C3.40375 5.70212 3.36877 5.74671 3.36877 5.80127V5.86315C3.36877 5.91771 3.40375 5.96163 3.44766 5.96163C3.49158 5.96163 3.52656 5.91771 3.52656 5.86315V5.80127C3.52656 5.74671 3.49158 5.70279 3.44766 5.70279V5.70212ZM2.76216 5.67884C2.71751 5.67884 2.68327 5.72275 2.68327 5.77798V5.88711C2.68327 5.94167 2.71825 5.98558 2.76216 5.98558C2.80608 5.98558 2.84106 5.94167 2.84106 5.88711V5.77731C2.84106 5.72209 2.80608 5.67817 2.76216 5.67817V5.67884ZM2.76216 5.63226C2.74444 5.63252 2.72695 5.63591 2.71071 5.64226C2.69447 5.6486 2.67979 5.65776 2.66754 5.66921C2.65529 5.68066 2.6457 5.69417 2.63933 5.70896C2.63295 5.72375 2.62993 5.73952 2.63042 5.75536V5.90973C2.62993 5.92557 2.63295 5.94134 2.63933 5.95613C2.6457 5.97091 2.65529 5.98442 2.66754 5.99587C2.67979 6.00732 2.69447 6.01648 2.71071 6.02283C2.72695 6.02917 2.74444 6.03257 2.76216 6.03283C2.83511 6.03283 2.89391 5.9776 2.89391 5.90973V5.75536C2.8945 5.73946 2.89155 5.72362 2.88522 5.70876C2.8789 5.69389 2.86932 5.6803 2.85706 5.66878C2.8448 5.65726 2.83009 5.64804 2.8138 5.64165C2.7975 5.63527 2.77995 5.63185 2.76216 5.63159V5.63226Z"
          fill="white"
          stroke="#EF2D28"
          stroke-width="0.225198"
        />
        <path
          fill-rule="evenodd"
          clip-rule="evenodd"
          d="M2.55074 5.72595C2.50682 5.72595 2.47184 5.76987 2.47184 5.82443V5.85038C2.47184 5.90495 2.50682 5.94886 2.55074 5.94886C2.5954 5.94886 2.63038 5.90495 2.63038 5.85038V5.82443C2.63038 5.76987 2.59465 5.72595 2.55074 5.72595ZM2.55074 5.67938C2.53302 5.67963 2.51553 5.68303 2.49928 5.68938C2.48304 5.69572 2.46837 5.70488 2.45612 5.71633C2.44386 5.72778 2.43427 5.74129 2.4279 5.75608C2.42153 5.77087 2.4185 5.78664 2.419 5.80248V5.87301C2.4185 5.88885 2.42153 5.90462 2.4279 5.9194C2.43427 5.93419 2.44386 5.9477 2.45612 5.95915C2.46837 5.9706 2.48304 5.97976 2.49928 5.98611C2.51553 5.99245 2.53302 5.99585 2.55074 5.99611C2.62368 5.99611 2.68322 5.94088 2.68322 5.87301V5.80248C2.68382 5.78653 2.68084 5.77063 2.67447 5.75572C2.6681 5.74081 2.65846 5.7272 2.64612 5.71567C2.63377 5.70414 2.61898 5.69493 2.6026 5.68858C2.58622 5.68224 2.56859 5.67888 2.55074 5.67871V5.67938Z"
          fill="white"
          stroke="#EF2D28"
          stroke-width="0.225198"
        />
        <path
          fill-rule="evenodd"
          clip-rule="evenodd"
          d="M2.23519 5.66095C2.15481 5.66095 2.09184 5.71003 2.09184 5.77101V5.89372C2.09184 5.95395 2.15615 6.00378 2.23519 6.00378C2.3129 6.00378 2.3772 5.9547 2.3772 5.89297V5.77101C2.3772 5.71003 2.3129 5.66095 2.23519 5.66095ZM2.23519 5.6089C2.20329 5.60909 2.17178 5.61279 2.14248 5.61979C2.11318 5.62679 2.08667 5.63695 2.06449 5.64968C2.04231 5.6624 2.0249 5.67745 2.01326 5.69393C2.00163 5.71042 1.99601 5.72803 1.99672 5.74573V5.91826C1.99565 5.93602 2.00096 5.95373 2.01235 5.97034C2.02373 5.98695 2.04097 6.00214 2.06304 6.01501C2.08511 6.02789 2.11159 6.03819 2.14091 6.04533C2.17024 6.05247 2.20183 6.05629 2.23385 6.05658C2.36649 6.05658 2.47232 5.99485 2.47232 5.91826V5.74573C2.47322 5.72803 2.46777 5.7104 2.4563 5.69388C2.44483 5.67735 2.42757 5.66225 2.40551 5.64946C2.38346 5.63666 2.35704 5.62642 2.32781 5.61933C2.29857 5.61224 2.26709 5.60844 2.23519 5.60815V5.6089Z"
          fill="white"
          stroke="#EF2D28"
          stroke-width="0.239555"
        />
        <path
          fill-rule="evenodd"
          clip-rule="evenodd"
          d="M3.9493 5.68415C3.86892 5.68415 3.80595 5.73323 3.80595 5.79421V5.91691C3.80595 5.97715 3.87026 6.02697 3.9493 6.02697C4.02701 6.02697 4.09131 5.97789 4.09131 5.91617V5.79421C4.09131 5.73323 4.02701 5.68415 3.9493 5.68415ZM3.9493 5.63209C3.9174 5.63228 3.88589 5.63599 3.85659 5.64299C3.82729 5.64999 3.80078 5.66014 3.7786 5.67287C3.75642 5.6856 3.73901 5.70064 3.72737 5.71713C3.71574 5.73362 3.71012 5.75122 3.71083 5.76892V5.94145C3.70976 5.95921 3.71507 5.97692 3.72646 5.99353C3.73784 6.01014 3.75508 6.02533 3.77715 6.03821C3.79923 6.05108 3.8257 6.06139 3.85503 6.06852C3.88435 6.07566 3.91595 6.07948 3.94796 6.07977C4.0806 6.07977 4.18644 6.01805 4.18644 5.94145V5.76892C4.18733 5.75122 4.18188 5.7336 4.17041 5.71707C4.15894 5.70054 4.14168 5.68545 4.11962 5.67265C4.09757 5.65985 4.07116 5.64961 4.04192 5.64252C4.01268 5.63543 3.9812 5.63164 3.9493 5.63135V5.63209Z"
          fill="white"
          stroke="#EF2D28"
          stroke-width="0.239555"
        />
        <path
          d="M3.7997 5.77319H3.51761C3.50815 5.77319 3.50049 5.78422 3.50049 5.79781V5.8903C3.50049 5.9039 3.50815 5.91492 3.51761 5.91492H3.7997C3.80915 5.91492 3.81682 5.9039 3.81682 5.8903V5.79781C3.81682 5.78422 3.80915 5.77319 3.7997 5.77319Z"
          fill="white"
          stroke="#EF2D28"
          stroke-width="0.225198"
        />
        <path
          d="M3.38512 5.75H3.21988C3.21454 5.75 3.21021 5.7646 3.21021 5.7826V5.90637C3.21021 5.92438 3.21454 5.93897 3.21988 5.93897H3.38512C3.39046 5.93897 3.39479 5.92438 3.39479 5.90637V5.7826C3.39479 5.7646 3.39046 5.75 3.38512 5.75Z"
          fill="white"
          stroke="#EF2D28"
          stroke-width="0.225198"
        />
        <path
          d="M2.515 5.75H2.34976C2.34442 5.75 2.34009 5.7646 2.34009 5.7826V5.90637C2.34009 5.92438 2.34442 5.93897 2.34976 5.93897H2.515C2.52034 5.93897 2.52467 5.92438 2.52467 5.90637V5.7826C2.52467 5.7646 2.52034 5.75 2.515 5.75Z"
          fill="white"
          stroke="#EF2D28"
          stroke-width="0.225198"
        />
        <path
          d="M2.10934 5.72607H1.77887C1.76819 5.72607 1.75952 5.74425 1.75952 5.76666V5.92104C1.75952 5.94345 1.76819 5.96163 1.77887 5.96163H2.10934C2.12003 5.96163 2.12869 5.94345 2.12869 5.92104V5.76666C2.12869 5.74425 2.12003 5.72607 2.10934 5.72607Z"
          fill="white"
          stroke="#EF2D28"
          stroke-width="0.225198"
        />
        <path
          d="M4.37871 5.75H4.07281C4.06253 5.75 4.0542 5.76817 4.0542 5.79059V5.94496C4.0542 5.96738 4.06253 5.98555 4.07281 5.98555H4.37871C4.38899 5.98555 4.39732 5.96738 4.39732 5.94496V5.79059C4.39732 5.76817 4.38899 5.75 4.37871 5.75Z"
          fill="white"
          stroke="#EF2D28"
          stroke-width="0.225198"
        />
      </g>
</svg>