<svg width="57" height="56" viewBox="0 0 57 56" fill="none" xmlns="http://www.w3.org/2000/svg">
<g clip-path="url(#clip0_6862_9672)">
<circle cx="28.5" cy="28" r="28" fill="#E9F6F8"/>
<path d="M23.3711 11.7512C24.2211 10.4512 25.8262 9.86701 27.313 10.3164L36.2476 13.017C37.3032 13.3361 38.1466 14.134 38.5238 15.1702L47.4279 39.6341C48.089 41.4505 47.1525 43.459 45.3361 44.1201L31.2932 49.2313C29.4768 49.8924 27.4683 48.9558 26.8072 47.1394L17.9031 22.6756C17.5259 21.6393 17.6592 20.4859 18.2627 19.5629L23.3711 11.7512Z" fill="white"/>
<path d="M45.0965 43.4619C46.5496 42.9331 47.2983 41.3271 46.7696 39.874L37.8652 15.4094C37.6012 14.6845 37.0526 14.1052 36.354 13.8007L36.0454 13.6875L27.1113 10.9868C25.9219 10.6273 24.6373 11.0948 23.9572 12.1348L18.8493 19.9464C18.3665 20.6846 18.2589 21.6069 18.5605 22.4358L27.4648 46.9004C27.9938 48.3533 29.6013 49.1017 31.0544 48.5729L45.0965 43.4619ZM31.5331 49.8881C29.3535 50.6814 26.943 49.5586 26.1496 47.3791L17.2452 22.9145C16.7928 21.6711 16.9531 20.2873 17.6773 19.1799L22.7853 11.3683C23.8054 9.80834 25.7322 9.10703 27.5163 9.64631L36.4505 12.347L36.6846 12.4255C37.841 12.8507 38.7577 13.7646 39.1821 14.9301L48.0865 39.3947C48.8796 41.5743 47.7548 43.9839 45.5752 44.7772L31.5331 49.8881Z" fill="#0C9AB0"/>
<path d="M39.0066 29.3308L39.1451 29.2968C39.467 29.2492 39.789 29.4319 39.9046 29.7496C40.0203 30.0673 39.8911 30.4142 39.6139 30.5847L39.4858 30.6477L27.1138 35.1507C26.7506 35.2829 26.348 35.0952 26.2158 34.7319C26.0835 34.3687 26.2713 33.9661 26.6345 33.8339L39.0066 29.3308Z" fill="#91D2DC"/>
<path d="M40.508 33.4552L40.6466 33.4212C40.9685 33.3736 41.2905 33.5563 41.4061 33.874C41.5218 34.1917 41.3926 34.5386 41.1154 34.7091L40.9873 34.7721L28.6153 39.2751C28.252 39.4073 27.8495 39.2196 27.7173 38.8563C27.585 38.493 27.7727 38.0905 28.136 37.9583L40.508 33.4552Z" fill="#91D2DC"/>
<path d="M42.0096 37.5793L42.1481 37.5452C42.4701 37.4977 42.792 37.6803 42.9077 37.998C43.0233 38.3158 42.8941 38.6626 42.6169 38.8332L42.4889 38.8961L30.1169 43.3992C29.7536 43.5314 29.351 43.3437 29.2188 42.9804C29.0866 42.6171 29.2743 42.2145 29.6376 42.0823L42.0096 37.5793Z" fill="#91D2DC"/>
<path d="M24.0032 10.6772C25.3894 9.97644 27.0716 10.2731 28.1345 11.4056L31.1113 14.5776L34.6821 18.3826C35.4367 19.1867 35.7683 20.2995 35.5768 21.3855L30.9631 47.5507C30.6275 49.4544 28.8121 50.7254 26.9085 50.3898L11.8219 47.7296C9.91824 47.3939 8.64715 45.5786 8.98282 43.675L13.5965 17.5097C13.788 16.4237 14.4801 15.4915 15.4642 14.994L24.0032 10.6772Z" fill="white"/>
<path d="M27.0302 49.6996C28.5531 49.9682 30.0046 48.9519 30.2731 47.429L34.8869 21.263C35.0206 20.5032 34.8352 19.7272 34.3825 19.1142L34.1719 18.8619L27.6242 11.8853C26.7739 10.9792 25.4277 10.7418 24.3187 11.3024L15.7798 15.6189L15.4956 15.784C14.8605 16.2051 14.4209 16.8709 14.2867 17.6307L9.67293 43.7966C9.4044 45.3195 10.4207 46.7709 11.9436 47.0395L27.0302 49.6996ZM11.7003 48.4195C9.41592 48.0168 7.89006 45.8376 8.29285 43.5532L12.9066 17.3873C13.1222 16.1658 13.8662 15.1065 14.9312 14.4871L15.1481 14.3691L23.6871 10.0527C25.3504 9.21178 27.3698 9.56784 28.6452 10.9269L35.1929 17.9036L35.3564 18.0886C36.1453 19.0349 36.4821 20.2848 36.2669 21.5064L31.6532 47.6723C31.2504 49.9567 29.0712 51.4825 26.7869 51.0797L11.7003 48.4195Z" fill="#0C9AB0"/>
<path d="M26.0707 29.4962C26.112 29.2618 26.1038 29.0191 26.0439 28.7817C25.984 28.5443 25.8728 28.315 25.7151 28.1077C25.5569 27.9 25.3532 27.717 25.1165 27.5752C24.9391 27.4691 24.7459 27.3869 24.5434 27.3319L24.3379 27.287L21.8655 26.851C21.3026 26.7518 20.7355 26.8655 20.2907 27.1512C19.8485 27.4354 19.5647 27.8635 19.4816 28.3344L19.4589 28.5126C19.4307 28.9295 19.5581 29.3584 19.8369 29.7245C20.1572 30.1451 20.6516 30.4443 21.2144 30.5436L24.2371 31.0765C25.1313 31.2344 25.9416 31.715 26.484 32.4272C27.0281 33.1416 27.2591 34.0348 27.105 34.9089C26.9509 35.7826 26.4281 36.5416 25.6729 37.0269C24.9197 37.5106 23.9939 37.685 23.0996 37.5276L22.1403 37.3584L21.9934 38.1915C21.9263 38.5722 21.5624 38.827 21.1817 38.7599C20.801 38.6927 20.5462 38.3289 20.6133 37.9482L20.7602 37.1151L19.8026 36.9462C18.9081 36.7885 18.0966 36.3077 17.554 35.5953C17.0104 34.881 16.7787 33.989 16.9328 33.1153C16.9999 32.7345 17.3638 32.4798 17.7445 32.5469C18.1252 32.614 18.38 32.9779 18.3129 33.3586C18.2298 33.8298 18.3495 34.3303 18.6682 34.7488C18.9884 35.1691 19.483 35.4686 20.0456 35.5678L23.3427 36.1492C23.9051 36.2481 24.471 36.1356 24.9155 35.8504C25.3581 35.5661 25.6418 35.1367 25.7249 34.6655C25.808 34.1944 25.6883 33.6939 25.3696 33.2754C25.0495 32.8552 24.5561 32.556 23.9938 32.4566L20.9711 31.9236C20.0769 31.766 19.2667 31.285 18.7242 30.573C18.248 29.9477 18.0111 29.1854 18.0628 28.4191L18.1032 28.0913C18.2574 27.2173 18.7797 26.4586 19.5353 25.9733C20.2887 25.4894 21.2141 25.3149 22.1086 25.4726L22.7919 25.5931L22.9388 24.76C23.0059 24.3793 23.3698 24.1245 23.7505 24.1916C24.1312 24.2588 24.386 24.6226 24.3188 25.0034L24.1719 25.8365L24.5809 25.9086L24.9098 25.9822C25.2352 26.0705 25.5479 26.2017 25.8367 26.3747C26.2217 26.6053 26.5588 26.9059 26.8278 27.2592C27.0968 27.6125 27.2929 28.0133 27.4006 28.4396C27.5081 28.866 27.5251 29.3078 27.449 29.7392C27.382 30.1197 27.0194 30.3745 26.639 30.3079C26.2583 30.2408 26.0035 29.8769 26.0707 29.4962Z" fill="#0C9AB0"/>
<path d="M25.046 42.5509L25.183 42.5906C25.4854 42.7105 25.6731 43.0297 25.6144 43.3626C25.5557 43.6954 25.2701 43.9312 24.945 43.9404L24.8027 43.9309L16.0106 42.3807C15.6298 42.3135 15.3751 41.9497 15.4422 41.5689C15.5093 41.1882 15.8732 40.9334 16.2539 41.0006L25.046 42.5509Z" fill="#91D2DC"/>
<path d="M28.9217 20.5705L29.0587 20.6103C29.3611 20.7302 29.5488 21.0494 29.4901 21.3823C29.4314 21.7151 29.1458 21.9508 28.8207 21.9601L28.6784 21.9506L19.8863 20.4003C19.5055 20.3332 19.2508 19.9694 19.3179 19.5886C19.385 19.2079 19.7489 18.9531 20.1296 19.0203L28.9217 20.5705Z" fill="#91D2DC"/>
<path d="M27.8962 9.83571L28.1383 8.46236C28.3387 7.32594 27.5808 6.2422 26.4446 6.04139C25.3079 5.84095 24.2238 6.60008 24.0233 7.73678L23.3776 11.399L23.3506 11.6112C23.278 12.5971 23.9117 13.5034 24.8627 13.7728L25.073 13.8203L25.2086 13.8581C25.5115 13.9777 25.6984 14.2985 25.6397 14.6317C25.5807 14.9646 25.2956 15.2007 24.9703 15.2096L24.8299 15.1987L24.4811 15.1199C22.8923 14.6705 21.8331 13.1574 21.954 11.5107L21.9975 11.1557L22.6433 7.49344C22.978 5.59529 24.7898 4.32661 26.688 4.66131C28.5856 4.99639 29.853 6.80784 29.5184 8.70571L29.2762 10.0791C29.2089 10.4596 28.8454 10.7128 28.4648 10.6457C28.0842 10.5786 27.8293 10.2163 27.8962 9.83571Z" fill="#EF4550"/>
<path d="M31.1633 12.2106L27.1522 10.9988L27.354 10.3289L27.5573 9.65837L31.5668 10.8707L31.1633 12.2106Z" fill="#0C9AB0"/>
</g>
<defs>
<clipPath id="clip0_6862_9672">
<rect width="56" height="56" fill="white" transform="translate(0.5)"/>
</clipPath>
</defs>
</svg>
