<svg viewBox="0 0 24 24" fill="none" xmlns="http://www.w3.org/2000/svg">
  <path
    fill-rule="evenodd"
    clip-rule="evenodd"
    d="M0 3H24V21H0V3Z"
    fill="#006C35"
  />
  <path
    fill-rule="evenodd"
    clip-rule="evenodd"
    d="M5.30273 8.10117C5.27461 8.52304 5.23242 9.26132 5.59453 9.33867C6.02695 9.38085 5.78789 8.60742 5.94609 8.46679C5.97422 8.39648 6.02695 8.39648 6.03047 8.48437V9.14179C6.03047 9.35273 6.17109 9.41601 6.27656 9.4582C6.38906 9.45117 6.46641 9.4582 6.50859 9.56367L6.56484 10.6992C6.56484 10.6992 6.825 10.7766 6.83906 10.0629C6.84961 9.64101 6.75469 9.29296 6.81094 9.2121C6.81094 9.13124 6.91641 9.12773 6.98672 9.1664C7.09922 9.24374 7.14844 9.34218 7.32422 9.30702C7.59141 9.22968 7.75313 9.0996 7.75664 8.8957C7.75136 8.69531 7.70967 8.49756 7.63359 8.3121C7.64766 8.27695 7.58438 8.18202 7.59844 8.14687C7.64414 8.22421 7.71797 8.21718 7.73203 8.14687C7.68633 7.99921 7.61602 7.85507 7.50352 7.79531C7.40859 7.71093 7.26797 7.72499 7.22227 7.90077C7.19414 8.10116 7.29258 8.33671 7.43672 8.53359C7.46836 8.60741 7.51055 8.73398 7.49297 8.84648C7.41563 8.89218 7.33828 8.87109 7.27148 8.80429C7.27148 8.80429 7.06055 8.64609 7.06055 8.60742C7.1168 8.24882 7.07109 8.20663 7.03945 8.10468C7.01836 7.96757 6.95156 7.92187 6.89883 7.83046C6.84609 7.77421 6.77578 7.77421 6.74062 7.83046C6.6457 7.99218 6.69141 8.34023 6.7582 8.49843C6.80742 8.64257 6.88125 8.73398 6.84609 8.73398C6.81797 8.81484 6.7582 8.79374 6.7125 8.69882C6.66105 8.49906 6.63623 8.29337 6.63867 8.0871C6.62109 7.92538 6.6 7.58085 6.49102 7.48945C6.42773 7.40507 6.33281 7.44726 6.29766 7.5246C6.28837 7.68166 6.2919 7.83921 6.3082 7.9957C6.37852 8.25585 6.40312 8.48788 6.43828 8.75156C6.44883 9.10663 6.23437 8.90624 6.24492 8.72695C6.29104 8.50154 6.28744 8.26879 6.23437 8.04492C6.19922 7.95351 6.16055 7.93242 6.07266 7.94648C6.00586 7.94648 5.83359 8.13281 5.78437 8.44921C5.78437 8.44921 5.74219 8.61093 5.72461 8.75507C5.7 8.91679 5.59453 9.03632 5.51719 8.73398C5.45391 8.51249 5.41172 7.9746 5.30625 8.10117H5.30273Z"
    fill="white"
  />
  <path
    fill-rule="evenodd"
    clip-rule="evenodd"
    d="M6.48047 9.82734L5.35547 10.3687C5.36602 10.1121 5.88633 9.65156 6.24492 9.64804C6.47344 9.65156 6.41719 9.73593 6.47695 9.82734H6.48047Z"
    fill="white"
  />
  <path
    fill-rule="evenodd"
    clip-rule="evenodd"
    d="M6.28008 10.1789C5.68945 11.7082 7.66875 11.9227 7.89023 10.2422C7.91132 10.1719 7.9957 10.1051 8.00976 10.2176C7.96406 11.7398 6.47695 11.8418 6.22383 11.3637C6.16428 11.1992 6.13452 11.0253 6.13594 10.8504C6.10078 10.5516 5.94258 10.6676 5.91797 10.9629C5.89336 11.1281 5.90039 11.1738 5.90039 11.332C5.97773 12.5344 7.89374 12.0176 8.20663 11.0262C8.37187 10.4777 8.17851 10.0734 8.2664 10.0734C8.45624 10.2773 8.72343 10.1016 8.7832 10.0312C8.8078 9.99609 8.87109 9.97148 8.91327 10.0172C9.06093 10.1227 9.32108 10.0734 9.37733 9.88711C9.40897 9.70078 9.43358 9.51093 9.44062 9.31757C9.31757 9.35273 9.22968 9.37734 9.21913 9.43007L9.19452 9.59179C9.18398 9.64453 9.08202 9.64453 9.07499 9.57773C9.02929 9.36679 8.83945 9.34218 8.72343 9.66562C8.6496 9.7289 8.50898 9.74297 8.49491 9.64804C8.51249 9.43007 8.4246 9.40195 8.24882 9.5039L8.08007 8.23124C8.15038 8.23124 8.2207 8.28398 8.28749 8.1996C8.21718 7.97108 8.05898 7.50702 7.97109 7.47186C7.93242 7.42265 7.89726 7.45429 7.84101 7.46835C7.7496 7.49647 7.66523 7.57382 7.69335 7.72851C7.79882 8.38945 7.86914 8.89218 7.97812 9.55664C7.9957 9.63047 7.93242 9.73242 7.84804 9.72187C7.70742 9.62695 7.67226 9.43359 7.42617 9.44062C7.25039 9.44062 7.05351 9.63398 7.0289 9.81679C6.99726 9.96445 6.98672 10.1227 7.0289 10.2492C7.15195 10.3969 7.29961 10.3828 7.42968 10.3512C7.53515 10.3055 7.62304 10.2 7.66171 10.2246C7.68632 10.2562 7.66523 10.6078 7.15898 10.875C6.85312 11.0156 6.60703 11.0438 6.47695 10.7941C6.39609 10.6359 6.48398 10.0418 6.28008 10.1789V10.1789Z"
    fill="white"
  />
  <path
    fill-rule="evenodd"
    clip-rule="evenodd"
    d="M8.80078 8.625C8.9168 8.58282 9.4793 7.93594 9.4793 7.93594L9.39492 7.86563C9.36328 7.84102 9.3668 7.8129 9.39492 7.78829C9.53555 7.70391 9.48984 7.52813 9.41953 7.44375C9.3718 7.42049 9.31929 7.40869 9.26618 7.4093C9.21308 7.40991 9.16086 7.42291 9.11367 7.44727C9.01523 7.54219 8.99414 7.69336 9.07148 7.78477C9.14531 7.81993 9.21914 7.89727 9.16992 7.93946C8.93789 8.18555 8.30859 8.61094 8.38242 8.625C8.39648 8.6461 8.78672 8.6461 8.79726 8.625H8.80078ZM5.39062 10.9102C5.17968 11.2477 5.1621 11.7504 5.27812 11.9016C5.3414 11.9719 5.44335 12.0035 5.51718 11.9789C5.65077 11.9227 5.71054 11.652 5.6789 11.557C5.6332 11.4867 5.59804 11.4762 5.55234 11.5324C5.46093 11.7223 5.42226 11.5922 5.41171 11.4867C5.40164 11.3081 5.41107 11.1289 5.43984 10.9523C5.46445 10.8047 5.43984 10.8469 5.39062 10.9102V10.9102ZM14.4293 10.3723C14.2254 9.9293 13.9406 9.49336 13.8527 9.32813C13.5788 8.89502 13.2879 8.47282 12.9809 8.0625C12.7629 7.80235 13.3395 8.17149 12.9106 7.65118L12.5977 7.3875C12.5273 7.33829 12.3586 7.24688 12.3305 7.39454C12.3164 7.52813 12.3234 7.59844 12.3445 7.70743C12.3621 7.77774 12.4676 7.90079 12.5203 7.9711C13.2411 8.92575 13.8741 9.94356 14.4117 11.0121C14.5031 10.9664 14.482 10.4461 14.4293 10.3723V10.3723Z"
    fill="white"
  />
  <path
    fill-rule="evenodd"
    clip-rule="evenodd"
    d="M13.5328 11.8418C13.4906 11.8875 13.6313 12.0809 13.8141 12.0809C14.1164 12.0457 14.3836 11.8769 14.6297 11.4269C14.7297 11.2772 14.7935 11.1063 14.816 10.9277C14.8458 10.0743 14.7774 9.22024 14.6121 8.38241C14.6016 8.3121 14.6121 8.22773 14.6191 8.20663C14.6402 8.18202 14.707 8.20663 14.7422 8.14687C14.7949 8.09413 14.6016 7.65468 14.4961 7.48944C14.4609 7.4121 14.4434 7.36288 14.3801 7.49648C14.3037 7.64389 14.2674 7.80874 14.2746 7.9746C14.4188 8.97655 14.4645 9.85194 14.5559 10.8539C14.5664 10.9523 14.5523 11.093 14.4856 11.1492C14.2203 11.4446 13.8956 11.6806 13.5328 11.8418V11.8418ZM17.6285 11.8383C17.4106 11.9648 17.4106 12.109 17.5863 12.1125C17.8887 12.0773 18.2473 12.0527 18.4934 11.6801C18.5803 11.5045 18.6305 11.3132 18.641 11.1176C18.6853 10.2773 18.6298 9.43467 18.4758 8.60741C18.4688 8.5371 18.4371 8.37187 18.4477 8.35077C18.4688 8.30155 18.5672 8.35429 18.6024 8.29804C18.6516 8.2453 18.3457 7.85155 18.2367 7.6828C18.2016 7.60546 18.1875 7.55624 18.1207 7.68983C18.0499 7.8386 18.0278 8.0059 18.0574 8.16796C18.2191 9.2578 18.3387 10.0734 18.3633 11.0367C18.3492 11.1281 18.3457 11.1773 18.3035 11.2934C18.2086 11.4129 18.1031 11.5676 18.0047 11.6414C17.9063 11.7117 17.6953 11.782 17.6285 11.8383V11.8383Z"
    fill="white"
  />
  <path
    fill-rule="evenodd"
    clip-rule="evenodd"
    d="M17.7903 10.8644C17.7903 10.6078 17.7938 10.3898 17.7867 10.1965C17.7845 10.0327 17.7486 9.87117 17.6813 9.72186C17.618 9.57772 17.6567 9.46171 17.625 9.30702C17.5969 9.15233 17.6039 8.9203 17.5617 8.74101C17.5477 8.67069 17.5125 8.44218 17.5231 8.41757C17.5406 8.36835 17.6074 8.41757 17.6426 8.36132C17.6918 8.30859 17.4668 7.72851 17.3543 7.56327C17.3156 7.48945 17.2383 7.51406 17.1504 7.63359C17.0625 7.71445 17.0942 7.89374 17.1293 8.06601C17.3438 9.20155 17.509 10.2316 17.4738 11.3109C17.4598 11.4023 17.7903 11.0367 17.7903 10.8644V10.8644ZM16.1836 9.45819C16.0465 9.45116 15.7617 9.18749 15.6774 9.03632C15.6635 8.99937 15.6577 8.95993 15.6601 8.92057C15.6625 8.8812 15.6732 8.84278 15.6914 8.8078C15.7442 8.77265 15.8215 8.73749 15.8813 8.77265C15.8813 8.77265 15.941 8.85702 15.9305 8.86757C16.0008 8.90272 16.036 8.88515 16.043 8.85351C16.0465 8.80077 16.0219 8.76913 16.0219 8.71288C16.0535 8.55116 16.2328 8.52655 16.3031 8.62851C16.3524 8.69179 16.3735 8.82187 16.377 8.90976C16.377 8.95546 16.3067 8.90273 16.261 8.90976C16.2223 8.92382 16.2117 8.97304 16.2082 9.01522C16.2012 9.13124 16.1871 9.31757 16.1836 9.45468V9.45819ZM13.6594 11.1457C13.6945 10.8012 13.6453 10.1859 13.6418 9.98202C13.623 9.45762 13.5796 8.93439 13.5117 8.41405C13.4695 8.11874 13.6313 8.44569 13.6102 8.27343C13.5574 7.98163 13.3957 7.78124 13.2023 7.51757C13.1426 7.42968 13.1426 7.4121 13.0477 7.53867C12.9422 7.77421 13.0336 7.93945 13.0617 8.12577C13.1988 8.73046 13.2797 9.28593 13.3184 9.83788C13.3588 10.4112 13.3635 10.9866 13.3324 11.5605C13.4379 11.564 13.5996 11.3953 13.6594 11.1457Z"
    fill="white"
  />
  <path
    fill-rule="evenodd"
    clip-rule="evenodd"
    d="M18.2578 10.5937C18.0152 10.1859 17.6531 9.74998 17.5547 9.58475C17.2287 9.1295 16.8863 8.68624 16.5281 8.25585C16.2293 7.93944 16.6688 8.20311 16.4719 7.95702C16.3066 7.77772 16.2609 7.71796 16.1168 7.60897C16.0465 7.56327 16.0043 7.47538 15.9762 7.62655C15.965 7.75749 15.9626 7.88904 15.9691 8.0203C15.9691 8.08006 16.0324 8.19608 16.0887 8.26639C16.8164 9.16287 17.6144 10.0769 18.2543 11.2265C18.3457 11.1808 18.3141 10.664 18.2543 10.5937H18.2578Z"
    fill="white"
  />
  <path
    fill-rule="evenodd"
    clip-rule="evenodd"
    d="M7.31016 9.84492C7.29258 9.87656 7.25391 9.91523 7.26797 9.9539C7.29258 9.98906 7.31719 9.99961 7.35938 9.99961C7.39805 9.99961 7.45431 10.0102 7.46485 9.98906C7.48595 9.96445 7.50001 9.91875 7.48595 9.87305C7.44376 9.76758 7.33126 9.80977 7.31016 9.84492V9.84492Z"
    fill="#1BA400"
  />
  <path
    fill-rule="evenodd"
    clip-rule="evenodd"
    d="M15.4524 15.7441C15.7758 15.7582 15.9867 15.7617 16.2715 15.7934L16.609 15.7582C16.9816 15.723 16.9957 16.2891 16.9957 16.2891C16.9957 16.623 16.8656 16.6406 16.7004 16.6758C16.6055 16.6898 16.5598 16.6195 16.507 16.5492C16.4275 16.5747 16.3428 16.5795 16.2609 16.5633C16.1238 16.5563 15.9902 16.5563 15.8566 16.5457C15.716 16.5352 15.6387 16.5633 15.4945 16.5492C15.4664 16.5949 15.4242 16.6582 15.3399 16.6406C15.2695 16.6301 15.1816 16.4297 15.2063 16.2715C15.259 16.159 15.2414 16.1977 15.2414 16.1484C13.9195 16.1133 12.5871 16.0535 11.2934 16.0711C10.2809 16.0746 9.28243 16.1168 8.28047 16.159C7.7461 16.152 7.33829 16.0676 7.05704 15.6563C7.08516 15.6563 8.4211 15.7301 8.81133 15.7055C9.53204 15.6984 10.193 15.6387 10.9277 15.6176C12.3762 15.6422 13.8141 15.6422 15.2625 15.7441C15.1219 15.6492 15.1219 15.4277 15.3328 15.3715C15.3504 15.3574 15.3609 15.4805 15.3926 15.477C15.5649 15.4664 15.4875 15.6984 15.4524 15.7441V15.7441ZM9.63048 7.75664C9.41251 8.38242 9.75704 9.07149 9.9961 9.00469C10.1719 9.075 10.2774 8.74453 10.3477 8.38594C10.4004 8.28399 10.4356 8.27344 10.4602 8.32617C10.4531 8.8043 10.4953 8.91328 10.6184 9.05742C10.8926 9.26836 11.1211 9.08555 11.1387 9.06797L11.3496 8.85352C11.3988 8.80078 11.4621 8.80078 11.5289 8.84297C11.5957 8.90274 11.5852 9.00469 11.7258 9.075C11.8453 9.12422 12.0949 9.08906 12.1547 8.98711C12.232 8.85 12.2531 8.8043 12.2883 8.75508C12.3445 8.68125 12.4395 8.71289 12.4395 8.7375C12.4289 8.77969 12.3727 8.81836 12.4113 8.89571C12.4816 8.94492 12.4957 8.91328 12.5344 8.90274C12.675 8.83242 12.7805 8.53008 12.7805 8.53008C12.784 8.41758 12.7207 8.42461 12.6785 8.45274L12.5695 8.52656C12.4992 8.53711 12.3691 8.58281 12.3024 8.48086C12.2356 8.36133 12.2356 8.18906 12.1863 8.06602C12.1863 8.05899 12.0949 7.87266 12.1793 7.86211C12.2215 7.86914 12.3094 7.89375 12.3234 7.81992C12.3656 7.7461 12.232 7.53867 12.1371 7.43321C12.0563 7.34531 11.9438 7.33477 11.8348 7.42617C11.7574 7.49649 11.768 7.57383 11.7539 7.64766C11.7406 7.70057 11.74 7.75588 11.7522 7.80906C11.7644 7.86223 11.7891 7.91175 11.8242 7.95352C11.9016 8.10117 12.0387 8.29453 11.993 8.56875C11.993 8.56875 11.9121 8.69531 11.7715 8.67774C11.7117 8.66719 11.6168 8.64258 11.5676 8.26289C11.5289 7.98164 11.5746 7.58086 11.4551 7.39453C11.4094 7.27852 11.3777 7.16953 11.2723 7.36289C11.2441 7.44024 11.1211 7.55625 11.209 7.7918C11.2922 8.00406 11.3165 8.23484 11.2793 8.45977C11.2266 8.53711 11.216 8.56172 11.1492 8.63555C11.0578 8.74102 10.9559 8.71289 10.8785 8.67422C10.8082 8.62852 10.752 8.60391 10.7168 8.44571C10.7238 8.19961 10.7379 7.79531 10.6922 7.71094C10.6254 7.57735 10.5164 7.62656 10.4707 7.66875C10.2616 7.90108 10.1215 8.18723 10.0664 8.49492C10.0031 8.69883 9.93633 8.63906 9.89063 8.55821C9.77813 8.45274 9.76758 7.61953 9.63048 7.75664V7.75664Z"
    fill="white"
  />
  <path
    fillRule="evenodd"
    clip-rule="evenodd"
    d="M10.2914 9.12072C10.3934 9.05041 10.3476 9.00119 10.4953 9.14884C10.6859 9.48606 10.7965 9.86252 10.8187 10.2492C10.8117 10.3406 10.875 10.3969 10.9066 10.3758C10.9207 10.1649 11.4375 9.86955 11.9121 9.82736C11.9824 9.80978 11.9473 9.67267 11.9578 9.60236C11.9297 9.33869 12.1055 9.09962 12.3516 9.08205C12.6891 9.13127 12.8016 9.31056 12.8086 9.58127C12.7699 10.1086 12.2215 10.1965 11.9156 10.2387C11.8699 10.2563 11.8488 10.2774 11.9156 10.302L13.2023 10.309L13.2691 10.3442C13.2762 10.3793 13.248 10.3512 13.1988 10.4356C13.128 10.5599 13.0837 10.6976 13.0687 10.8399C12.6855 10.9664 12.2883 11.0156 11.8875 11.0684C11.7469 11.1387 11.6766 11.2336 11.7047 11.3391C11.7539 11.4551 12.0633 11.5746 12.0633 11.5781C12.123 11.6133 12.1898 11.7012 12.0457 11.8805C11.4199 11.8524 10.9312 11.5852 10.7625 11.209C10.7133 11.1703 10.657 11.209 10.6219 11.2582C10.3758 11.5746 10.1367 11.8559 9.71835 12.0106C9.47226 12.0739 9.21562 11.9719 9.09609 11.8102C9.01523 11.7153 9.01874 11.6133 8.99062 11.5922C8.85351 11.652 7.69335 12.1442 7.84101 11.9121C8.12226 11.6133 8.61445 11.3883 9.04335 11.093C9.07499 10.991 9.13124 10.6535 9.29999 10.5446C9.31054 10.5446 9.27538 10.7414 9.2789 10.8258C9.2789 10.8961 9.27187 10.9207 9.28593 10.9031C9.31757 10.8856 9.83788 10.4742 9.88359 10.3477C9.93281 10.2774 9.89413 10.0946 9.89413 10.0875C9.7957 9.83439 9.65859 9.8133 9.60937 9.68674C9.56366 9.5215 9.58476 9.33166 9.67968 9.27541C9.76406 9.20158 9.86249 9.20861 9.95741 9.29298C10.0629 9.38791 10.1543 9.57424 10.1824 9.71135C10.1648 9.76408 10.0418 9.67619 10.0066 9.7008C10.0743 9.77856 10.1193 9.87342 10.1367 9.97502C10.207 10.2633 10.1859 10.3758 10.1156 10.5621C9.88359 11.0508 9.58827 11.1949 9.32812 11.3778C9.32109 11.3778 9.31757 11.5008 9.41249 11.5676C9.44765 11.6028 9.58476 11.6203 9.74296 11.5676C10.0809 11.3799 10.3542 11.0943 10.5269 10.7485C10.5568 10.4853 10.528 10.2187 10.4426 9.96799C10.3406 9.73244 10.2211 9.39845 10.2211 9.39142C10.2176 9.24377 10.2281 9.19455 10.2914 9.12072V9.12072ZM6.92343 7.76368C7.07109 7.834 7.35234 7.80236 7.33827 7.56329L7.33124 7.45431C7.30312 7.38399 7.21874 7.40157 7.20116 7.47189C7.19413 7.49649 7.21171 7.53517 7.19062 7.54571C7.17655 7.55978 7.13085 7.55274 7.13085 7.48595C7.13085 7.46485 7.11679 7.44376 7.10624 7.4297C7.09921 7.42267 7.09218 7.42267 7.0746 7.42267C7.05351 7.42267 7.05351 7.42618 7.04296 7.44376C7.03945 7.46134 7.03241 7.47892 7.03241 7.50001C7.03241 7.52462 7.01835 7.53165 7.00429 7.53517C6.9832 7.53517 6.98671 7.53517 6.96913 7.52814C6.9621 7.51759 6.95155 7.51407 6.95155 7.49298L6.94101 7.43673C6.93398 7.42618 6.91991 7.41915 6.90585 7.41563C6.82499 7.41563 6.81796 7.51056 6.82499 7.54571C6.81796 7.55274 6.81445 7.71798 6.92343 7.76368V7.76368Z"
    fill="white"
  />
  <path
    fill-rule="evenodd"
    clip-rule="evenodd"
    d="M11.2652 9.59883C11.4129 9.66914 11.768 9.63047 11.6801 9.40196L11.673 9.28946C11.6414 9.21914 11.5605 9.23672 11.543 9.31055C11.5359 9.33164 11.5535 9.37032 11.5289 9.38086C11.5183 9.39493 11.4691 9.38789 11.4726 9.32461C11.4726 9.30352 11.4586 9.27891 11.448 9.26485C11.4375 9.26133 11.434 9.25782 11.4129 9.25782C11.3953 9.25782 11.3953 9.26485 11.3848 9.28242C11.3777 9.3 11.3742 9.31758 11.3742 9.33868C11.3707 9.35977 11.3601 9.3668 11.3426 9.37383C11.325 9.37383 11.3285 9.37383 11.3144 9.36328C11.3039 9.35274 11.2933 9.34922 11.2933 9.33164L11.2828 9.27539C11.2758 9.26485 11.2617 9.25782 11.2476 9.2543C11.1668 9.2543 11.1598 9.34571 11.1633 9.38086C11.1598 9.38789 11.1562 9.55664 11.2687 9.59883H11.2652ZM13.7965 8.83946C13.9441 8.90977 14.2219 8.87813 14.2113 8.64258L14.2043 8.53008C14.1726 8.45977 14.0918 8.47735 14.0742 8.54766C14.0672 8.57227 14.0847 8.61094 14.0601 8.625C14.0496 8.63555 14.0004 8.62852 14.0039 8.56172C14.0039 8.54063 13.9898 8.51953 13.9793 8.50547C13.9687 8.49844 13.9652 8.49844 13.9441 8.49844C13.9265 8.49844 13.9265 8.50547 13.916 8.52305L13.9055 8.57578C13.9019 8.60039 13.8914 8.61094 13.8738 8.61094C13.8562 8.61094 13.8597 8.61094 13.8457 8.60391C13.8351 8.59336 13.8246 8.58985 13.8246 8.57227C13.8246 8.55469 13.8211 8.52656 13.814 8.5125C13.807 8.50196 13.793 8.49844 13.7789 8.49492C13.698 8.49492 13.691 8.58633 13.6945 8.62149C13.691 8.62852 13.6875 8.79375 13.8 8.83946H13.7965ZM15.1078 10.7484C14.8512 11.0402 14.9637 11.5219 15.0234 11.6274C15.1078 11.7961 15.1746 11.9051 15.3398 11.9895C15.491 12.0984 15.6105 12.0316 15.6738 11.9543C15.825 11.7961 15.8285 11.3918 15.8988 11.3145C15.948 11.1668 16.0746 11.1914 16.1344 11.2582C16.1903 11.3376 16.2652 11.4016 16.3523 11.4445C16.4929 11.5676 16.6617 11.5922 16.8304 11.4797C16.9429 11.4129 17.0168 11.332 17.0836 11.1668C17.1539 10.9699 17.1187 10.0559 17.1011 9.51446L16.9535 8.7586C16.9535 8.75157 16.9359 8.4 16.9183 8.31914C16.9183 8.28399 16.9078 8.27344 16.9429 8.27696C16.9816 8.31211 16.9851 8.31211 17.0133 8.32266C17.0484 8.32969 17.0836 8.26289 17.059 8.20664L16.7074 7.55274C16.6793 7.52461 16.6406 7.49648 16.5949 7.55977C16.5679 7.58418 16.5465 7.61404 16.5319 7.64738C16.5174 7.68071 16.5101 7.71676 16.5105 7.75313C16.5211 7.90781 16.5457 8.06602 16.5562 8.2207L16.6969 9.01524C16.7426 9.57774 16.7531 10.0418 16.7988 10.6078C16.7918 10.8469 16.7179 11.0543 16.6476 11.0859C16.6476 11.0859 16.5422 11.1457 16.4719 11.0789C16.4191 11.0578 16.2117 10.7309 16.2117 10.7309C16.1062 10.6359 16.0359 10.6606 15.9621 10.7309C15.7512 10.9348 15.6597 11.3074 15.5156 11.5676C15.4804 11.6274 15.375 11.6731 15.2625 11.5641C14.9742 11.1668 15.1429 10.6043 15.1078 10.7484V10.7484ZM13.8633 7.4543C13.9969 7.50703 14.0883 7.77774 14.0601 7.91133C14.032 8.06953 13.9617 8.24531 13.9125 8.22422C13.8562 8.20313 13.9476 8.0625 13.8949 7.91485C13.8668 7.81641 13.684 7.64063 13.7051 7.59141C13.6699 7.48242 13.7824 7.4332 13.8633 7.45078V7.4543Z"
    fill="white"
  />
  <path
    fill-rule="evenodd"
    clip-rule="evenodd"
    d="M15.5367 10.9102C15.5613 10.5867 15.5156 10.3898 15.5086 10.2C15.5016 10.0102 15.2941 8.56172 15.252 8.4211C15.1992 8.14688 15.4523 8.38594 15.4242 8.22422C15.3363 8.02735 15.1219 7.73555 15.0551 7.56329C15.0129 7.49297 15.0305 7.42266 14.9391 7.54571C14.8604 7.76145 14.8327 7.99248 14.8582 8.22071C15.0762 9.35625 15.2977 10.2984 15.2625 11.3777C15.368 11.3777 15.484 11.1422 15.5367 10.9102V10.9102ZM17.8008 7.91133C17.9238 7.9711 17.9941 8.3086 17.9801 8.40352C17.9555 8.5793 17.8922 8.76914 17.8465 8.74453C17.7938 8.72344 17.857 8.48438 17.8324 8.41055C17.8043 8.30508 17.6391 8.11524 17.6566 8.05899C17.6215 7.93946 17.727 7.89024 17.8008 7.91133V7.91133ZM8.81133 10.2984C8.92735 10.3441 8.99766 10.5902 8.98711 10.6606C8.95899 10.7906 8.89922 10.9313 8.85352 10.9102C8.80782 10.8961 8.86406 10.7203 8.84297 10.6641C8.83242 10.534 8.67071 10.4637 8.67422 10.4074C8.6461 10.302 8.74453 10.2844 8.81485 10.2984H8.81133Z"
    fill="white"
  />
  <path
    fill-rule="evenodd"
    clip-rule="evenodd"
    d="M11.6098 10.6711C11.7574 10.6781 11.8313 10.7977 11.6941 10.8469C11.5535 10.8926 11.4234 10.9313 11.4199 11.1281C11.4727 11.4094 11.3496 11.3109 11.2793 11.2758C11.1949 11.2125 10.9559 11.0649 10.9207 10.7484C10.9172 10.6746 10.977 10.6078 11.0719 10.6078C11.2125 10.6465 11.4234 10.65 11.6098 10.6711V10.6711Z"
    fill="#1B9D00"
  />
  <path
    fill-rule="evenodd"
    clip-rule="evenodd"
    d="M5.7211 7.37345C5.88985 7.42267 5.90039 7.6758 5.88985 7.74962C5.86524 7.88322 5.80547 8.02736 5.76328 8.00978C5.71406 7.9922 5.76328 7.80939 5.73867 7.75314C5.71406 7.6758 5.56992 7.52814 5.58399 7.48595C5.55235 7.39806 5.6543 7.35587 5.7211 7.37345V7.37345ZM9.09258 8.5547C8.95898 8.62502 8.90976 8.83595 8.99062 8.96252C9.06797 9.06799 9.1875 9.02931 9.20156 9.02931C9.33164 9.04338 9.40898 8.78673 9.40898 8.78673C9.40898 8.78673 9.4125 8.71642 9.26133 8.85353C9.19453 8.86408 9.19101 8.83947 9.17344 8.80431C9.15734 8.73738 9.16351 8.66703 9.19101 8.60392C9.21562 8.54064 9.1664 8.51252 9.09258 8.5547ZM10.0769 7.27501C10.0066 7.32072 9.87656 7.45783 9.87304 7.61251C9.86953 7.7004 9.85195 7.7004 9.9082 7.75314C9.9539 7.81642 9.99257 7.81291 10.0769 7.7672C10.098 7.75397 10.116 7.73651 10.1299 7.71593C10.1439 7.69535 10.1533 7.67211 10.1578 7.64767C10.1789 7.54923 10.0523 7.69689 10.0383 7.58439C10.0102 7.47892 10.091 7.43673 10.1684 7.33829C10.1684 7.26798 10.1684 7.22228 10.0734 7.27501H10.0769ZM10.8644 7.41564C10.8335 7.54366 10.8146 7.67431 10.8082 7.80587C10.7871 7.90431 10.9137 7.9465 10.9664 7.81994C11.0508 7.59142 11.0508 7.49298 11.0578 7.39806C11.0332 7.24689 10.9312 7.2504 10.8644 7.41564ZM15.8566 9.95744C15.8707 9.93986 16.5598 9.45119 16.5598 9.45119C16.6301 9.42658 16.6125 9.70431 16.5808 9.7008C16.3672 9.90675 16.1214 10.0765 15.8531 10.2035C15.818 10.2281 15.7863 10.0172 15.8531 9.95744H15.8566ZM16.4789 9.95041C16.6019 10.0102 16.6512 10.3653 16.6371 10.4602C16.6371 10.65 16.5211 10.7977 16.4719 10.7766C16.4226 10.752 16.4789 10.541 16.4543 10.4672C16.4262 10.3617 16.3242 10.1684 16.3418 10.1121C16.3066 9.9926 16.4051 9.92931 16.4824 9.95041H16.4789ZM12.4008 11.4762C12.4578 11.4096 12.5241 11.3516 12.5976 11.3039C12.668 11.2688 12.7312 11.3321 12.7277 11.3285C12.7383 11.3988 12.6855 11.4586 12.7031 11.55C12.7172 11.5852 12.7277 11.6274 12.7945 11.6133C12.9035 11.5254 13.0055 11.5184 13.1109 11.5149C13.1988 11.5184 13.2023 11.6625 13.1461 11.6625C12.9457 11.7047 12.8578 11.761 12.7137 11.8137C12.6434 11.8559 12.5871 11.8031 12.5871 11.7996C12.5871 11.7961 12.5484 11.761 12.573 11.6696C12.5801 11.5992 12.5519 11.5571 12.4887 11.5641C12.4465 11.5922 12.4043 11.6063 12.3832 11.5535C12.3726 11.5184 12.3691 11.4973 12.4008 11.4762V11.4762ZM17.2031 11.666C17.2312 11.7012 17.2523 11.7363 17.1996 11.7996L17.0695 11.9121C17.0484 11.9473 17.0344 12.0106 17.1047 12.0281C17.2312 12.0633 17.5265 11.8699 17.5265 11.8664C17.5758 11.8313 17.5617 11.761 17.5547 11.761C17.5265 11.7293 17.4633 11.7504 17.4211 11.7434C17.4 11.7434 17.3332 11.7363 17.3648 11.6731C17.3884 11.642 17.4074 11.6077 17.4211 11.5711C17.4387 11.5289 17.4211 11.5008 17.3508 11.4762C17.2769 11.4621 17.2453 11.4692 17.1644 11.4762C17.1223 11.4832 17.1082 11.5043 17.0976 11.5571C17.1012 11.6379 17.1504 11.6344 17.2031 11.6625V11.666Z"
    fill="white"
  />
  <path
    fill-rule="evenodd"
    clip-rule="evenodd"
    d="M12.4254 9.66915C12.4078 9.70431 12.3445 9.70431 12.2848 9.66915C12.225 9.634 12.1898 9.57775 12.2109 9.54611C12.232 9.51447 12.2918 9.51447 12.3516 9.54611C12.4113 9.57775 12.443 9.63751 12.4254 9.66915ZM9.29648 7.78478C9.26133 7.79532 9.21211 7.76368 9.19101 7.71446C9.16992 7.66524 9.18047 7.62306 9.21562 7.61251C9.25078 7.60196 9.29648 7.63712 9.32109 7.68282C9.3457 7.72853 9.33164 7.77774 9.29297 7.78829L9.29648 7.78478Z"
    fill="#259F00"
  />
  <path
    fill-rule="evenodd"
    clip-rule="evenodd"
    d="M15.4875 16.1836C15.818 16.1977 16.1273 16.1836 16.4543 16.2012C16.514 16.2539 16.4719 16.3769 16.4332 16.3699L16.159 16.3594C16.1555 16.2539 15.8883 16.2715 15.8953 16.3629C15.7512 16.3804 15.6211 16.3594 15.4734 16.3523C15.4313 16.2996 15.4383 16.2047 15.4875 16.1836V16.1836Z"
    fill="#209000"
  />
</svg>