<svg viewBox="0 0 24 24" fill="none" xmlns="http://www.w3.org/2000/svg">
  <path
        d="M0 17.8956V17.8967C0.0143637 18.4295 0.0187941 18.9653 0.10866 19.4948C0.20389 20.055 0.340018 20.6012 0.599731 21.1096C0.950848 21.7978 1.43306 22.3789 2.04174 22.8536C2.47876 23.1945 2.95617 23.465 3.48464 23.6357C4.25524 23.8843 5.05024 23.9796 5.85684 23.9842C6.36008 23.9874 6.863 24 7.36643 23.9979C11.0224 23.9825 14.6785 24.0243 18.3346 23.9753C18.8197 23.9688 19.2969 23.9096 19.7731 23.8225C20.6857 23.6555 21.4922 23.2661 22.1823 22.6504C22.9865 21.9331 23.5291 21.0553 23.7741 19.9958C23.9343 19.3032 23.9744 18.6006 23.9813 17.8955V17.7549C23.9813 17.7003 23.9606 5.77462 23.9586 5.617C23.9533 5.18399 23.9214 4.75424 23.8402 4.32818C23.7415 3.80899 23.602 3.30309 23.3534 2.83338C23.0908 2.33713 22.762 1.89092 22.3553 1.50101C21.7323 0.903607 21.0134 0.481137 20.1764 0.25766C19.4205 0.0558692 18.6492 0.0111925 17.8724 0.0118921C17.8711 0.0117055 17.8682 0.0038241 17.868 0H6.10956C6.10933 0.00401064 6.10919 0.00802133 6.10891 0.0118921C5.66802 0.01996 5.22647 0.0166488 4.78782 0.0710256C4.30729 0.130765 3.83137 0.220725 3.37654 0.388706C2.66013 0.653688 2.03769 1.06641 1.506 1.61741C0.903607 2.24167 0.478992 2.96363 0.253697 3.80433C0.0526981 4.55441 0.00895429 5.31942 0.00788167 6.08983"
        fill="#FFFC00"
      />
      <path
        d="M12.1088 20.2493C12.059 20.2493 12.0115 20.2474 11.9753 20.2457C11.9467 20.2482 11.917 20.2493 11.8874 20.2493C10.841 20.2493 10.1414 19.7546 9.524 19.3178C9.08147 19.0052 8.66413 18.7101 8.17521 18.6288C7.93508 18.5889 7.69622 18.5688 7.46542 18.5688C7.04957 18.5688 6.72093 18.6333 6.48099 18.6802C6.33334 18.7089 6.20603 18.7337 6.10763 18.7337C6.00456 18.7337 5.87935 18.7109 5.82716 18.5327C5.7858 18.3921 5.75614 18.2559 5.7275 18.1248C5.65587 17.7971 5.60392 17.5971 5.48122 17.5781C4.16886 17.3756 3.39345 17.0773 3.23899 16.7161C3.22281 16.6781 3.21376 16.6399 3.21176 16.6021C3.20574 16.4945 3.28176 16.4 3.3879 16.3824C4.43011 16.2108 5.3568 15.66 6.14237 14.7447C6.75092 14.036 7.04976 13.359 7.08184 13.2842C7.08324 13.2809 7.08487 13.2773 7.08655 13.2741C7.23798 12.9669 7.2681 12.7014 7.17637 12.4852C7.00727 12.0864 6.44723 11.9088 6.07671 11.7912C5.98456 11.762 5.8974 11.7344 5.82796 11.7069C5.4995 11.5771 4.95933 11.303 5.03128 10.9247C5.0837 10.6488 5.44862 10.4566 5.74355 10.4566C5.82544 10.4566 5.898 10.471 5.95909 10.4997C6.29235 10.6558 6.59217 10.7349 6.85002 10.7349C7.17068 10.7349 7.32556 10.6129 7.36301 10.5782C7.35377 10.4071 7.34249 10.2262 7.33157 10.0552C7.33157 10.055 7.33134 10.053 7.33134 10.053C7.25607 8.85559 7.16219 7.3655 7.54334 6.511C8.68414 3.95319 11.1034 3.75429 11.8175 3.75429C11.8365 3.75429 12.1288 3.7514 12.1288 3.7514C12.142 3.75116 12.1563 3.75098 12.1711 3.75098C12.8872 3.75098 15.3115 3.95011 16.453 6.50946C16.8341 7.36452 16.7402 8.85587 16.6647 10.0545L16.6611 10.1119C16.6508 10.2746 16.6412 10.4286 16.6331 10.578C16.6684 10.6104 16.8101 10.7224 17.0985 10.7337C17.3443 10.7243 17.6267 10.6455 17.9378 10.4999C18.034 10.4547 18.1404 10.4453 18.2127 10.4453C18.322 10.4453 18.4332 10.4666 18.5258 10.5053L18.5308 10.5072C18.7947 10.6009 18.9676 10.7881 18.9713 10.9848C18.9746 11.1682 18.8384 11.4423 18.1681 11.707C18.0995 11.7342 18.0119 11.762 17.9194 11.7913C17.5485 11.909 16.989 12.0866 16.8199 12.4851C16.728 12.7013 16.7582 12.9667 16.9097 13.2738C16.9114 13.2772 16.9128 13.2806 16.9144 13.2841C16.9611 13.3934 18.0899 15.9673 20.6084 16.3822C20.7145 16.3999 20.7906 16.4944 20.7846 16.6019C20.7823 16.6405 20.773 16.6791 20.7567 16.7169C20.6033 17.0761 19.8279 17.374 18.5152 17.5767C18.392 17.5958 18.3401 17.7949 18.2691 18.1209C18.2397 18.2555 18.2098 18.3875 18.169 18.5262C18.1308 18.6566 18.0459 18.7204 17.9094 18.7204H17.8888C17.8 18.7204 17.6741 18.7042 17.5154 18.6732C17.2379 18.6192 16.9267 18.5689 16.531 18.5689C16.3002 18.5689 16.0614 18.5891 15.821 18.6289C15.3326 18.7102 14.9153 19.0049 14.4735 19.3172C13.8549 19.7546 13.1551 20.2493 12.1088 20.2493Z"
        fill="white"
      />
      <path
        d="M12.1711 3.96153C12.8452 3.96153 15.1665 4.14261 16.2605 6.59512C16.6207 7.40271 16.5283 8.86561 16.4543 10.0408C16.4427 10.2273 16.4312 10.408 16.4219 10.5806L16.418 10.6548L16.4675 10.7101C16.4875 10.7323 16.6748 10.928 17.0912 10.9441L17.0979 10.9444L17.1049 10.9443C17.3803 10.9338 17.6904 10.8483 18.0272 10.6905C18.0768 10.6673 18.1428 10.6559 18.2127 10.6559C18.2923 10.6559 18.3769 10.6709 18.4467 10.7003L18.4572 10.7045C18.6338 10.7664 18.7587 10.8831 18.7606 10.9886C18.7616 11.0483 18.717 11.2634 18.0909 11.5107C18.0298 11.5348 17.9492 11.5605 17.8559 11.59C17.4484 11.7193 16.833 11.9145 16.6258 12.4027C16.5092 12.6776 16.5411 13.0021 16.7207 13.367C16.7945 13.5394 17.9574 16.1588 20.5742 16.59C20.5737 16.6024 20.5705 16.616 20.5635 16.632C20.5191 16.7364 20.2372 17.0974 18.483 17.368C18.2085 17.4101 18.1413 17.7178 18.0633 18.0755C18.0351 18.2035 18.0065 18.3328 17.9671 18.4663C17.9551 18.5067 17.9529 18.509 17.9096 18.509C17.9037 18.509 17.8967 18.509 17.889 18.509C17.8112 18.509 17.6931 18.4928 17.5563 18.466C17.307 18.4174 16.9665 18.3579 16.5311 18.3579C16.2882 18.3579 16.0379 18.379 15.7867 18.4209C15.2499 18.5102 14.8134 18.8189 14.351 19.1458C13.7301 19.5845 13.0884 20.0385 12.1092 20.0385C12.0664 20.0385 12.0247 20.0371 11.9829 20.035L11.9719 20.0345L11.9608 20.0353C11.9368 20.0374 11.9126 20.0385 11.8879 20.0385C10.9089 20.0385 10.2668 19.5847 9.64621 19.1458C9.18377 18.8189 8.74698 18.5102 8.21026 18.4209C7.95936 18.3791 7.70884 18.3579 7.46601 18.3579C7.03076 18.3579 6.68981 18.4245 6.44105 18.4731C6.30418 18.4999 6.18568 18.5228 6.10812 18.5228C6.04461 18.5228 6.04339 18.5191 6.02996 18.4732C5.9906 18.3396 5.96183 18.2072 5.9338 18.0794C5.85564 17.7213 5.78835 17.4119 5.51399 17.3698C3.75989 17.0989 3.47794 16.7374 3.43345 16.6332C3.4265 16.6168 3.42337 16.6028 3.42267 16.5904C6.03938 16.1596 7.20205 13.5401 7.27615 13.367C7.45603 13.0024 7.48792 12.678 7.37092 12.4027C7.16376 11.9148 6.54836 11.7193 6.14123 11.5902C6.04764 11.5606 5.96705 11.5348 5.90582 11.5107C5.37716 11.3018 5.21454 11.0914 5.2387 10.9639C5.26673 10.8168 5.52164 10.6673 5.74409 10.6673C5.79408 10.6673 5.83792 10.6754 5.87033 10.6905C6.23161 10.8599 6.56142 10.9457 6.8507 10.9457C7.30544 10.9457 7.50784 10.7341 7.52957 10.71L7.57886 10.6549L7.5749 10.581C7.56571 10.4085 7.55438 10.2278 7.54244 10.0417C7.46862 8.86626 7.37628 7.40434 7.73635 6.59671C8.82622 4.1532 11.1362 3.96484 11.8181 3.96484C11.8349 3.96484 12.1314 3.96181 12.1314 3.96181C12.1435 3.96172 12.157 3.96153 12.1711 3.96153ZM12.1711 3.54004H12.1703C12.1548 3.54004 12.1402 3.54004 12.1263 3.54023C12.0155 3.54134 11.8333 3.54312 11.8169 3.5433C11.4175 3.5433 10.6182 3.59973 9.75963 3.97869C9.26874 4.19522 8.8272 4.488 8.44731 4.84891C7.99438 5.27893 7.62541 5.80913 7.35082 6.425C6.94868 7.32674 7.04414 8.8456 7.12081 10.0662L7.12109 10.0681C7.1293 10.1988 7.13793 10.3353 7.14581 10.4683C7.08681 10.4954 6.99116 10.524 6.85019 10.524C6.62335 10.524 6.35361 10.4515 6.04866 10.3086C5.95894 10.2668 5.85653 10.2457 5.74353 10.2457C5.56198 10.2457 5.37059 10.2991 5.20456 10.3967C4.99568 10.5194 4.86072 10.6927 4.82407 10.8849C4.79991 11.012 4.80108 11.2633 5.08019 11.5181C5.23371 11.6584 5.45924 11.7878 5.75034 11.9028C5.82673 11.9329 5.91738 11.9616 6.01341 11.9921C6.34662 12.098 6.85093 12.258 6.98244 12.5675C7.04908 12.7245 7.0204 12.931 6.89743 13.1805C6.89421 13.1874 6.89099 13.194 6.88805 13.201C6.85732 13.2728 6.57061 13.9222 5.98249 14.6072C5.6483 14.9967 5.28021 15.3222 4.88903 15.5749C4.41158 15.8835 3.89495 16.0853 3.35365 16.1744C3.14109 16.2093 2.98929 16.3987 3.00114 16.6139C3.00477 16.676 3.01932 16.7378 3.04455 16.7976C3.04474 16.798 3.04497 16.7984 3.04516 16.7987C3.13111 16.9998 3.33038 17.1705 3.65436 17.3212C4.05025 17.505 4.64233 17.6597 5.414 17.7808C5.45299 17.8549 5.49347 18.0413 5.5215 18.1689C5.55083 18.3045 5.58142 18.4439 5.62503 18.592C5.67208 18.7525 5.79413 18.9443 6.10766 18.9443C6.22648 18.9443 6.36313 18.9175 6.52136 18.8868C6.75309 18.8413 7.06998 18.7793 7.46549 18.7793C7.68477 18.7793 7.91203 18.7986 8.14077 18.8366C8.58171 18.91 8.96183 19.1786 9.40165 19.4895C10.0454 19.9446 10.7741 20.4597 11.8874 20.4597C11.9178 20.4597 11.9482 20.4587 11.9783 20.4566C12.0151 20.4583 12.0607 20.4597 12.1088 20.4597C13.2225 20.4597 13.951 19.9444 14.594 19.4897L14.5951 19.4888C15.035 19.1782 15.4147 18.91 15.8555 18.8366C16.0841 18.7987 16.3113 18.7793 16.5307 18.7793C16.9085 18.7793 17.2077 18.8275 17.4748 18.8796C17.6492 18.9139 17.7846 18.9304 17.8886 18.9304L17.8988 18.9306H17.9093C18.1386 18.9306 18.3071 18.8047 18.3714 18.5845C18.4141 18.4395 18.4446 18.3033 18.4747 18.1654C18.5009 18.0458 18.5428 17.8542 18.5818 17.7792C19.354 17.658 19.9458 17.5036 20.3417 17.3198C20.665 17.1698 20.864 16.9992 20.9505 16.799C20.9764 16.739 20.9916 16.6768 20.995 16.6135C21.0071 16.3986 20.8551 16.2089 20.6424 16.174C18.2367 15.7775 17.153 13.3056 17.1081 13.2006C17.1053 13.1937 17.102 13.1868 17.0986 13.1802C16.9756 12.9305 16.9472 12.7242 17.0139 12.567C17.1451 12.2578 17.6491 12.0978 17.9826 11.9919C18.0791 11.9615 18.1701 11.9326 18.2459 11.9026C18.5741 11.773 18.8088 11.6323 18.9635 11.4726C19.1484 11.2822 19.1844 11.0998 19.1822 10.9804C19.1765 10.6915 18.9557 10.4348 18.6044 10.3092C18.4858 10.2601 18.3505 10.2342 18.2128 10.2342C18.119 10.2342 17.9801 10.2471 17.8486 10.3085C17.5672 10.4402 17.3151 10.5122 17.0986 10.5224C16.9835 10.5166 16.9028 10.4916 16.8505 10.4678C16.8571 10.3551 16.8644 10.2394 16.8719 10.1187L16.875 10.067C16.9521 8.84565 17.0479 7.32562 16.6456 6.42322C16.3698 5.80516 15.9995 5.27362 15.5448 4.84266C15.1634 4.48151 14.7204 4.18878 14.2277 3.9724C13.3704 3.59623 12.5711 3.54004 12.1711 3.54004Z"
        fill="#020202"
      />
</svg>