<svg width="32" height="32" viewBox="0 0 32 32" fill="none" xmlns="http://www.w3.org/2000/svg">
<rect width="32" height="32" rx="3" fill="#1434CB"/>
<path d="M12.3897 11.674L8.46209 21.1948H5.8996L3.9668 13.5974C3.84946 13.1294 3.74805 12.958 3.39055 12.7608C2.8079 12.4396 1.84572 12.1383 0.999939 11.9512L1.05744 11.6745H5.18242C5.7082 11.6745 6.18085 12.0301 6.30022 12.6452L7.321 18.1538L9.8438 11.6737H12.3907L12.3897 11.674ZM22.43 18.0864C22.4403 15.5735 19.01 15.4352 19.0336 14.3126C19.0409 13.9709 19.3617 13.6077 20.0619 13.515C20.4092 13.4688 21.3662 13.4336 22.4525 13.9411L22.8783 11.9221C22.295 11.707 21.5445 11.5 20.6108 11.5C18.2147 11.5 16.5285 12.7941 16.5142 14.6472C16.4986 16.0179 17.7174 16.7827 18.6363 17.2382C19.5811 17.7046 19.8981 18.0043 19.8945 18.4215C19.8878 19.0601 19.1409 19.3422 18.443 19.3532C17.2242 19.3722 16.5175 19.0182 15.9539 18.752L15.5146 20.8378C16.081 21.1018 17.1264 21.3322 18.2103 21.3437C20.7572 21.3437 22.423 20.0657 22.4308 18.0864H22.43ZM28.7579 21.1948H30.9999L29.0418 11.674H26.9728C26.7518 11.6721 26.5353 11.7376 26.3514 11.8622C26.1676 11.9867 26.0248 12.1645 25.9415 12.3725L22.3039 21.1948H24.8493L25.3543 19.7728H28.4645L28.7579 21.1948ZM26.0531 17.8214L27.329 14.2467L28.0634 17.8214H26.0531ZM15.8533 11.674L13.8488 21.1948H11.4247L13.43 11.674H15.8533Z" fill="white"/>
</svg>
