<svg viewBox="0 0 24 24" fill="none" xmlns="http://www.w3.org/2000/svg">
  <path
    d="M23.4986 6.64038C23.2225 5.60108 22.4093 4.78259 21.3766 4.50482C19.5051 4 12 4 12 4C12 4 4.495 4 2.6234 4.50482C1.59065 4.78259 0.777275 5.60108 0.501445 6.64038C0 8.52415 0 12.4546 0 12.4546C0 12.4546 0 16.3849 0.501445 18.2688C0.777275 19.3082 1.59065 20.1265 2.6233 20.4046C4.4949 20.9092 11.9999 20.9092 11.9999 20.9092C11.9999 20.9092 19.505 20.9092 21.3765 20.4046C22.4092 20.1266 23.2224 19.3082 23.4985 18.2689C24 16.385 24 12.4547 24 12.4547C24 12.4547 24 8.52425 23.4985 6.64049"
    fill="#FF0000"
  />
  <path
    d="M9.54541 16.023L15.8181 12.4547L9.54541 8.88599V16.023Z"
    fill="white"
  />
</svg>